<?xml version="1.0" standalone="no"?>
<!DOCTYPE svg PUBLIC "-//W3C//DTD SVG 1.1//EN" "http://www.w3.org/Graphics/SVG/1.1/DTD/svg11.dtd" >
<svg>
<metadata>
Created by FontForge 20090914 at Sun Oct 17 17:30:25 2021
 By www-data
&#194;&#169; 2006 Microsoft Corporation. All Rights Reserved.
</metadata>
<defs>
<font id="Webdings" horiz-adv-x="2048" >
  <font-face 
    font-family="Webdings"
    font-weight="400"
    font-stretch="normal"
    units-per-em="2048"
    panose-1="5 3 1 2 1 5 9 6 7 3"
    ascent="1638"
    descent="-410"
    x-height="606"
    cap-height="1367"
    bbox="-2.99902 -410.003 2645 1638"
    underline-thickness="100"
    underline-position="-223"
    unicode-range="U+0008-U+FB02"
  />
<missing-glyph horiz-adv-x="1024" 
d="M128 0v1238h768v-1238h-768zM276 148h472v942h-472v-942z" />
    <glyph glyph-name=".notdef" horiz-adv-x="1024" 
d="M128 0v1238h768v-1238h-768zM276 148h472v942h-472v-942z" />
    <glyph glyph-name="uni001D" horiz-adv-x="0" 
 />
    <glyph glyph-name="uni001D" horiz-adv-x="0" 
 />
    <glyph glyph-name="uni001D" horiz-adv-x="0" 
 />
    <glyph glyph-name="space" unicode="&#x9;" horiz-adv-x="1024" 
 />
    <glyph glyph-name="space" unicode=" " horiz-adv-x="1024" 
 />
    <glyph glyph-name="uni000D" unicode="&#xd;" horiz-adv-x="1024" 
 />
    <glyph glyph-name="spider" unicode="!" 
d="M1705 434c0 -84 -33.3359 -196.999 -100.003 -338.999c-56.667 -120.667 -117.667 -224.334 -183 -311.001c107.333 327.333 161 523.666 161 588.999c0 20 -2.66699 35 -8 45c-12 21.333 -61.667 44.333 -149 69c14 -28.667 21 -55.334 21 -80.001
c0 -154.667 -70.333 -344 -211 -568l65 269c24.667 113.333 37 203.333 37 270c0 50 -6.33301 84.333 -19 103c-11.333 16.667 -41.333 37.667 -90 63c7.33301 -42.667 11 -89.334 11 -140.001c0 -61.333 -7.33301 -121.333 -22 -180s-36.667 -115 -66 -169
c-41.333 -74 -83.666 -111 -126.999 -111c-44 0 -86.667 37 -128 111c-30 54 -52.333 110.333 -67 169s-22 118.667 -22 180c0 50.667 3.33301 97.334 10 140.001c-48.667 -25.333 -78.667 -46.333 -90 -63c-12.667 -18.667 -19 -53 -19 -103
c0 -66.667 12.333 -156.667 37 -270l65 -269c-140.667 223.333 -211 412.666 -211 567.999c0 24.667 7.33301 51.334 22 80.001c-88 -24.667 -137.667 -47.667 -149 -69c-6 -10 -9 -25 -9 -45c0 -67.333 54 -263.666 162 -588.999c-65.333 86 -126.666 189.667 -183.999 311
c-66.667 142 -100 255 -100 339c0 26 4.66699 45 14 57c18.667 24 182.667 76 492 156l5 10c-134.667 -12 -236.667 -18 -306 -18c-44.667 0 -72 3 -82 9c-24.667 14 -37 76 -37 186c0 222.667 47.667 403.334 143 542.001c-32 -222 -48 -375.667 -48 -461
c0 -102 14.667 -164.333 44 -187c11.333 -8.66699 34.333 -13 69 -13c28 0 56 2 84 6c-40.667 40 -61 92.333 -61 157c0 226.667 54.333 412.334 163 557.001c-36 -198.667 -54 -354.334 -54 -467.001c0 -126.667 11.333 -197.334 34 -212.001c10 -6.66699 27 -10 51 -10
c30 0 68.667 4 116 12c-56.667 32.667 -85 90.667 -85 174c0 46 11.333 87.333 34 124c26.667 43.333 61.667 65 105 65s78.333 -21.333 105 -64c23.333 -37.333 35 -79 35 -125c0 -83.333 -28.333 -141.333 -85 -174c48 -8 86.667 -12 116 -12c24.667 0 42 3.33301 52 10
c22.667 14.667 34 85.334 34 212.001c0 111.333 -18.333 267 -55 467c108.667 -144.667 163 -330.334 163 -557.001c0 -64.667 -20.333 -117 -61 -157c28 -4 56 -6 84 -6c35.333 0 58.333 4.33301 69 13c29.333 22.667 44 85 44 187c0 84.667 -15.667 238.334 -47 461.001
c95.333 -139.333 143 -320 143 -542c0 -110 -12.667 -172 -38 -186c-9.33301 -6 -36.333 -9 -81 -9c-69.333 0 -171.666 6 -306.999 18l5 -10c309.333 -80 473.333 -132 492 -156c9.33301 -12 14 -31 14 -57z" />
    <glyph glyph-name="web" unicode="&#x22;" 
d="M2050 809l-115.998 -38c-84 -154.667 -153 -313.334 -207 -476.001c-52 -155.333 -96.667 -333.333 -134 -534l81 -111l-46 -34l-60 82c-182.667 34 -364.334 51 -545.001 51c-180 0 -361.333 -17 -544 -51l-60 -82l-46 34l81 111c-37.333 200.667 -82 378.667 -134 534
c-54 162.667 -123 321.334 -207 476.001l-116 38l18 54l112 -36c180.667 98.667 337.667 197 471 295c142.667 105.333 275 223 397 353v108h57v-108c122 -130 254.333 -247.667 397 -353c133.333 -98 290.666 -196.333 471.999 -295l111 36zM1850 804
c-161.333 87.333 -307.333 178.667 -438 274c-119.333 86.667 -239.333 192 -360 316v-222c56 -62.667 148.667 -141.667 278 -237c120 -88.667 224.667 -154.667 314 -198zM1571 713.001c-76 38.667 -169 97.998 -279 177.998c-100 72.667 -180 139.334 -240 200.001v-187
c46 -53.333 97 -100.666 153 -141.999s114 -78.333 174 -111zM1857 745.999l-210.999 -68c-41.333 -74.667 -86 -184 -134 -328c-46 -138 -76 -255.667 -90 -353l127 -175c33.333 178 74.666 343 123.999 495c44.667 136 106 279 184 429zM1309 627.999
c-52 29.333 -99.333 59.334 -142 90.001c-36 25.333 -74.333 59.666 -115 102.999v-276zM1570 653l-180 -58.999c-60 -103.333 -104 -227.333 -132 -372l119 -163c13.333 83.333 40.333 187.666 81 312.999c36.667 112 74 205.667 112 281zM995.003 1172
l0.000976562 221.999c-120.667 -124 -240.334 -229.333 -359.001 -316c-131.333 -95.333 -277.333 -186.666 -438 -273.999l205 -67c89.333 43.333 194 109.333 314 198c129.333 95.333 222 174.333 278 237zM1312 569l-248 -80l151 -208c12 56 25.333 108.333 40 157
c12.667 39.333 31.667 83 57 131zM995.004 904v187.002c-60 -60.667 -140 -127.334 -240 -200.001c-110 -80 -203 -139.333 -279 -178l192 -62c60 32.667 118 69.667 174 111s107 88.666 153 141.999zM995.004 545.002v275.999c-40.667 -43.333 -79 -77.666 -115 -102.999
c-42.667 -30.667 -90 -60.667 -142 -90zM1183 227.001l-159 219l-160 -219c58 9.33301 111 14 159 14s101.333 -4.66699 160 -14zM983.004 489.001l-248 80c25.333 -48 44.333 -91.667 57 -131c14.667 -48.667 28 -101 40 -157zM1343 8.00098l-112.002 153
c-69.333 14.667 -138.333 22 -207 22c-69.333 0 -138.666 -7.33301 -207.999 -22l-111 -153c88 13.333 194 20 318 20c124.667 0 231.334 -6.66699 320.001 -20zM789.002 222.001c-12.667 65.333 -29.667 129.999 -51 193.999c-20 60.667 -47 120 -81 178l-180 59
c38 -75.333 75.333 -169 112 -281c40.667 -125.333 67.667 -229.666 81 -312.999zM1521 -237l-130.999 180c-90 18 -212 27 -366 27c-154.667 0 -277 -9 -367 -27l-130 -180c175.333 28.667 340.666 43 495.999 43c156 0 322 -14.333 498 -43zM625.003 -3
c-14 97.333 -43.999 215 -89.999 353c-48 144 -92.667 253.333 -134 328l-211 68c78 -150 139.333 -293 184 -429c49.333 -152 90.666 -317 123.999 -495z" />
    <glyph glyph-name="nopiracy" unicode="#" 
d="M1843 612c0 -226 -80 -419 -240 -579s-353 -240 -579 -240s-419 80 -579 240s-240 353 -240 579s80 419 240 579s353 240 579 240s419 -80 579 -240s240 -353 240 -579zM1712 612c0 190 -67.168 352.167 -201.501 486.5s-296.5 201.5 -486.5 201.5
c-170 0 -319.333 -55 -448 -165l129 -129l-91 -100l-131 132c-98 -124.667 -147 -266.667 -147 -426c0 -190 67.167 -352.167 201.5 -486.5s296.5 -201.5 486.5 -201.5c158.667 0 300.334 49.333 425.001 148l-118 117l90 100l125 -124c110.667 128.667 166 277.667 166 447
zM1322 291c0 -82.667 -29.167 -152.997 -87.5 -210.997s-128.5 -87 -210.5 -87c-82.667 0 -153.334 29 -212.001 87s-88 128.333 -88 211v176c-33.333 1.33301 -61.5 13.666 -84.5 36.999s-34.5 51 -34.5 83c0 31.333 11.5 58.666 34.5 81.999s51.167 35.666 84.5 36.999
v441c206.667 0 362.334 -37 467.001 -111c87.333 -61.333 131 -139.333 131 -234v-511zM1051 1060l-208 48h-69v-73zM1202 963.003l-81 60l-347 -38v-73zM1259 857.003l-26 56l-459 -55v-60zM1272 746.003v56l-498 -56h498zM1272 291.003v414.999h-40
c0 -71.333 -8 -121.166 -24 -149.499s-43.667 -42.5 -83 -42.5c-70.667 0 -106 64 -106 192h-245v-415h498zM723.999 511.002v151c-48.667 -4 -73 -29 -73 -75c0 -46.667 24.333 -72 73 -76zM1136 189.002v39h-226v-39h226zM892.999 592.002l-34 -36l-29 36h63z
M986.999 338.002h-37v278h-141v34h178v-312z" />
    <glyph glyph-name="cool" unicode="$" 
d="M1630 835l-29.0059 -13c0.666992 -94 -7.66602 -158.667 -24.999 -194c-43.333 -88.667 -112.666 -133 -207.999 -133c-122 0 -204.333 38 -247 114c-25.333 45.333 -40 119.666 -44 222.999l18 31c-20.667 17.333 -47.667 26 -81 26s-60.333 -8.66699 -81 -26l18 -31
c-4 -103.333 -18.667 -177.666 -44 -222.999c-42.667 -76 -125 -114 -247 -114c-95.333 0 -164.666 44.333 -207.999 133c-17.333 35.333 -25.666 100 -24.999 194l-29 13v88c114.667 38 207.334 57 278.001 57s150 -16.667 238 -50c36 16.667 69.333 25 100 25
s64 -8.33301 100 -25c88 33.333 167.333 50 238 50s163.334 -19 278.001 -57v-88zM1281.99 907c-24.667 1.33301 -45.667 -0.666016 -63 -5.99902c-20 -6.66699 -32.333 -11 -37 -13c-10.667 -6 -19.667 -15.333 -27 -28c-8 -14.667 -12 -48.334 -12 -101.001
c0 -39.333 8.33301 -77 25 -113c11.333 63.333 25 114.833 41 154.5s40.333 75.167 73 106.5zM624.994 907.001c-24.667 1.33301 -45.667 -0.666016 -63 -5.99902c-20 -6.66699 -32.333 -11 -37 -13c-10.667 -6 -19.667 -15.333 -27 -28
c-8 -14.667 -12 -48.334 -12 -101.001c0 -39.333 8.33301 -77 25 -113c11.333 63.333 25 114.833 41 154.5s40.333 75.167 73 106.5z" />
    <glyph glyph-name="trophy" unicode="%" horiz-adv-x="2028" 
d="M1885 1197c0 -94.667 -42.333 -164.667 -127 -210c-27.333 -14.667 -106 -40 -236 -76c-84 -23.333 -126 -55.333 -126 -96c0 -55.333 29 -83 87 -83c39.333 0 59 22.667 59 68c26.667 0 40 -21.667 40 -65c0 -30.667 -16 -54 -48 -70c-26 -13.333 -55.667 -20 -89 -20
c-35.333 0 -64.333 8 -87 24c-14.667 -110.667 -95.334 -188.334 -242.001 -233.001v-36h24v-25h47c9.33301 -4.66699 14 -12 14 -22c0 -11.333 -4.66699 -22 -14 -32h-45v-23h-26v-38c0 -50 4.33301 -90 13 -120c23.333 0 43.333 -2 60 -6c26 -6.66699 39 -18.667 39 -36
c53.333 0.666992 80 -29 80 -89c0 -6.66699 -20.667 -13.334 -62 -20.001c-80 -13.333 -157.667 -20 -233 -20c-72.667 0 -147.667 6.33301 -225 19c-43.333 7.33301 -65 14.333 -65 21c0 60 26.667 89.667 80 89c-0.666992 17.333 12.333 29.333 39 36c16.667 4 37 6 61 6
c8 28.667 12 66.667 12 114v44h-26v23h-44c-10 10.667 -15 21.334 -15 32.001c0 10 5 17.333 15 22h46v25h24v36c-146.667 44 -227 121.667 -241 233c-22.667 -16 -52 -24 -88 -24c-34 0 -63.667 6.66699 -89 20c-31.333 16 -47 39.333 -47 70c0 43.333 13 65 39 65
c-0.666992 -45.333 19 -68 59 -68c58.667 0 88 27.667 88 83c0 40.667 -42.333 72.667 -127 96c-130 36 -208.667 61.333 -236 76c-84.667 45.333 -127 115.333 -127 210c0 62.667 21.667 112 65 148c31.333 26 82 49 152 69c12 10.667 22 26.334 30 47.001h50
c4.66699 -43.333 46 -64.666 124 -63.999l2 24c52.667 50 201.334 75 446.001 75s393.667 -25 447 -75l2 -24h20c64.667 0 99.334 21.333 104.001 64h50c7.33301 -20.667 17.333 -36.334 30 -47.001c69.333 -20 119.666 -43 150.999 -69c44 -36 66 -85.333 66 -148z
M1745 1235c0 74 -40.667 111 -122 111c-88 0 -128.333 -43.333 -121 -130l-36 -19l-46 84c-22.667 -94.667 -39 -202.334 -49 -323.001c25.333 20.667 74 44.334 146 71.001c76 27.333 127.667 51 155 71c48.667 34.667 73 79.667 73 135zM1372 1423
c-5.33301 9.33301 -61.001 19.333 -167.001 30c-90.667 8.66699 -153.667 13 -189 13c-77.333 0 -169.333 -8 -276 -24c-20.667 -2.66699 -46.667 -8 -78 -16c-1.33301 -0.666992 -2.33301 -1.66699 -3 -3c0 -7.33301 31.333 -15 94 -23c92 -11.333 179.333 -17 262 -17
c48 0 111.333 3 190 9c106.667 8.66699 162.334 19 167.001 31zM1403 1388c-4 -0.666992 -40.666 -9.00195 -109.999 -25.002c-14 -3.33301 -21 -11.666 -21 -24.999c0 -50.667 -0.333008 -127 -1 -229s-1 -178.333 -1 -229c0 -195.333 -74.333 -316 -223 -362
c115.333 4 192.666 62.333 231.999 175c22.667 66 34 171.667 34 317c0 84.667 4.33301 150.334 13 197.001c13.333 64.667 39 125 77 181zM991 555.998c-92.667 48 -139 184.001 -139 408.001c0 46 2.16699 109.167 6.5 189.5s6.5 143.5 6.5 189.5l-55 8
c12 -46.667 18 -91.334 18 -134.001c0 -19.333 -0.833008 -48 -2.5 -86s-2.5 -66.667 -2.5 -86c0 -310.667 56 -473.667 168 -489zM984 517.999c-62 18.667 -109.667 68.668 -143 150.001c-26.667 65.333 -40 136 -40 212l-1 458c0 11.333 -7.33301 18.666 -22 21.999
c-47.333 10 -97 19.333 -149 28c38 -56 63 -116.333 75 -181c9.33301 -46 14 -111.667 14 -197c0 -145.333 11.333 -251 34 -317c38.667 -112.667 116 -171 232 -175zM660 958c-10.667 120.667 -27 228.334 -49 323.001l-46 -84l-36 19l1 21
c3.33301 72.667 -37 109 -121 109c-82 0 -123 -37 -123 -111c0 -55.333 24 -100.333 72 -135c28 -20 79.667 -43.667 155 -71c72 -26.667 121 -50.334 147 -71.001zM319 1006c-79.333 38 -119 102.332 -119 192.999c0 56 23.667 106 71 150
c-32.667 -7.33301 -58.667 -26.666 -78 -57.999c-16.667 -28.667 -25 -60.667 -25 -96c0 -41.333 15.333 -80 46 -116c28 -32.667 63 -57 105 -73zM1263 50.999h-22c-25.333 0 -63.333 -0.833008 -114 -2.5s-88.667 -2.5 -114 -2.5c-27.333 0 -68.166 0.833008 -122.499 2.5
s-94.833 2.5 -121.5 2.5c70.667 -17.333 152 -26 244 -26c95.333 0 178.666 8.66699 249.999 26zM1764 1305c8.66699 -28 13 -55.667 13 -83c0 -58 -39 -114.333 -117 -169c35.333 0 69.833 16.167 103.5 48.5s50.5 66.5 50.5 102.5c0 51.333 -16.667 85 -50 101z" />
    <glyph glyph-name="award" unicode="&#x26;" 
d="M1426 255c0 -114.667 -40.666 -212.664 -121.999 -293.997s-179.333 -122 -294 -122c-115.333 0 -213.5 40.667 -294.5 122s-121.5 179.333 -121.5 294c0 89.333 25.667 169.666 77 240.999s117.666 121.666 198.999 150.999
c-29.333 33.333 -43.666 74.666 -42.999 123.999c-66.667 16 -118.334 53.833 -155.001 113.5s-55 134.5 -55 224.5v382h786v-382c0 -195.333 -72.333 -307.333 -217 -336v-3c-3.33301 -49.333 -18.333 -89.333 -45 -120c84 -28 152 -77.667 204 -149
c54 -73.333 81 -155.333 81 -246zM1111 810.003v656h-204v-656h204zM1146 767.003c-20 -2 -41.334 -3 -64.001 -3h-185c-10 0 -19.667 0.333008 -29 1c2 -47.333 17 -82.333 45 -105c32 7.33301 64.333 11 97 11c29.333 0 58 -3 86 -9
c28.667 23.333 45.334 58.333 50.001 105zM1375 250.003l-88 56l60 86l-103 17l23 103l-104 -24l-16 103l-86 -61l-56 90l-55 -92l-86 63l-15 -106l-105 27l28 -104l-108 -16l66 -87l-94 -55l94 -54l-66 -87l107 -15l-27 -105l104 27l16 -108l85 65l56 -92l55 90l87 -63
l17 105l103 -24l-24 102l104 18l-61 85z" />
    <glyph glyph-name="links" unicode="'" 
d="M1454 1273c-1.33301 -82.667 -32.334 -146.001 -93.001 -190.001l-283 -208c-4.66699 8 -13 20 -25 36c-6 6.66699 -14.667 15 -26 25l293 219c30.667 22.667 46 60 46 112c0 66 -37.333 99 -112 99c-31.333 0 -59.666 -8.33301 -84.999 -25l-420 -281
c-45.333 -30.667 -68 -70 -68 -118c0 -16 2.66699 -32 8 -48c18 -52.667 52.333 -79 103 -79c42.667 0 90 16.333 142 49c4.66699 -3.33301 12 -10.333 22 -21c6 -7.33301 15 -20 27 -38c-72 -42.667 -139.333 -64 -202 -64c-82 0 -139.333 41 -172 123
c-10.667 26.667 -16 53.667 -16 81c0 90.667 42 162 126 214l425 265c28 17.333 66 26 114 26c54 0 98.333 -12.667 133 -38c42.667 -31.333 63.667 -77.666 63 -138.999zM1328 450.999c16.667 -27.333 25 -58.666 25 -93.999c0 -82 -40.333 -138 -121 -168
c-30.667 -11.333 -62 -17 -94 -17c-64.667 0 -115.667 18.333 -153 55l69 47c26 -22.667 57.667 -34 95 -34c20 0 38.333 4 55 12c47.333 23.333 71 55.666 71 96.999c0 26 -10 53.667 -30 83l-284 421c-27.333 41.333 -71.333 62 -132 62
c-11.333 0 -22.333 -1.33301 -33 -4c-39.333 -8.66699 -61.666 -28.334 -66.999 -59.001c-6.66699 4.66699 -15.334 18.334 -26.001 41.001c-2.66699 12 -5.33398 27.667 -8.00098 47c6.66699 11.333 30.334 29.333 71.001 54c20 8 41.667 12 65 12c46 0 92.333 -14 139 -42
c42.667 -24 73 -50.667 91 -80zM996.999 352.999l-67.001 -43.001l-222 340c-28 43.333 -48.667 88 -62 134c10 -8.66699 27.667 -21 53 -37c11.333 -5.33301 28.333 -9.66602 51 -12.999c2.66699 -10 9.33398 -26 20.001 -48zM1454 289.998
c-1.33301 -82 -32.333 -145.332 -93 -189.999l-383 -279c-52.667 -38.667 -114.667 -58 -186 -58c-85.333 0 -146.333 39.667 -183 119c-12.667 27.333 -19 54.666 -19 81.999c0 81.333 43.667 150.333 131 207l423 270c17.333 11.333 41 19.333 71 24l31 -48
c7.33301 -12 12.333 -23.333 15 -34c-34 1.33301 -64.667 -7 -92 -25l-420 -281c-48 -32 -72 -70.333 -72 -115c0 -16.667 4 -33.334 12 -50.001c22.667 -48.667 58 -73 106 -73c46 0 93.333 17.667 142 53l383 280c34.667 25.333 51.334 64.333 50.001 117
c0 2.66699 -4 16.334 -12 41.001c2 20.667 2.33301 37.334 1 50.001c-1.33301 19.333 -10 45 -26 77c81.333 -24.667 121.666 -80.334 120.999 -167.001z" />
    <glyph glyph-name="talkleft" unicode="(" 
d="M1995 86c-50 -58.667 -110 -87.999 -180 -87.999c-110.667 0 -206.667 23.667 -288 71c-83.333 48 -128.333 108.333 -135 181c-111.333 -25.333 -228.333 -38 -351 -38c-252 0 -467.167 47.833 -645.5 143.5s-267.5 211.167 -267.5 346.5s89.167 250.666 267.5 345.999
s393.5 143 645.5 143c252.667 0 468.167 -47.667 646.5 -143s267.5 -210.666 267.5 -345.999c0 -129.333 -82.667 -241 -248 -335c-1.33301 -10.667 -2 -21.334 -2 -32.001c0 -69.333 27 -126.333 81 -171s123.667 -70.667 209 -78z" />
    <glyph glyph-name="talkright" unicode=")" 
d="M1920 702c0 -135.333 -89.167 -250.833 -267.5 -346.5s-393.833 -143.5 -646.5 -143.5c-122 0 -238.667 12.667 -350 38c-6.66699 -72.667 -51.167 -132.834 -133.5 -180.501s-178.833 -71.5 -289.5 -71.5c-70 0 -130 29.333 -180 88c85.333 7.33301 155 33.333 209 78
s81 101.667 81 171c0 10.667 -0.666992 21.334 -2 32.001c-165.333 94 -248 205.667 -248 335c0 135.333 89.167 250.666 267.5 345.999s393.5 143 645.5 143c252.667 0 468.167 -47.667 646.5 -143s267.5 -210.666 267.5 -345.999z" />
    <glyph glyph-name="new" unicode="*" 
d="M2032 725l-241 -147l145 -226l-208 -14l84 -263l-298 127l-133 -164l-174 133l-184 -153l-183 153l-173 -133l-133 164l-298 -127l84 263l-208 14l145 226l-241 147l241 142l-149 217l212 20l-84 264l298 -127l133 163l173 -132l185 152l182 -152l174 132l133 -163
l298 127l-84 -264l212 -20l-149 -217z" />
    <glyph glyph-name="updated" unicode="+" 
d="M2032 727l-241 -147l145 -226l-208 -14l84 -264l-298 127l-133 -163l-174 132l-184 -152l-183 152l-173 -132l-133 163l-298 -127l84 264l-208 14l145 226l-241 147l241 142l-149 217l212 20l-84 263l298 -127l133 164l173 -133l185 153l182 -153l174 133l59 -72l355 263
l-195 -326l212 98l-84 -263l212 -20l-149 -217zM1652 1441l-545 -425l-83 223l-558 -927l553 470l96 -259z" />
    <glyph glyph-name="hot" unicode="," 
d="M1876 875c-2 -40.667 -26.666 -65.9971 -73.999 -75.9971c-6 41.333 -29 62 -69 62c-26.667 0 -70.334 -15.333 -131.001 -46c-65.333 -32 -98 -59.333 -98 -82c0 -10.667 1.83301 -26.334 5.5 -47.001s5.5 -36.334 5.5 -47.001c0 -38.667 -14.333 -68 -43 -88
c-8.66699 14 -40 75.667 -94 185c-37.333 75.333 -75 132.666 -113 171.999c11.333 4.66699 22.666 7 33.999 7c18.667 0 42.5 -8.5 71.5 -25.5s50.167 -25.5 63.5 -25.5c36.667 0 87.834 14 153.501 42s113.167 42 142.5 42c71.333 0 120 -24.333 146 -73zM1484 447.003
c0 -58 -32 -104.999 -96 -140.999c-55.333 -30.667 -128.333 -58.667 -219 -84l-228 -63l-344 -112c-161.333 -48.667 -274 -73 -338 -73c-30.667 0 -51.5 6 -62.5 18s-16.5 33.667 -16.5 65c0 5.33301 15.667 18 47 38c42 26.667 90.667 66 146 118
c86 81.333 132 124.666 138 129.999c75.333 64.667 141 132 197 202l189 254c90.667 107.333 172.667 161 246 161c45.333 0 93.333 -34 144 -102c36 -48 67 -103 93 -165l64 -120c26.667 -50.667 40 -92.667 40 -126zM1114 901.004c-1.33301 -18 -14 -47.333 -38 -88
c-16.667 -29.333 -85.334 -100.333 -206.001 -213c-145.333 -132 -224.666 -205.333 -237.999 -220l15 -18l255 230c128.667 110 220 165 274 165c7.33301 0 14.333 -1 21 -3c-33.333 24.667 -61 73.667 -83 147zM1643 904.004c-105.333 -51.333 -172 -77 -200 -77
c-12.667 0 -43.667 9.66699 -93 29l52 -76zM1862 867.004c-8.66699 12 -17.667 18 -27 18c-18 0 -27 -14 -27 -42c0 -7.33301 1 -13.666 3 -18.999c23.333 3.33301 40.333 17.666 51 42.999z" />
    <glyph glyph-name="ribbon" unicode="-" 
d="M1470 1l-136 -255.002l-372 611l-330 -611l-140 281l319 574c-50 76 -92.333 167.667 -127 275c-27.333 84 -41 142.333 -41 175c0 94.667 37.667 186 113 274c82 96.667 178 145 288 145c61.333 0 117.333 -17.333 168 -52c72 -49.333 108 -123.666 108 -222.999
c0 -149.333 -70.333 -345.666 -211 -588.999zM1109 1209c0 60.667 -31.666 101.001 -94.999 121.001c-36.667 -24.667 -68.334 -49 -95.001 -73c-64 -58 -96.667 -110.333 -98 -157c-1.33301 -40.667 44.667 -113.334 138 -218.001c100 170 150 279 150 327z" />
    <glyph glyph-name="checkerboard" unicode="." 
d="M2048 614h-1024v1024h1024v-1024zM1024 -410h-1024v1024h1024v-1024z" />
    <glyph glyph-name="slash" unicode="/" 
d="M2048 1638l-1024 -2048h-1024l1024 2048h1024z" />
    <glyph glyph-name="UIminimize" unicode="0" 
d="M1536 -192h-1024v256h1024v-256z" />
    <glyph glyph-name="UImaximize" unicode="1" 
d="M1792 -192h-1536v1408h1536v-1408zM1664 -64v1024h-1280v-1024h1280z" />
    <glyph glyph-name="UItile" unicode="2" 
d="M1792 320h-384v-512h-1152v896h384v512h1152v-896zM1664 448v512h-896v-256h640v-256h256zM1280 -64v512h-896v-512h896z" />
    <glyph glyph-name="UIback" unicode="3" 
d="M1152 0l-640 640l640 640v-1280z" />
    <glyph glyph-name="UIforward" unicode="4" 
d="M1408 640l-640 -640v1280z" />
    <glyph glyph-name="UIup" unicode="5" 
d="M1600 320h-1280l640 640z" />
    <glyph glyph-name="UIdown" unicode="6" 
d="M1600 832l-640 -640l-640 640h1280z" />
    <glyph glyph-name="UIreverse" unicode="7" 
d="M1602 -64l-640 640l640 640v-1280zM912 -64l-640 640l640 640v-1280z" />
    <glyph glyph-name="UIfastforward" unicode="8" 
d="M1772 576l-640 -640v1280zM1082 576l-640 -640v1280z" />
    <glyph glyph-name="UIbegin" unicode="9" 
d="M1772 -64l-640 640l640 640v-1280zM1082 -64l-640 640l640 640v-1280zM416 -64h-128v1280h128v-1280z" />
    <glyph glyph-name="UIend" unicode=":" 
d="M1772 -64h-128v1280h128v-1280zM1618 576l-640 -640v1280zM928 576l-640 -640v1280z" />
    <glyph glyph-name="UIpause" unicode=";" 
d="M1383 -64h-256v1280h256v-1280zM871 -64h-256v1280h256v-1280z" />
    <glyph glyph-name="UIstop" unicode="&#x3c;" 
d="M1600 38h-1152v1152h1152v-1152z" />
    <glyph glyph-name="UIrecord" unicode="=" 
d="M1600 614c0 -158.667 -56.333 -294.334 -169 -407.001s-248.334 -169 -407.001 -169s-294.334 56.333 -407.001 169s-169 248.334 -169 407.001s56.333 294.334 169 407.001s248.334 169 407.001 169s294.334 -56.333 407.001 -169s169 -248.334 169 -407.001z" />
    <glyph glyph-name="fontsize" unicode="&#x3e;" 
d="M1837 0h-202l-106 279h-446l-106 -279h-201l425 1074h211zM860 285l-77 -195l-40 105h-312l-74 -195h-156l298 752h176zM1469 433l-163 448l-161 -448h324zM695 318l-108 299l-107 -299h215z" />
    <glyph glyph-name="vote" unicode="?" 
d="M1905 969c-48.667 -20 -95.6689 -40.333 -141.002 -61c-108.667 -49.333 -199.667 -96.333 -273 -141c-68.667 -42.667 -144 -110.667 -226 -204l-36 6c24.667 29.333 50 56.666 76 81.999c60.667 60.667 117.334 106.667 170.001 138c102 61.333 230.333 124 385 188
c-47.333 24.667 -91.333 49 -132 73c-98.667 58 -173.667 109.667 -225 155c-63.333 56.667 -140 145.667 -230 267l-127 -69c-96 -56 -174.333 -108 -235 -156c-84 -66 -165.667 -148.333 -245 -247c30 -16 58.667 -33 86 -51c66.667 -42 122.667 -83.333 168 -124
c52 -47.333 110.333 -124 175 -230l-56 8c-14.667 27.333 -30 53 -46 77c-37.333 58 -74.333 103.333 -111 136c-54 48 -141 107 -261 177c24.667 30.667 50.334 60.667 77.001 90c63.333 69.333 125.333 128 186 176c97.333 76.667 227.333 157 390 241
c28 -38 55.333 -73.333 82 -106c64 -79.333 119 -139.666 165 -180.999c82 -72.667 210 -154 384 -244zM1728 978c-188 30.667 -342.999 46.332 -464.999 46.999c2 -130.667 -22 -251.667 -72 -363l-93 127c15.333 23.333 28.666 47 39.999 71
c27.333 57.333 43 111.333 47 162c-88.667 -6 -199.667 -21.333 -333 -46l-84 51c82 14.667 221.333 32 418 52c4 123.333 27.667 223 71 299l46 -57c-28.667 -51.333 -42.667 -131.666 -42 -240.999c96 -1.33301 214 -10.333 354 -27zM1810 50.998l-793.001 -325l-846 325
v583l714 143l28 -4c20.667 -24 50.334 -64.667 89.001 -122l-341 60l-101 -23l718 -137l132 28l-99 18c18.667 29.333 52 62 100 98l399 -61v-583z" />
    <glyph glyph-name="tools" unicode="@" 
d="M1879 1108c6.66699 -23.333 10 -46.665 10 -69.998c0 -68.667 -24 -127 -72 -175s-106.333 -72 -175 -72c-25.333 0 -50.333 3.66699 -75 11l-241 -241l547 -523l-218 -218l-524 547l-229 -230c7.33301 -24.667 11 -49.334 11 -74.001c0 -69.333 -23.833 -128 -71.5 -176
s-106.167 -72 -175.5 -72c-23.333 0 -46.666 3.33301 -69.999 10l190 190l-187 187l-190 -190c-6.66699 23.333 -10 46.666 -10 69.999c0 68.667 24 127 72 175s106.667 72 176 72c23.333 0 46.666 -3 69.999 -9l235 234l-340 355l172 172l354 -340l246 246
c-6 22.667 -9 45.667 -9 69c0 70 24 129 72 177s106.333 72 175 72c24 0 47.667 -3.33301 71 -10l-190 -190l186 -187zM606 1258l-171 -171l-33 33l171 171zM1168 1230c-42 16.667 -85.334 25 -130.001 25c-67.333 0 -122.666 -21.333 -165.999 -64l-374 -374l39 -39
l-142 -143l-239 239l142 142l44 -43l372 372c51.333 50.667 106.333 76 165 76c98.667 0 195 -63.667 289 -191z" />
    <glyph glyph-name="underconstruction" unicode="A" 
d="M1987 598h-108v-183h-75v183h-329v-183h-74v183h-109v68h109v176h-109v68h109v162h74v-162h329v162h75v-162h108v-68h-108v-176h108v-68zM1487 1167h-468.999v-204c-30 0 -58.167 -15.333 -84.5 -46s-39.5 -64.667 -39.5 -102c0 -38.667 9 -71 27 -97s41.667 -39 71 -39
s53.166 13 71.499 39s27.5 58.333 27.5 97h45c0 -49.333 -14 -91.5 -42 -126.5s-62 -52.5 -102 -52.5c-39.333 0 -73 17.5 -101 52.5s-42 77.167 -42 126.5c0 40 12.833 77.5 38.5 112.5s55.5 58.5 89.5 70.5v169h-817v304h1327v-304zM2048 -410h-2048v952h263v-702h346v702
h775v-141h108v141h294v-141h109v141h153v-952zM589.001 -142h-303v1292h303v-1292zM1444 1208v222l-252 -111zM1346 1430h-411l205 -87zM1804 666v176h-329v-176h329zM1346 1208l-206 87l-205 -87h411zM1089 1319l-252 111v-222zM801.001 1208v222l-252 -111zM703.001 1430
h-411l206 -87zM703.001 1208l-205 87l-206 -87h411zM446.001 1319l-252 111v-222zM549.001 1116h-223l111 -252zM549.001 606v412l-87 -206zM413.001 812l-87 206v-412zM549.001 542l-112 219l-111 -219h223zM549.001 508h-223l111 -252zM549.001 -2v412l-87 -206z
M413.001 204l-87 206v-412zM549.001 -99l-112 252l-111 -252h223z" />
    <glyph glyph-name="town" unicode="B" 
d="M2048 -410l-200 0.00390625c0 100 -101 173.667 -303 221c-98.667 23.333 -286 47.333 -562 72c-202 17.333 -303 40.666 -303 69.999c0 57.333 140.333 98.666 421 123.999h-222c-313.333 -24.667 -470 -69.334 -470 -134.001c0 -56.667 67.333 -98.334 202 -125.001
l374 -66c134.667 -34.667 202 -88.667 202 -162h-1187v952h144v143l-36 -30l-74 106l244 189v47l-32 -26l-67 95l458 354l138 -107v107h126v-205l122 -95l138 107l59 -46l287 223l154 -119v119h139v-228l213 -165l-74 -106l-36 29v-392h145v-952zM1975 1009l-197 155v220
h-97v-146l-174 137l-268 -208l112 -87v147h172v-281l130 -99h140v-218h-85l-13 -18l-44 36v-164h225v512l57 -47zM1739 739.004l-244 191v272h-119v-180l-215 169l-580 -452l52 -75l70 58v-632h176v449h220v-449h518v632l70 -58zM1005 1107l-125 96v199h-86v-132l-157 123
l-423 -329l38 -55l50 43v-83l240 185l154 -119v119h139v-179zM813 958.004v176h-97v-146l-174 137l-470 -366l43 -61l56 47v-513h143v365h178v-365h177v147h-74v218h74v50l-44 -36l-92 131zM1515 270.004h-288v269h288v-269z" />
    <glyph glyph-name="city" unicode="C" 
d="M2048 -410h-2048v952h139v300h289v-150h45v513h178v-427h41v710h410v-632h117v236h126v206h223v-630h82v188h254v-314h144v-952zM1487 1154v120h-48v-120h48zM1419 1154v120h-48v-120h48zM1798 711v120h-48v-120h48zM1730 711v120h-48v-120h48zM1419 1008v120h-48v-120
h48zM1730 565v120h-48v-120h48zM971 1320v120h-48v-120h48zM882 1320v120h-48v-120h48zM791 1320v120h-48v-120h48zM882 1156v120h-48v-120h48zM1620 350v120h-48v-120h48zM791 1156v120h-48v-120h48zM1551 350v120h-48v-120h48zM791 995v120h-48v-120h48zM1551 204v120h-48
v-120h48zM631 1060v119h-48v-119h48zM540 1060v119h-48v-119h48zM930 621v120h-48v-120h48zM839 621v120h-48v-120h48zM540 895v120h-48v-120h48zM1124 181v120h-48v-120h48zM839 457v120h-48v-120h48zM1055 181v120h-48v-120h48zM1055 36v120h-48v-120h48zM308 686v120h-48
v-120h48zM475 479v120h-48v-120h48zM225 686v120h-48v-120h48zM407 479v120h-48v-120h48zM407 333v120h-48v-120h48z" />
    <glyph glyph-name="derelictsite" unicode="D" 
d="M2048 -410l-200 -0.000976562c0 100 -114.333 180.333 -343 241c-96.667 26 -308.667 63.667 -636 113c-228.667 34.667 -343 69.667 -343 105c0 57.333 140.333 104 421 140h-271c-280.667 -24.667 -421 -74.667 -421 -150c0 -67.333 80.667 -122.666 242 -165.999
l448 -104c161.333 -46 242 -105.667 242 -179h-1187v953h417v243l-55 -45l-113 161l775 599l235 -181v181h212v-347l325 -252l-113 -161l-55 45v-243h420v-953zM1738 898.999l-301 236v335h-147v-222l-266 209l-717 -558l65 -93l86 72v-679h218v60l271 219v-279h640v679
l86 -72zM1461 466.999l-262 214l84 72h178v-286zM1559 370.999l-130 -166l-410 333l165 135zM1517 961.999l-913 -740l-129 165l905 730zM994 824.999l-167 -132l-310 252l136 156zM1142 420.999h-37v31zM816 681.999l-140 -112v183h54zM1429 983.999
c0 37.333 -18.333 56 -55 56s-55 -18.667 -55 -56c0 -36.667 18.333 -55 55 -55s55 18.333 55 55zM1481 347.999c0 36.667 -18.333 55 -55 55s-55 -18.333 -55 -55s18.333 -55 55 -55s55 18.333 55 55zM715 967.999c0 36.667 -18.333 55 -55 55
c-37.333 0 -56 -18.333 -56 -55s18.667 -55 56 -55c36.667 0 55 18.333 55 55zM663 363.999c0 37.333 -18.333 56 -55 56c-37.333 0 -56 -18.667 -56 -56c0 -36.667 18.667 -55 56 -55c36.667 0 55 18.333 55 55z" />
    <glyph glyph-name="desert" unicode="E" 
d="M829 1150c0 -83.333 -30.5 -154.5 -91.5 -213.5s-134.5 -88.5 -220.5 -88.5s-159.5 29.5 -220.5 88.5s-91.5 130.167 -91.5 213.5s30.5 154.333 91.5 213s134.5 88 220.5 88s159.5 -29.333 220.5 -88s91.5 -129.667 91.5 -213zM2048 -410h-2048v952
c22 0.666992 44 2.66699 66 6c52.667 8 102 21.667 148 41c50 21.333 100.667 58.333 152 111l225 -51c44 -19.333 91.667 -55 143 -107c34.667 0.666992 67.667 2.66699 99 6c74.667 8 135 21.667 181 41c50.667 21.333 101.334 58.333 152.001 111l225 -51
c44.667 -19.333 92.334 -55 143.001 -107v255h-197c-22 0 -45 11.667 -69 35s-36 48.333 -36 75v319c0 54.667 21 82 63 82c43.333 0 65 -27.333 65 -82v-255c0 -42.667 27 -64 81 -64h93v503c0 55.333 21.333 83 64 83c42 0 63 -27.667 63 -83v-627h43
c41.333 0 62 21.333 62 64v152c0 55.333 21.333 83 64 83c42 0 63 -27.667 63 -83v-216c0 -26.667 -12 -51.667 -36 -75s-47 -35 -69 -35h-127v-131h387v-952zM1223 513c1.33301 7.33301 1.99902 14.667 1.99902 22c0 40.667 -15.333 79.667 -46 117
c8 -26 12 -52.333 12 -79c0 -24 -4 -45 -12 -63c-23.333 -51.333 -76 -87.333 -158 -108c36 3.33301 67.667 9.33301 95 18c64.667 20 100.334 51 107.001 93zM422.997 513.001c1.33301 7.33301 1.99902 14.667 1.99902 22c0 40.667 -15.333 79.667 -46 117
c8 -26 12 -52.333 12 -79c0 -24 -4 -45 -12 -63c-24 -51.333 -77 -87.333 -159 -108c36.667 3.33301 68.334 9.33301 95.001 18c64.667 20 100.667 51 108 93z" />
    <glyph glyph-name="factory" unicode="F" 
d="M2048 -410h-2048v953h176v689l391 -244v244l389 -244v244l379 -244l171 453h353v-898h189v-953zM1818 199v1208h-272l-187 -501l-358 240v-240l-389 240v-240l-394 240v-947h1600zM1640 421h-356v332h356v-332zM1194 421h-356v332h356v-332zM749 421h-356v332h356v-332z
" />
    <glyph glyph-name="publicbuilding" unicode="G" 
d="M1763 1053h-1478l739 245zM2048 -410h-2048v952h400l7 348h-29v136h1292v-136h-29l7 -348h400v-952zM1605 1080l-581 191l-581 -191h1162zM1629 132l-15 758h-73l-15 -758h103zM1643 917v82h-1238v-82h1238zM1260 132l-15 758h-73l-15 -758h103zM891 132l-15 758h-73
l-15 -758h103zM1898 -75v60h-66v60h-66v60h-1484v-60h-66v-60h-66v-60h1748zM522 132l-15 758h-73l-15 -758h103z" />
    <glyph glyph-name="home" unicode="H" 
d="M2048 -410l-200 -0.000976562c0 100 -114.333 180.333 -343 241c-96.667 26 -308.667 63.667 -636 113c-228.667 34.667 -343 69.667 -343 105c0 57.333 140.333 104 421 140h-271c-280.667 -24.667 -421 -74.667 -421 -150c0 -67.333 80.667 -122.666 242 -165.999
l448 -104c161.333 -46 242 -105.667 242 -179h-1187v953h417v243l-55 -45l-113 161l775 599l235 -181v181h212v-347l325 -252l-113 -161l-55 45v-243h420v-953zM1738 898.999l-301 236v335h-147v-222l-266 209l-717 -558l65 -93l86 72v-679h218v554h271v-554h640v679l86 -72
zM1461 420.999h-356v332h356v-332z" />
    <glyph glyph-name="beach" unicode="I" 
d="M1542 893l-133 -56l-352 66l-412 206l-108 237l652 21l39 -17zM952 948l-307 -527l-39 18l304 530zM2048 -410c-423.333 28 -635.002 100.333 -635.002 217c0 35.333 42.333 67.666 127 96.999l237 77c85.333 34.667 128 75.667 128 123c0 36.667 -42.667 66 -128 88
c-72 19.333 -153.667 29.333 -245 30c-291.333 3.33301 -437 -25.667 -437 -87c0 -16.667 25 -34.334 75 -53.001s75 -36 75 -52c0 -24 -64.333 -36 -193 -36c-33.333 0 -90.666 1.33301 -171.999 4c-74.667 2 -128.667 2.66699 -162 2
c-382.667 -5.33301 -574 -48.666 -574 -129.999c0 -27.333 34.667 -55.666 104 -84.999s104 -59.333 104 -90c0 -36 -50.667 -64 -152 -84c-63.333 -12 -130 -19 -200 -21v952c230.667 36 412 54 544 54c54.667 0 99.334 -1.33301 134.001 -4l-89 -157l59 -28l102 175
c40.667 -6 84.667 -9 132 -9c58.667 0 155.667 7.66699 291 23c132 14.667 237.667 21.667 317 21c132.667 -1.33301 318.667 -26.333 558 -75v-952zM1769 100c0 -37.333 -49.667 -72.6709 -149 -106.004l-276 -81c-100 -32.667 -150.333 -67 -151 -103
c-2.66699 -93.333 181.333 -166.666 552 -219.999h-360c-60.667 17.333 -112.667 35 -156 53c-104 42.667 -156.667 84.334 -158 125.001c0 2.66699 0.333008 7.16699 1 13.5s1 11.5 1 15.5c0 51.333 -67 78 -201 80c-68.667 0.666992 -132 -3 -190 -11
c-66.667 -9.33301 -100 -22 -100 -38c0 -23.333 44.833 -46.166 134.5 -68.499s134.5 -44.833 134.5 -67.5c0 -62.667 -77 -96.667 -231 -102h-300c204.667 21.333 307 55.333 307 102c0 24.667 -50 50.334 -150 77.001s-150 51 -150 73c0 30 46 50.667 138 62
c62.667 7.33301 178 12 346 14c114.667 2 232 9.66699 352 23c159.333 18 239 40.667 239 68c0 25.333 -23.833 47 -71.5 65s-71.5 30.333 -71.5 37c0 40 94.333 58.333 283 55c151.333 -2 227 -24 227 -66zM985.998 179.995l-232 33l57 80l-180 -57l-225 54l156 -83
l-163 -63l249 19l106 -116l-3 116z" />
    <glyph glyph-name="island" unicode="J" 
d="M2048 -410l-2047.99 -0.000976562v952h422c165.333 46 365.666 69 600.999 69c43.333 0 85.666 -0.666992 126.999 -2c-19.333 209.333 -55 394.666 -107 555.999c-46 -9.33301 -88.667 -32 -128 -68c-64 -60 -105.667 -149.667 -125 -269
c-20.667 72 -31 138.667 -31 200c0 77.333 18.333 131.333 55 162c27.333 22.667 72 42 134 58c-24.667 2 -52.334 3.33301 -83.001 4c-49.333 0.666992 -120 -8.66602 -212 -27.999c78.667 103.333 149.334 155 212.001 155c34.667 0 80.667 -14.667 138 -44
c-6 22.667 -15 49 -27 79c-6 16 -20 40 -42 72c50.667 13.333 90 19.333 118 18s66.333 -8.66602 115 -21.999c-13.333 -10.667 -31 -31 -53 -61c-4 -10 -6.33301 -25 -7 -45c56.667 55.333 113 80.666 169 75.999c69.333 -6 133.666 -75.667 192.999 -209
c-80.667 72 -145 106 -193 102c-32 -2.66699 -70 -25.667 -114 -69c196 4.66699 295 -66.666 297 -213.999c1.33301 -58.667 -27.334 -136 -86.001 -232c-2.66699 51.333 -8.33398 96.333 -17.001 135c-19.333 88.667 -54 149.667 -104 183
c-24.667 16.667 -67 27.334 -127 32.001c15.333 -40 30 -82.667 44 -128l-62 -11l2 -16l65 13c12 -38 23 -76 33 -114l-64 -9l-1 -17l69 6c10 -38 19.333 -76 28 -114l-66 -9l-1 -17l69 5l24 -122l-76 -4l-1 -17l80 1l4 -25c31.333 -2.66699 62 -5.66699 92 -9l49 43
l-22 -47c95.333 -12.667 173.666 -28.334 234.999 -47.001h422v-952zM1352.01 580.999c-26 3.33301 -52.333 6 -79 8l3 -23c2 -13.333 3.66699 -29.333 5 -48zM1855.01 358.999c0 47.333 -43.667 90.667 -131 130c-84.667 38.667 -197.667 68 -339 88l-29 -61l78 26l-68 -67
c-30 -20 -77 -28.667 -141 -26c-46 1.33301 -84.667 12.333 -116 33l-38 99l87 -65c-2.66699 34 -5 61.333 -7 82c-42 2 -84.667 3 -128 3c-230 0 -426.333 -23.667 -589 -71s-244 -104.333 -244 -171s81.333 -123.5 244 -170.5s359 -70.5 589 -70.5
c229.333 0 425.333 23.5 588 70.5s244 103.833 244 170.5z" />
    <glyph glyph-name="motorway" unicode="K" 
d="M1901 618h-110v-224h-58v224h-441v-224h-59v224h-123v414h123v52h59v-52h441v52h58v-52h110v-414zM2048 -410h-2048v952h1214v-162h97v162h401v-162h97v162h239v-952zM1881 639v369h-747v-369h747zM1950 -365l-919 880h-29l-922 -880h1870zM1860 657h-703v187h703v-187z
M1028 407h-23l12 49zM1058 297h-77l18 75h38zM1116 93h-195l44 150h105zM1222 -320h-407l81 300h245zM1729 677l-196 141h-42l-186 -141h424zM1557 697h-81l36 97z" />
    <glyph glyph-name="search" unicode="L" 
d="M1360 1028c0 -107.333 -27.668 -194.333 -83.001 -261c-59.333 -72 -141.666 -108 -246.999 -108c-110 0 -200 47.667 -270 143c-64 86.667 -96 186.667 -96 300c0 232 107 348 321 348c105.333 0 195.333 -44.667 270 -134c70 -84 105 -180 105 -288zM1086 488
l-34.001 12.999l-15 114h-16l11 -108h-12c-20 0 -44 -6.66699 -72 -20c-30.667 -14 -49 -28.667 -55 -44l-35 167c-84 4 -159 44 -225 120c-68 78.667 -102 169.334 -102 272.001c0 98.667 17.667 174.667 53 228c20 31.333 74.333 84.333 163 159
c-74 -79.333 -111 -174 -111 -284c0 -117.333 31.333 -221 94 -311c70.667 -100.667 162.334 -151 275.001 -151h60zM1178 -157.001c0 -22.667 -9.66797 -42.667 -29.001 -60s-41.333 -26 -66 -26c-26 0 -49.333 9.66699 -70 29c-18 16.667 -28 33.667 -30 51l-82 572
c-3.33301 21.333 10.334 40 41.001 56c28.667 15.333 60.667 23 96 23c24 0 42 -11 54 -33l75 -540zM1328 1031c0 98 -32.333 185 -97 261c-68 80.667 -150 121 -246 121c-193.333 0 -290 -105 -290 -315c0 -103.333 29.333 -194.333 88 -273
c64 -86.667 145.667 -130 245 -130c96 0 171 32.667 225 98c50 60.667 75 140 75 238zM1306 1020c0 -141.333 -63.667 -240.667 -191 -298c80 90.667 120 186.667 120 288c0 98.667 -31 180.5 -93 245.5s-142 99.167 -240 102.5c29.333 12.667 61.333 19 96 19
c86.667 0 160.667 -38.333 222 -115c57.333 -72 86 -152.667 86 -242zM1140 1052c0 -56 -27.333 -108.333 -82 -157c6.66699 52.667 10 90 10 112c0 38 -13 77.333 -39 118c-10 15.333 -36.333 49 -79 101c50 -2 93.667 -19 131 -51c39.333 -34 59 -75 59 -123z
M831.997 866.998c-27.333 9.33301 -49.667 37.667 -67 85c-14.667 38.667 -22 76 -22 112c0 44 11.333 79 34 105c24 -88 42.333 -188.667 55 -302z" />
    <glyph glyph-name="mountain" unicode="M" 
d="M2048 -410l-2048 -0.000976562v952c63.333 0 113.666 15.333 150.999 46c17.333 14 39 41.667 65 83c19.333 30 38.666 45 57.999 45s47 -5.33301 83 -16s73 -16 111 -16c41.333 0 99.333 49.333 174 148l195 275c74 99.333 129.667 149 167 149
c17.333 0 43.166 -11.667 77.499 -35s61.5 -35.666 81.5 -36.999c27.333 -2.66699 69.333 1.33301 126 12c60 10.667 93.333 16 100 16c46.667 0 115.667 -57.667 207 -173l242 -323c92.667 -116 162.667 -174 210 -174v-952zM1268 1178
c-59.333 -11.333 -106 -11.333 -140 0c-14.667 4.66699 -33.667 15.667 -57 33c-20.667 15.333 -34.667 23 -42 23c-23.333 0 -35 -10 -35 -30c0 -18.667 7.33301 -34.667 22 -48c12 -10.667 32.667 -16 62 -16c48 0 111.333 12.667 190 38zM1757 795.999l-136.999 180
c-50.667 71.333 -106.334 132.666 -167.001 183.999c-0.666992 -10.667 -4 -20 -10 -28c-14 -20 -38.667 -32 -74 -36c-10 -0.666992 -19.667 -1 -29 -1c-20 0 -43.667 3.83301 -71 11.5s-51 11.5 -71 11.5c-23.333 0 -51.333 -3.16699 -84 -9.5s-57.334 -9.5 -74.001 -9.5
c-13.333 0 -27 1 -41 3c-30 5.33301 -45 24.333 -45 57c0 18 4.66699 38 14 60c-14 -10 -28.667 -23 -44 -39c-36.667 -38 -74.667 -87.667 -114 -149c-43.333 -67.333 -107 -156.666 -191 -267.999c74.667 78 141.667 116.667 201 116
c37.333 -0.666992 66.666 -21 87.999 -61l41 -112c16 -40 36 -60.333 60 -61c42.667 -1.33301 68.334 19 77.001 61l22 118c19.333 42.667 63.333 64 132 64c26.667 0 67.834 -17.333 123.501 -52s95.5 -51.667 119.5 -51c14 0.666992 21 9 21 25c0 8 -2.66699 23.333 -8 46
s-8 38.667 -8 48c0 23.333 11.333 35 34 35c24.667 0 58.5 -37.5 101.5 -112.5s78.5 -112.5 106.5 -112.5c22.667 0 34 14 34 42c0 12 -2.33301 25.333 -7 40zM470.004 665.999c-40 0 -75 5.00098 -105 15.001c-36.667 12 -66.667 18 -90 18
c-3.33301 -32.667 13.667 -51.334 51 -56.001c32.667 -4 80.667 3.66699 144 23z" />
    <glyph glyph-name="sight" unicode="N" 
d="M1881 662c-51.333 -92.667 -114.333 -171.667 -189 -237c-179.333 -158.667 -402 -238 -668 -238s-489 79.333 -669 238c-74.667 65.333 -138 144.333 -190 237c52 92.667 115.333 172 190 238c180 158.667 403 238 669 238s488.667 -79.333 668 -238
c74.667 -66 137.667 -145.333 189 -238zM1718 662c-32.667 57.333 -72.3311 108.667 -118.998 154c-112 108 -250 175.667 -414 203c71.333 -30.667 128.666 -77.667 171.999 -141c44 -65.333 66 -137.333 66 -216c0 -78 -21.5 -149 -64.5 -213s-99.5 -111.667 -169.5 -143
c241.333 41.333 417.666 160 528.999 356zM1340 662.001c0 85.333 -31 158.334 -93 219.001s-136.667 91 -224 91c-46 0 -89.667 -9.33301 -131 -28l-33 75c-242 -41.333 -419 -160.333 -531 -357c32.667 -57.333 72 -108.333 118 -153c111.333 -107.333 248 -175 410 -203
c-70 31.333 -126.333 79 -169 143s-64 135 -64 213c0 47.333 8.33301 93.333 25 138l80 -25c-14.667 -36.667 -22 -74.334 -22 -113.001c0 -86 31 -159.167 93 -219.5s136.667 -90.5 224 -90.5s162 30.167 224 90.5s93 133.5 93 219.5zM1263 662.002
c0 -64.667 -23.499 -120.001 -70.499 -166.001s-103.5 -69 -169.5 -69c-66.667 0 -123.334 23 -170.001 69s-70 101.333 -70 166c0 28.667 5 56.334 15 83.001l245 -111l-115 243c30 13.333 61.667 20 95 20c66 0 122.5 -23 169.5 -69s70.5 -101.333 70.5 -166z" />
    <glyph glyph-name="hearing" unicode="O" 
d="M1321 891c0 -64 -26.0029 -150.665 -78.0029 -259.998l-59 24c47.333 96.667 71 176 71 238c0 86 -22.333 159 -67 219c-50.667 68 -119.667 102 -207 102c-62.667 0 -115.167 -23 -157.5 -69s-64.166 -102 -65.499 -168c210 -122.667 315.667 -245.334 317 -368.001
c0.666992 -52 -13.333 -103.333 -42 -154l-84 -136c-10.667 -24 -28.334 -59.333 -53.001 -106c-23.333 -37.333 -54.666 -56 -93.999 -56c-55.333 0 -83 34 -83 102c0 18 6.33301 41.667 19 71s19 52.666 19 69.999c0 15.333 -5.66699 36.5 -17 63.5
s-16.666 52.167 -15.999 75.5c2.66699 61.333 33.334 90.666 92.001 87.999c54.667 -2.66699 80.334 -38 77.001 -106c-2 -37.333 -25.333 -69.666 -70 -96.999c0.666992 -33.333 -6.33301 -65.333 -21 -96c-12 -25.333 -18.667 -46 -20 -62c-3.33301 -34 5 -51 25 -51
c23.333 0 40.666 13.333 51.999 40c6 20 17.667 49.333 35 88l80 124c26.667 46.667 39 93.667 37 141c-2.66699 93.333 -84 190.333 -244 291c20 -78 70 -149 150 -213l-37 -44c-125.333 82 -188 190.333 -188 325c0 90.667 27.167 164.667 81.5 222s123.5 86 207.5 86
c114.667 0 201.667 -38.333 261 -115c52.667 -67.333 79 -157 79 -269zM1473 915.002c1.33301 -120.667 -33.333 -235.337 -104 -344.004l-218 -291c-23.333 -34.667 -46 -82.667 -68 -144c-30 -80.667 -49.333 -130.667 -58 -150c-48.667 -102 -135 -154 -259 -156
c-128.667 -2 -193 87.667 -193 269c0 58 6.33301 116.333 19 175h61c-8.66699 -82 -13 -133.667 -13 -155c0 -153.333 44 -230 132 -230c79.333 0.666992 139.666 31.667 180.999 93c16 23.333 43.667 88.333 83 195c22.667 62 45.667 111 69 147l199 270
c70 104 104.333 208.333 103 313c-1.33301 146.667 -32 256.334 -92 329.001c-68 82 -177.667 123.667 -329 125c-146.667 0.666992 -251.667 -57.666 -315 -174.999c-44 -81.333 -66 -185.666 -66 -312.999c0 -46.667 3 -89.667 9 -129h-66
c-6.66699 42.667 -10 89.334 -10 140.001c0 138.667 25.667 252.667 77 342c74.667 130 197.334 195 368.001 195c176 0 303.333 -45 382 -135c70.667 -81.333 106.667 -205 108 -371z" />
    <glyph glyph-name="park" unicode="P" 
d="M2048 -410l-563 0.00195312c242.667 143.333 364 296 364 458c0 99.333 -122.667 170.666 -368 213.999c-104 18 -332 39 -684 63c-245.333 16.667 -368 42.667 -368 78c0 57.333 140 103.666 420 138.999h402v160h-457l401 293h-252l308 296h-159l253 204l252 -204h-159
l308 -296h-252l402 -293h-458v-160h610v-952zM1185 48.002c0 -109.333 -155.333 -218.334 -466 -327.001c-130 -45.333 -285.667 -89 -467 -131h-252v952h578c-280 -24 -420 -73.667 -420 -149c0 -67.333 88.667 -113.666 266 -138.999l495 -55
c177.333 -28 266 -78.333 266 -151z" />
    <glyph glyph-name="camping" unicode="Q" 
d="M2048 -410h-2048v952h387l240 500l227 -500h397v160h-457l401 293h-252l308 296h-159l253 204l252 -204h-159l308 -296h-252l402 -293h-458v-160h610v-952zM1071 0l-444 1001l-470 -1001h298v292c0 42.667 12.667 82 38 118c31.333 46 76 69 134 69
c57.333 0 102 -23 134 -69c24.667 -36 37 -75.333 37 -118v-292h273z" />
    <glyph glyph-name="railroad" unicode="R" 
d="M2048 -410h-2048v952c56.667 0 146.167 36.5 268.5 109.5s211.166 109.5 266.499 109.5c66.667 0 128.334 -21 185.001 -63l132 -117c52 -41.333 106.333 -62 163 -62c66 0 151.333 24.833 256 74.5s198 74.5 280 74.5c46.667 0 121.667 -21 225 -63s194 -63 272 -63
v-952zM1950 -365l-921 880h-29l-920 -880h1870zM1093 443h-30l-9 15h26zM1146 381h-42l-21 33h43l20 -21v-12zM1230 291h-69l-29 45h71l27 -27v-18zM1383 128h-115l-54 84h118l51 -47v-37zM1040 443h-53l7 15h39zM1068 381h-109l16 33h78zM1669 -206h-189l-130 206h192
l127 -124v-82zM974 458l-9 -15h-30l12 15h27zM1499 -344h-84l-394 836h8l470 -756v-80zM1109 291h-190l19 45h152zM945 414l-21 -33h-42v12l20 21h43zM1182 128h-336l38 84h260zM895 336l-29 -45h-69v18l28 27h70zM1334 -206h-640l96 206h448zM814 212l-54 -84h-115v37
l51 47h118zM1007 492l-395 -836h-83v80l469 756h9zM678 0l-131 -206h-188v82l127 124h192zM1117 404c-2 2.66699 -5 4 -9 4c-6 0 -8.33301 -1.33301 -7 -4c2 -2 5.33301 -3 10 -3c5.33301 0 7.33301 1 6 3zM1138 393l-3 3h-36l2 -3h37zM1188 324
c-2 3.33301 -6.33301 5 -13 5c-8 0 -11.333 -1.66699 -10 -5c2 -3.33301 6.66699 -5 14 -5c8 0 11 1.66699 9 5zM1219 309l-4 4h-63l3 -4h64zM1311 192c-3.33301 5.33301 -11.002 8 -23.002 8c-14 0 -19.667 -2.66699 -17 -8c2.66699 -6 10.334 -9 23.001 -9
c14.667 0 20.334 3 17.001 9zM1367 165l-6 6h-113l5 -6h114zM1547 -53c-6.66699 12.667 -23.333 19 -50 19c-30.667 0 -43 -6.33301 -37 -19s23 -19 51 -19c31.333 0 43.333 6.33301 36 19zM1640 -124l-15 15h-192l11 -15h196zM1057 393l-3 3h-80l-3 -3h86zM1440 -265
l-412 752l387 -775v23h25zM1094 309l-2 4h-156l-2 -4h160zM922.999 404c0.666992 2.66699 -1.66699 4 -7 4c-4.66699 0 -8 -1.33301 -10 -4c-1.33301 -2 1 -3 7 -3c4.66699 0 8 1 10 3zM928.998 396h-36l-3 -3h37zM1156 165l-3 6h-279l-2 -6h284zM857.998 324
c1.33301 3.33301 -1.99902 5 -9.99902 5c-6.66699 0 -11 -1.66699 -13 -5s1.33301 -5 10 -5c7.33301 0 11.666 1.66699 12.999 5zM874.999 313h-62l-4 -4h63zM752.999 192c2.66699 5.33301 -2.99902 8 -16.999 8c-12.667 0 -20.334 -2.66699 -23.001 -8
c-3.33301 -6 2 -9 16 -9c13.333 0 21.333 3 24 9zM1276 -124l-7 15h-510l-7 -15h524zM999 487l-411 -751h24v-24zM779 171h-112l-7 -6h115zM563 -53c6 12.667 -6.33301 19 -37 19c-26 0 -42.667 -6.33301 -50 -19s4.66699 -19 36 -19c28 0 45 6.33301 51 19zM595 -109h-193
l-14 -15h196z" />
    <glyph glyph-name="stadium" unicode="S" 
d="M2048 1154l-177 0.00292969v-73c34 -28 51 -58.667 51 -92c0 -40 -24.333 -76.333 -73 -109v-119l23 14h68c-30 -34.667 -60.333 -63.667 -91 -87v-98l23 14h68c-30 -34.667 -60.333 -63.667 -91 -87v-102l23 14h68c-108 -126 -264 -194.667 -468 -206v80
c44 4 84.667 9.66699 122 17v92c-38.667 -6.66699 -79.334 -11.334 -122.001 -14.001v80c44 4 84.667 9.66699 122 17v88c-38.667 -6.66699 -79.334 -11.334 -122.001 -14.001v80c44 4 84.667 9.66699 122 17v114c-171.333 -42.667 -364.333 -64 -579 -64
c-195.333 0 -387.333 21.333 -576 64v-111c44.667 -9.33301 89 -16 133 -20v-80c-47.333 2.66699 -91.666 8 -132.999 16v-88c39.333 -8 83.666 -14.333 132.999 -19v-80c-47.333 2.66699 -91.666 8 -132.999 16v-91c44.667 -9.33301 89 -16 133 -20v-80
c-204 11.333 -360 80 -468 206h69l11 -7v104c-27.333 22 -54 48 -80 78h69l11 -7v100c-27.333 22 -54 48 -80 78h69l11 -7v106c-50.667 33.333 -76 71.666 -76 114.999c0 30 11 57.667 33 83v179l164 -82c52.667 18.667 115.334 34.667 188.001 48v173l193 -96h-177v-74
c154 27.333 321.333 41 502 41v172l194 -97h-177v-75c176.667 -0.666992 338.667 -16 486 -46v156l194 -97h-177v-62c149.333 -31.333 257.333 -71 324 -119v158zM2048 -409.997l-450.001 0.00195312l-315 480c44 5.33301 83.333 17 118 35
c38.667 21.333 58.334 44.666 59.001 69.999c90 0 191.333 26.333 304 79c122.667 57.333 202 122.666 238 195.999h-107v92h153v-952zM1423 164.005c0 -12 -6 -20.001 -18 -24.001c-34 -34.667 -70.667 -52 -110 -52c-20.667 0 -44.667 6.66699 -72 20
c-32 16 -47.667 33 -47 51h-314c-13.333 -41.333 -58.333 -62 -135 -62c-43.333 0 -75.333 14.667 -96 44c-10.667 4.66699 -16 12.334 -16 23.001v478c0 10 9 15 27 15l122 -15c82.667 -8.66699 167.667 -13 255 -13c86.667 0 171.667 4.33301 255 13l123 15
c17.333 0 26 -8.33301 26 -25v-468zM1529 -409.996h-1022l342 534h343zM753.999 74.0039l-308 -484h-446v952h150v-92h-102c21.333 -68 91 -131.333 209 -190c112.667 -55.333 217.667 -83 315 -83c16 -68.667 76.667 -103 182 -103zM1792 731.004l-0.000976562 116
c-38 -18.667 -83.667 -35.667 -137 -51v-116c46.667 12.667 92.334 29.667 137.001 51zM1588 1157c-88.667 19.333 -196.667 34.333 -324 45l-91 -294c100.667 -3.33301 185 -11 253 -23zM1792 560.004l-0.000976562 91c-40 -22 -85.667 -40 -137 -54v-88
c46.667 12.667 92.334 29.667 137.001 51zM1792 385.004l-0.000976562 95c-40 -22 -85.667 -40 -137 -54v-92c46.667 12.667 92.334 29.667 137.001 51zM1215 1205c-84.667 6 -150.668 9 -198.001 9c-48 0 -107.333 -2.33301 -178 -7l45 -299
c84.667 2.66699 171.334 3 260.001 1zM1833 1014c0 56 -66.667 100.001 -200 132.001l-185 -265l65 -18c-123.333 -24.667 -288.666 -37 -495.999 -37c-168 0 -315 11.333 -441 34l31 12l-193 277c-142.667 -32.667 -214 -77.667 -214 -135
c0 -80.667 118.667 -140.334 356 -179.001c153.333 -25.333 307 -38 461 -38c149.333 0 302.666 13 459.999 39c237.333 40 356 99.333 356 178zM854.995 907.005l-74.001 295.999c-125.333 -10 -232.666 -24.333 -321.999 -43l169 -282
c56 14.667 131.667 24.334 227 29.001zM1398.99 631.004l-1.99805 1l-121 -15c-80.667 -8.66699 -166.334 -13 -257.001 -13c-112 0 -238.333 9.33301 -379 28v-468l10 -6c15.333 -24 41 -36 77 -36c32 0 68.667 10 110 30v240c0 8.66699 4.66699 13 14 13
c19.333 0 47.833 -1.16699 85.5 -3.5s66.167 -3.5 85.5 -3.5c18.667 0 46.167 1.16699 82.5 3.5s63.833 3.5 82.5 3.5c9.33301 0 14 -4.33301 14 -13v-240l9 -3c25.333 -24 53.666 -36 84.999 -36c32 0 66.333 17 103 51zM269.996 1156h-113v-67c27.333 24.667 65 47 113 67
zM377.996 684.004v111c-54 14.667 -99.667 30.667 -137 48v-106c43.333 -21.333 89 -39 137 -53zM377.996 512.004v88c-50.667 14 -96.334 33.333 -137.001 58v-92c46.667 -23.333 92.334 -41.333 137.001 -54zM377.996 338.004l0.000976562 91
c-50.667 14 -96.334 33.333 -137.001 58v-96c43.333 -21.333 89 -39 137 -53zM1673 948.004l-50 16l38 38zM1404 1081l-4 -37l-60 4l9 42zM1058 1060h-73v43h73v-43zM714.997 1048l-60 -4l-4 37l55 9zM1150 443.004l-261.001 -0.000976562c0 32 14.333 57.667 43 77
c24.667 16 54.334 24 89.001 24c33.333 0 62.333 -8.33301 87 -25c28 -19.333 42 -44.666 42 -75.999zM438.996 956.003l-51 -8l31 46z" />
    <glyph glyph-name="ship" unicode="T" 
d="M1571 1104h-138l-55 40h146v147l47 -56v-131zM1647 942l-189 142h132v156l-69 85l-170 15l17 39c10 14.667 26.333 22 49 22c32.667 0 62 -7 88 -21s54.667 -38 86 -72l56 -264v-102zM1279 1345c-67.333 5.33301 -125.167 9.33203 -173.5 11.999
s-108.833 3.33398 -181.5 2.00098l72 185c13.333 20 39.333 29.667 78 29c66 -2 126 -26.333 180 -73zM1740 682.999c-78.667 25.333 -147.333 51 -206 77c-42.667 19.333 -98 47.333 -166 84v285l322 -245v-84l50 -38v-79zM1504 1309v-145h-158v-307l-354 220
c-136 85.333 -293 139.333 -471 162v85c190 13.333 347 19.666 471 18.999c129.333 -1.33301 300 -12.666 512 -33.999zM1850 634.999c-0.666992 -37.333 -2.99902 -67.668 -6.99902 -91.001c-4.66699 -29.333 -10.667 -54.333 -18 -75c-106 -50 -225 -92.667 -357 -128
c-116 -31.333 -231.333 -47 -346 -47c-172 0 -274 -1.33301 -306 -4c-114.667 -10.667 -213 -57 -295 -139l-41 595c-11.333 158.667 -45 320.334 -101 485.001c123.333 5.33301 261.666 -21.667 414.999 -81c88 -34 198.667 -93.333 332 -178
c159.333 -102 267.333 -167.333 324 -196c124.667 -62.667 258 -109.667 400 -141zM459.001 688.997c-16 48 -48.667 110.668 -98 188.001c-56.667 89.333 -88.667 160.666 -96 213.999c-0.666992 6.66699 -1 13.334 -1 20.001c0 56.667 27.333 96 82 118
c40 -102.667 68.667 -210.334 86 -323.001c10 -64.667 19 -137 27 -217zM2048 -410.002l-2048 0.000976562v952h471l14 -277c-42 36.667 -80.667 57.334 -116 62.001c-28.667 3.33301 -58 -2 -88 -16l-79 -41c-16 -8 -29.667 -11.333 -41 -10
c-31.333 1.33301 -67.333 9 -108 23v-31c31.333 -12.667 68.333 -20.334 111 -23.001c16.667 -0.666992 48 12 94 38c43.333 24 80 34 110 30c52.667 -6.66699 94.334 -37.667 125.001 -93l8 -116c97.333 107.333 202.666 166 315.999 176
c20 1.33301 82.333 -11.667 187 -39c110 -28.667 198.667 -42.334 266 -41.001c60 2 143.667 13.667 251 35v29c-104.667 -23.333 -190 -35 -256 -35c-74 0 -174.667 18 -302 54l191 -1c111.333 2.66699 214.333 18 309 46c134 40.667 259.333 89 376 145l12 43
c2.66699 10.667 5.66699 24.667 9 42h188v-952zM1457 1192v78h-284v-78h284zM1655 827.999c0 26 -7.33301 39 -22 39c-14 0 -21 -13 -21 -39s7 -39 21 -39c14.667 0 22 13 22 39zM1562 886.999c0 28 -7.66699 42 -23 42s-23 -14 -23 -42c0 -28.667 7.66699 -43 23 -43
s23 14.333 23 43zM1459 955.999c0 31.333 -8.33301 47 -25 47s-25 -15.667 -25 -47s8.33301 -47 25 -47s25 15.667 25 47zM1144 1192v78h-290v-78h290zM832.001 1192v78h-273v-24c22.667 -4 55 -10.333 97 -19c24.667 -6 63.667 -17.667 117 -35h59z" />
    <glyph glyph-name="soundon" unicode="U" 
d="M2033 677c0 -198 -60 -380.999 -180 -548.999c58.667 125.333 88 266.333 88 423c0 146 -23.667 281.667 -71 407c-58 152 -141.667 256.333 -251 313c133.333 -42.667 236.333 -117.334 309 -224.001c70 -104 105 -227.333 105 -370zM1850 644.001
c0 -158.667 -48 -305 -144 -439c46.667 100 70 212.667 70 338c0 116.667 -19 225 -57 325c-46 122 -113 205.667 -201 251c106.667 -34 189 -94 247 -180c56.667 -82.667 85 -181 85 -295zM1685 610.001c0 -127.333 -38.667 -244.666 -116 -351.999
c38 80.667 57 171 57 271c0 93.333 -15.333 180 -46 260c-36.667 97.333 -90 164.333 -160 201c84.667 -27.333 150 -74.833 196 -142.5s69 -146.834 69 -237.501zM1505 417.001c0 -74 -7 -139.001 -21 -195.001c-21.333 -88 -56.333 -132 -105 -132
c-12.667 0 -40.334 14.333 -83.001 43c-52 35.333 -151.333 64.666 -298 87.999c-121.333 20 -227.666 30 -318.999 30c-25.333 0 -38 -20.333 -38 -61c0 -14 5.33301 -33.833 16 -59.5s16 -45.834 16 -60.501s8.66699 -31 26 -49s26 -32.333 26 -43
c0 -2.66699 -0.833008 -6.66699 -2.5 -12s-2.5 -9.33301 -2.5 -12c0 -9.33301 7.83301 -22.666 23.5 -39.999s23.5 -32.333 23.5 -45c0 -6 -2.5 -13.667 -7.5 -23s-7.5 -16.666 -7.5 -21.999c0 -8 4 -17.167 12 -27.5s12 -17.5 12 -21.5c0 -12 -16 -18 -48 -18
c-70 0 -119.333 20.667 -148 62c-18 25.333 -35 78.333 -51 159c-31.333 150.667 -84.666 226 -159.999 226c-2.66699 0 -6.66699 -0.5 -12 -1.5s-9.33301 -1.5 -12 -1.5c-85.333 0 -128 78 -128 234c0 89.333 43.667 153.666 131 192.999c45.333 16.667 113 43 203 79
c94.667 40 198.334 101.333 311.001 184c105.333 76.667 179.666 142.334 222.999 197.001c17.333 92 53.666 138 108.999 138c65.333 0 128.333 -72 189 -216c40.667 -97.333 71.667 -199.666 93 -306.999c19.333 -96.667 29 -192 29 -286zM275 212
c-72 4.66699 -123 14.001 -153 28.001c-47.333 23.333 -71 65.666 -71 126.999c0 60.667 19 105.667 57 135c1.33301 1.33301 46 25 134 71c-31.333 -35.333 -47 -89.333 -47 -162c0 -88 26.667 -154.333 80 -199zM1249 484.001c0 70.667 -11.999 137 -35.999 199
c-26.667 69.333 -63.334 118 -110.001 146c25.333 -237.333 64.333 -415.333 117 -534c19.333 58.667 29 121.667 29 189zM1248 193.001c-58.667 89.333 -105.333 202.333 -140 339c-32 126 -48 247.667 -48 365l13 114c-44.667 -58 -106 -112.333 -184 -163l-211 -127
c-82.667 -51.333 -124 -111 -124 -179c0 -59.333 10.667 -110.666 32 -153.999c26.667 -53.333 66 -84.333 118 -93c3.33301 -0.666992 40 -2.33398 110 -5.00098c166 -6.66699 310.667 -39 434 -97zM200.002 254.001c-26 72.667 -39 129.669 -39 171.002
c0 28.667 3.66699 53 11 73l-23 -6c-8 -30.667 -12 -63.334 -12 -98.001c0 -28.667 11.667 -75.334 35 -140.001h28zM145.002 260.003c-24 57.333 -36 98.332 -36 122.999s2.66699 55.334 8 92.001l-28 -19c-4.66699 -26.667 -7 -51.667 -7 -75
c0 -30.667 12.667 -68 38 -112z" />
    <glyph glyph-name="soundoff" unicode="V" 
d="M1765 426c0 -74 -7.00098 -139.001 -21.001 -195.001c-21.333 -88 -56.333 -132 -105 -132c-12.667 0 -40.334 14.333 -83.001 43c-52 35.333 -151.333 64.666 -298 87.999c-121.333 20 -227.666 30 -318.999 30c-24.667 0 -37 -20.333 -37 -61
c0 -14 5.33301 -33.833 16 -59.5s16 -45.834 16 -60.501s8.5 -31 25.5 -49s25.5 -32.333 25.5 -43c0 -2.66699 -0.833008 -6.66699 -2.5 -12s-2.5 -9.33301 -2.5 -12c0 -9.33301 7.83301 -22.666 23.5 -39.999s23.5 -32.333 23.5 -45c0 -6 -2.5 -13.667 -7.5 -23
s-7.5 -16.666 -7.5 -21.999c0 -8 4.16699 -17.167 12.5 -27.5s12.5 -17.5 12.5 -21.5c0 -12 -16 -18 -48 -18c-70.667 0 -120.334 20.667 -149.001 62c-17.333 25.333 -34.333 78.333 -51 159c-30.667 150.667 -83.667 226 -159 226c-3.33301 0 -7.66602 -0.5 -12.999 -1.5
s-9.33301 -1.5 -12 -1.5c-85.333 0 -128 78 -128 234c0 89.333 43.667 153.666 131 192.999c45.333 16.667 113 43 203 79c94.667 40 198.334 101.333 311.001 184c106 76.667 180.333 142.334 223 197.001c18 92 54.333 138 109 138c65.333 0 128.333 -72 189 -216
c41.333 -97.333 72.333 -199.666 93 -306.999c19.333 -96.667 29 -192 29 -286zM534.999 220.999c-72 4.66699 -123 14.001 -153 28.001c-47.333 23.333 -71 65.666 -71 126.999c0 60.667 19.333 105.667 58 135c1.33301 1.33301 46 25 134 71
c-32 -35.333 -48 -89.333 -48 -162c0 -88 26.667 -154.333 80 -199zM1510 493c0 70.667 -12 137 -36 199c-27.333 69.333 -64.333 118 -111 146c26 -237.333 65.333 -415.333 118 -534c19.333 58.667 29 121.667 29 189zM1509 202c-59.333 89.333 -106.333 202.333 -141 339
c-32 126 -48 247.667 -48 365l14 114c-45.333 -58 -107 -112.333 -185 -163l-211 -127c-82.667 -51.333 -124 -111 -124 -179c0 -59.333 10.667 -110.666 32 -153.999c26.667 -53.333 66 -84.333 118 -93c4 -0.666992 41 -2.33398 111 -5.00098
c165.333 -6.66699 310 -39 434 -97zM459.999 263c-26 72.667 -39 129.669 -39 171.002c0 28.667 3.66699 53 11 73l-22 -6c-8.66699 -30.667 -13 -63.334 -13 -98.001c0 -28.667 11.667 -75.334 35 -140.001h28zM404.999 269.002c-24 57.333 -36 98.332 -36 122.999
s2.66699 55.334 8 92.001l-28 -19c-4.66699 -26.667 -7 -51.667 -7 -75c0 -30.667 13 -68 39 -112z" />
    <glyph glyph-name="soundleft" unicode="W" horiz-adv-x="1100" 
d="M900 341h-298l-470 -434v1455l471 -435h297v-586z" />
    <glyph glyph-name="soundright" unicode="X" horiz-adv-x="1100" 
d="M900 -93l-470 434h-298v586h298l470 435v-1455z" />
    <glyph glyph-name="favorite" unicode="Y" 
d="M1794 886c0 -213.333 -133.667 -430.999 -401 -652.999c-186 -154 -416.667 -296.667 -692 -428c10 52.667 15 103 15 151c0 124 -39.333 236.667 -118 338l-221 243c-78.667 98.667 -118 206.667 -118 324c0 115.333 38.833 210.166 116.5 284.499
s174.5 111.5 290.5 111.5c79.333 0 153 -20.667 221 -62c74 -45.333 121 -104.333 141 -177c81.333 159.333 201.333 239 360 239c106.667 0 200 -34.667 280 -104c84 -72.667 126 -161.667 126 -267z" />
    <glyph glyph-name="occasion" unicode="Z" 
d="M1713 1246c-20.667 -15.333 -40.333 -38 -59 -68l-45 -78c-66.667 -104 -136.334 -156 -209.001 -156c-66.667 0 -101 30.667 -103 92c74.667 68 140.334 105 197.001 111c-66.667 -43.333 -115.334 -84.333 -146.001 -123c2 -26.667 18.667 -40 50 -40
c70.667 0 149 79 235 237c-19.333 4.66699 -39.666 7 -60.999 7c-148 0 -240.333 -53.667 -277 -161c-2.66699 7.33301 -4 15.666 -4 24.999c0 56.667 29.333 101.334 88 134.001c48.667 27.333 103.667 41 165 41c42 0 98.333 -7 169 -21zM1611 762
c0 -31.333 -8.33301 -61.666 -25 -90.999c-17.333 -32 -37.333 -48 -60 -48c-26 0 -51 18.333 -75 55c-21.333 34 -32 65 -32 93c0 40.667 16.667 61 50 61c28.667 0 43 -14.333 43 -43c0 -14.667 -5 -29 -15 -43c-4 31.333 -13 47 -27 47c-9.33301 0 -14 -6 -14 -18
c0 -18 6.66699 -40 20 -66c14.667 -29.333 30 -44 46 -44c13.333 0 25.333 11.667 36 35c9.33301 21.333 14 41.666 14 60.999c0 27.333 -8 51.833 -24 73.5s-34.667 32.5 -56 32.5c-14 0 -26 -1.66699 -36 -5c19.333 26.667 37.333 40 54 40
c22.667 0 45.167 -15.167 67.5 -45.5s33.5 -61.833 33.5 -94.5zM1181 1137c0 -13.333 -7.00098 -30.3311 -21.001 -50.998c0 54 -33 81 -99 81c-28 0 -53.333 -8.33301 -76 -25s-34 -36 -34 -58s29 -33 87 -33c35.333 0 53 6.66699 53 20c0 11.333 -9 17 -27 17
c-7.33301 0 -16.333 -1.33301 -27 -4c14.667 21.333 31 32 49 32c29.333 0 44 -13.667 44 -41c0 -42 -29.667 -63 -89 -63c-27.333 0 -54.333 5.33301 -81 16c-34.667 13.333 -52 31.666 -52 54.999c0 31.333 16.333 59.666 49 84.999s67.334 38 104.001 38
c24.667 0 49 -5 73 -15c31.333 -13.333 47 -31.333 47 -54zM1510 590.002l-15 -17.001l-153 31c-53.333 12.667 -94.333 44.334 -123 95.001c-12 21.333 -18 43 -18 65c0 48 23 87.333 69 118c40.667 26.667 86 40 136 40c10.667 0 19 -0.333008 25 -1
c-33.333 -20.667 -50 -60 -50 -118c0 -64 43 -135 129 -213zM1250 982.001c0 -48 -10.668 -87.999 -32.001 -119.999c-25.333 -38 -60.666 -57 -105.999 -57c-8.66699 0 -17 0.666992 -25 2c-56 9.33301 -99.667 37.333 -131 84l-82 133l12 19
c76 -38.667 137.667 -58 185 -58c32.667 0 64 8.33301 94 25c33.333 18.667 53 43 59 73c17.333 -34.667 26 -68.334 26 -101.001zM1558 201.002c-20 16 -46.999 29.002 -80.999 39.002l-88 24c-139.333 44 -209 108.667 -209 194c0 46 22.333 76 67 90
c85.333 -54.667 138 -108.334 158 -161.001l-75 61c-32 25.333 -59.333 41.666 -82 48.999c-18 -6 -27 -20.333 -27 -43c0 -72 92.667 -132 278 -180l13 -3c0 42 -11 86.833 -33 134.5s-48.833 84.167 -80.5 109.5s-72.167 40 -121.5 44c14 9.33301 31.333 14 52 14
c49.333 0 93.666 -22.333 132.999 -67c34 -38 58 -83.333 72 -136c10.667 -40 18.667 -96.333 24 -169zM1158 678.004c0 -23.333 -17 -41.668 -51 -55.001c-26.667 -10 -53.667 -15 -81 -15c-59.333 0 -89 21 -89 63c0 28 14.667 42 44 42c18 0 34 -11 48 -33
c-10.667 2.66699 -19.667 4 -27 4c-17.333 0 -26 -6 -26 -18c0 -13.333 18 -20 54 -20c56.667 0 85 11.333 85 34s-12.5 42.334 -37.5 59.001s-49.167 25 -72.5 25c-64.667 0 -97.667 -27.333 -99 -82c-12.667 18.667 -19 34 -19 46c0 22 12 39.833 36 53.5
s51.667 20.5 83 20.5c34.667 0 68 -12 100 -36c34.667 -26 52 -55.333 52 -88zM1192 619.002c-12.667 -15.333 -33.667 -49.334 -63 -102.001c-22.667 -39.333 -45.667 -67 -69 -83c-31.333 -22 -66.333 -33 -105 -33c-45.333 0 -80.333 19 -105 57
c-22 32.667 -33 72.667 -33 120c0 32.667 8.66699 66.334 26 101.001c6 -30 25.667 -54.333 59 -73c29.333 -16.667 60.666 -25 93.999 -25c48.667 0 110.334 19.333 185.001 58zM880 849.001c0 -6.66699 -0.666992 -12.667 -2 -18c-40.667 92.667 -120.667 139 -240 139
c-46 0 -82.667 -5 -110 -15c93.333 -144 175.666 -216 246.999 -216c36.667 0 54.667 15 54 45c-11.333 14.667 -63.666 51 -156.999 109c58 -0.666992 127 -31.667 207 -93v-4c0 -29.333 -10.5 -52.833 -31.5 -70.5s-46.5 -26.5 -76.5 -26.5c-68 0 -137.333 46 -208 138
l-52 74c-21.333 28 -43 48.667 -65 62c84 24.667 147.333 37 190 37c69.333 0 126 -13.333 170 -40c49.333 -30 74 -70.333 74 -121zM848 387.001c-64.667 -68.667 -148.333 -137.667 -251 -207c-106.667 -71.333 -202.334 -121.333 -287.001 -150l-9 36
c76.667 24.667 168.334 73 275.001 145c103.333 70 183.333 136.667 240 200zM928.001 314.001c-174.667 -202.667 -302 -376 -382 -520l-35 14c78.667 140 206.667 315.333 384 526zM906.001 368.001c-92.667 -110.667 -282.001 -284.333 -568.001 -521l-20 33
c132.667 106 252.334 208 359.001 306c93.333 86 159 154 197 204z" />
    <glyph glyph-name="thoughtleft" unicode="[" 
d="M2014 1c0 -27.333 -19.333 -49 -58 -65c-29.333 -12 -60 -18 -92 -18c-32.667 0 -63.667 6 -93 18c-38.667 16 -58 37.667 -58 65c0 28 19.333 50 58 66c29.333 12 60.333 18 93 18c32 0 62.667 -6 92 -18c38.667 -16 58 -38 58 -66zM2003 840
c0 -59.333 -15.335 -105.668 -46.002 -139.001c22.667 -18.667 34 -41.667 34 -69c0 -65.333 -42.333 -112.333 -127 -141c6 -14 9 -27.667 9 -41c0 -27.333 -9.66699 -49.666 -29 -66.999s-42 -24.666 -68 -21.999c60 -34 90 -80.333 90 -139
c0 -51.333 -23.333 -93.333 -70 -126c-42 -30 -89.667 -45 -143 -45s-101 14.667 -143 44c-46.667 32.667 -70 74.667 -70 126c-19.333 -22 -45.333 -33 -78 -33c-54 0 -82.667 12.667 -86 38c-14 -44.667 -45.333 -67 -94 -67c-48 0 -89 19.667 -123 59
c-7.33301 -38 -37 -57 -89 -57s-86 19.667 -102 59c-19.333 -34 -68.333 -51 -147 -51c-41.333 0 -71.666 30.667 -90.999 92c-20 -25.333 -59.333 -38 -118 -38c-59.333 0 -92.666 39.333 -99.999 118c-30 -34 -64 -51 -102 -51c-23.333 0 -44 12 -62 36
c-16 22 -24 45.333 -24 70c0 17.333 3.66699 34 11 50c-13.333 -2.66699 -28 -4 -44 -4c-47.333 0 -71 12 -71 36c0 34 9 72.333 27 115c-31.333 -1.33301 -57 7.66699 -77 27s-30 45 -30 77c0 57.333 34 92.333 102 105c-23.333 33.333 -35 76.333 -35 129
c0 24.667 10 46 30 64s42.667 27 68 27c22 0 39.333 -8 52 -24c-1.33301 4.66699 -2 11 -2 19c0 27.333 8.5 52.666 25.5 75.999s38.833 35 65.5 35c30 0 60.333 -10 91 -30c-0.666992 2.66699 -1 6.33398 -1 11.001c0 20 6.83301 37 20.5 51s30.167 21 49.5 21
c21.333 0 46.333 -17 75 -51c1.33301 30 12.5 54 33.5 72s46.5 27 76.5 27c72 0 110.667 -18.667 116 -56c26.667 44.667 68.667 67 126 67s83.333 -18 78 -54c69.333 36 125.666 54 168.999 54c42.667 0 65 -22.333 67 -67c55.333 32 105.333 48 150 48
s68.667 -29.667 72 -89c26.667 20 80.334 30 161.001 30c48 0 72 -16.667 72 -50c0 -18.667 -6 -37.667 -18 -57c29.333 10.667 56.333 16 81 16c33.333 0 60.833 -10.5 82.5 -31.5s32.5 -48.167 32.5 -81.5c0 -18 -6.33301 -29.667 -19 -35
c34 1.33301 64.333 -3.66699 91 -15c34 -14.667 51 -37.334 51 -68.001z" />
    <glyph glyph-name="backslash" unicode="\" 
d="M2048 -410h-1024l-1024 2048h1024z" />
    <glyph glyph-name="thoughtright" unicode="]" 
d="M2008 697c0 -32 -10.001 -57.665 -30.001 -76.998s-45.667 -28.333 -77 -27c18 -42.667 27 -81 27 -115c0 -24 -23.667 -36 -71 -36c-16 0 -30.667 1.33301 -44 4c7.33301 -16 11 -32.667 11 -50c0 -24.667 -8 -48 -24 -70c-18 -24 -39 -36 -63 -36
c-37.333 0 -71 17 -101 51c-7.33301 -78.667 -40.666 -118 -99.999 -118c-58.667 0 -98 12.667 -118 38c-19.333 -61.333 -49.666 -92 -90.999 -92c-78.667 0 -127.667 17 -147 51c-16 -39.333 -50 -59 -102 -59s-81.667 19 -89 57c-34 -39.333 -75 -59 -123 -59
c-48.667 0 -80 22.333 -94 67c-3.33301 -25.333 -32 -38 -86 -38c-32.667 0 -58.667 11 -78 33c0 -51.333 -23.333 -93.333 -70 -126c-42 -29.333 -89.667 -44 -143 -44s-101 15 -143 45c-46.667 32.667 -70 74.667 -70 126c0 58.667 30 105 90 139
c-26 -2.66699 -48.667 4.66602 -68 21.999s-29 39.666 -29 66.999c0 13.333 3 27 9 41c-84.667 28.667 -127 75.667 -127 141c0 27.333 11.333 50.333 34 69c-30.667 33.333 -46 79.666 -46 138.999c0 30.667 17 53.334 51 68.001c26.667 11.333 57 16.333 91 15
c-12.667 5.33301 -19 17 -19 35c0 33.333 10.833 60.5 32.5 81.5s49.167 31.5 82.5 31.5c24.667 0 51.667 -5.33301 81 -16c-12 19.333 -18 38.333 -18 57c0 33.333 24 50 72 50c80 0 133.667 -10 161 -30c3.33301 59.333 27.333 89 72 89s94.667 -16 150 -48
c2 44.667 24.333 67 67 67c43.333 0 99.666 -18 168.999 -54c-5.33301 36 20.667 54 78 54s99.333 -22.333 126 -67c5.33301 37.333 44 56 116 56c30 0 55.5 -9 76.5 -27s32.167 -42 33.5 -72c28.667 34 53.667 51 75 51c19.333 0 35.833 -7 49.5 -21s20.5 -31 20.5 -51
c0 -4.66699 -0.333008 -8.33398 -1 -11.001c30.667 20 61 30 91 30c26.667 0 48.5 -11.667 65.5 -35s25.5 -48.666 25.5 -75.999c0 -8 -0.666992 -14.333 -2 -19c12.667 16 30 24 52 24c25.333 0 48 -9 68 -27s30 -39.333 30 -64c0 -52.667 -11.667 -95.667 -35 -129
c68 -12.667 102 -47.667 102 -105zM334.999 1.00195c0 -27.333 -19.333 -49 -58 -65c-29.333 -12 -60.333 -18 -93 -18c-32 0 -62.667 6 -92 18c-38.667 16 -58 37.667 -58 65c0 28 19.333 50 58 66c29.333 12 60 18 92 18c32.667 0 63.667 -6 93 -18
c38.667 -16 58 -38 58 -66z" />
    <glyph glyph-name="chat" unicode="^" 
d="M2024 1048c0 -140 -70.6699 -254.667 -212.003 -344c-3.33301 -23.333 -5 -45 -5 -65c0 -59.333 18 -109.333 54 -150c4 -4.66699 41.667 -36.667 113 -96c-118 -2.66699 -209.667 18.333 -275 63c-49.333 33.333 -89 86 -119 158c-47.333 -9.33301 -95.333 -14 -144 -14
c-54 0 -111 8.33301 -171 25c-23.333 87.333 -73 166.333 -149 237c-81.333 76 -167.666 117.333 -258.999 124c-6 26 -9 46.667 -9 62c0 121.333 57.333 222.333 172 303c112.667 78 251.334 117 416.001 117s303.334 -39 416.001 -117
c114.667 -80.667 172 -181.667 172 -303zM1225 563c0 -123.333 -57.5 -228.666 -172.5 -315.999s-253.833 -131 -416.5 -131c-78.667 0 -153.667 11.333 -225 34c-22 -135.333 -98.667 -203 -230 -203c-44.667 0 -97.667 18 -159 54c55.333 6 100.333 29.5 135 70.5
s52 93.167 52 156.5c0 9.33301 -0.333008 19 -1 29c-106.667 86 -160 188 -160 306c0 122.667 57.333 225.667 172 309c112.667 82 251 123 415 123c163.333 0 302.5 -41.333 417.5 -124s172.5 -185.334 172.5 -308.001z" />
    <glyph glyph-name="conference" unicode="_" 
d="M2024 1114c0 -140 -70.6699 -254.667 -212.003 -344c-3.33301 -23.333 -5 -45 -5 -65c0 -59.333 18 -109.333 54 -150c4 -4.66699 41.667 -36.667 113 -96c-118 -2.66699 -209.667 18.333 -275 63c-49.333 33.333 -89 86 -119 158c-47.333 -9.33301 -95.333 -14 -144 -14
c-54 0 -111 8.66699 -171 26c-23.333 86.667 -73 165.667 -149 237c-81.333 75.333 -167.666 116.333 -258.999 123c-6 26 -9 46.667 -9 62c0 122 57.333 223 172 303c112.667 78 251.334 117 416.001 117s303.334 -39 416.001 -117c114.667 -80 172 -181 172 -303z
M1856 233c0 -84 -48.666 -158.5 -145.999 -223.5s-221.333 -107.5 -372 -127.5c-33.333 -95.333 -86.666 -162 -159.999 -200c-62 -32.667 -148.333 -49 -259 -49c116 48 174 128 174 240c-147.333 8 -275.833 38.333 -385.5 91s-180.167 116.667 -211.5 192
c1.33301 0 22.166 -2.33301 62.499 -7s78.166 -7 113.499 -7c129.333 0 243 29.667 341 89c148 90.667 232 211 252 361c148.667 0 276.667 -25 384 -75c138 -64 207 -158.667 207 -284zM1225 629c0 -123.333 -57.5 -228.666 -172.5 -315.999s-253.833 -131 -416.5 -131
c-78.667 0 -153.667 11.333 -225 34c-22 -135.333 -98.667 -203 -230 -203c-44.667 0 -97.667 18 -159 54c55.333 6 100.333 29.5 135 70.5s52 93.167 52 156.5c0 10 -0.333008 19.667 -1 29c-106.667 86 -160 188 -160 306c0 122.667 57.333 225.667 172 309
c112.667 82 251 123 415 123c163.333 0 302.5 -41.333 417.5 -124s172.5 -185.334 172.5 -308.001z" />
    <glyph glyph-name="loop" unicode="`" 
d="M1761 772l-122 0.000976562v219c0 38 -7 64.5 -21 79.5s-40 22.5 -78 22.5h-384v-138l-185 185l185 211v-135h424c52 0 95.167 -17.333 129.5 -52s51.5 -78.334 51.5 -131.001v-261zM1903 570.001h-135v-357c0 -52.667 -17.167 -96.167 -51.5 -130.5
s-77.833 -51.5 -130.5 -51.5h-491v122h448c38 0 64.667 7 80 21s23 40.333 23 79v317h-139l185 185zM949 1079h-447.999c-38.667 0 -65.834 -7 -81.501 -21s-23.5 -40.333 -23.5 -79v-206h141l-206 -186l-192 186h135v246c0 52.667 17.5 96.167 52.5 130.5
s78.833 51.5 131.5 51.5h491v-122zM1065 87.001l-185 -192.001v135h-424c-52.667 0 -96.167 17.333 -130.5 52s-51.5 78.334 -51.5 131.001v358h122v-316c0 -38 7.16699 -64.5 21.5 -79.5s40.5 -22.5 78.5 -22.5h384v138z" />
    <glyph glyph-name="UIcheck" unicode="a" 
d="M1408 640l-576 -576l-320 320v384l320 -319l576 575v-384z" />
    <glyph glyph-name="bicycle" unicode="b" 
d="M1778 311c0 -86 -30.332 -159.334 -90.999 -220.001s-133.667 -91 -219 -91c-86 0 -159.333 30.333 -220 91s-91 134 -91 220c0 62 16.833 118.333 50.5 169s77.834 88.334 132.501 113.001l-24 62l-340 -407l-90 9c-12.667 -73.333 -47.834 -134.5 -105.501 -183.5
s-124.5 -73.5 -200.5 -73.5c-85.333 -0 -158.333 30.333 -219 91s-91 134 -91 220c0 85.333 30.333 158.333 91 219s134 91 220 91c42 0 82 -8 120 -24l75 166l-27 76l5 2l-19 56c-22 0 -40 2 -54 6c-23.333 6 -35 16.667 -35 32c0 28.667 10 43 30 43
c10.667 0 25.667 -2.5 45 -7.5s33 -7.5 41 -7.5c9.33301 0 21.666 1 36.999 3s25 3 29 3c11.333 0 17 -7.33301 17 -22c0 -4.66699 -11 -13 -33 -25s-40.333 -19.667 -55 -23l19 -51l4 3l20 -55h466l-39 107v35h180v-35h-146l108 -298c32 10.667 65 16 99 16
c86 0 159.167 -30.167 219.5 -90.5s90.5 -133.5 90.5 -219.5zM1744 310.999c0 76 -27 140.998 -81 194.998s-119 81 -195 81c-28.667 0 -58 -5 -88 -15c32.667 -91.333 59 -162.666 79 -213.999l23 -57c0 -8 -4.33301 -12 -13 -12c-10 0 -22 18.667 -36 56l-81 216
c-106.667 -49.333 -160 -132.666 -160 -249.999c0 -76 27 -141 81 -195s119 -81 195 -81s141 27 195 81s81 119 81 195zM1305 689.997l-27 73h-465l168 -460zM951.001 285.997l-159 432.999l-61 -137c106.667 -59.333 160 -149.666 160 -270.999v-20zM856.001 294.996v16
c0 106.667 -46.667 186.667 -140 240l-104 -233zM852.001 259.996l-292.001 26.999l127 278c-35.333 14.667 -70.666 22 -105.999 22c-76 0 -141 -27 -195 -81s-81 -119 -81 -195s26.833 -141 80.5 -195s118.5 -81 194.5 -81c67.333 0 126.5 21.333 177.5 64
s82.5 96.334 94.5 161.001z" />
    <glyph glyph-name="boxopen" unicode="c" 
d="M2048 -410h-2048v2048h2048v-2048zM1920 -282v1792h-1792v-1792h1792z" />
    <glyph glyph-name="sheild" unicode="d" 
d="M1729 874c0 -266.667 -66 -491.334 -198 -674.001c-126.667 -175.333 -295.667 -288 -507 -338c-211.333 50 -380.333 162.667 -507 338c-132 182.667 -198 407.334 -198 674.001c0 97.333 20.667 190.333 62 279c32 69.333 70 124.666 114 165.999
c98 -60.667 195 -91 291 -91s175.333 29.667 238 89c62.667 -59.333 142 -89 238 -89s193 30.333 291 91c44 -41.333 82 -96.666 114 -165.999c41.333 -88.667 62 -181.667 62 -279z" />
    <glyph glyph-name="package" unicode="e" 
d="M1215 1348c0 -38 -70 -89.333 -210 -154c0 38 11 80.667 33 128c26 56 55.667 84 89 84c15.333 0 33.333 -5.66699 54 -17c22.667 -13.333 34 -27 34 -41zM1599 1125l-441.999 -0.000976562c46.667 11.333 91.334 34.666 134.001 69.999c10 8 33.333 33 70 75
s58.667 68.667 66 80l-64 24c-40 -93.333 -74.667 -150.666 -104 -171.999c-74 -54.667 -155 -80.334 -243 -77.001h-1c42 10.667 92.667 38 152 82c68 49.333 102 91 102 125s-14.667 61.333 -44 82c-26 18 -56.667 27 -92 27c-48.667 0 -87.334 -24.667 -116.001 -74
c-22.667 -40 -35.334 -87 -38.001 -141c-12.667 51.333 -33 96 -61 134c-35.333 48.667 -75 73 -119 73c-69.333 0 -104 -28.333 -104 -85c0 -32.667 39 -72.667 117 -120l160 -96c-72 20 -178.333 53 -319 99c-46 17.333 -86.333 55.333 -121 114l-48 -74
c64.667 -49.333 143.334 -83.666 236.001 -102.999l255 -43h-566l75 60h79l-121 75l74 138l95 -106c36 -34.667 77.667 -56 125 -64c-47.333 32 -71 72 -71 120c0 36.667 13.667 65.334 41 86.001c24 19.333 55 29 93 29c78 0 136 -57.333 174 -172
c27.333 120 80.666 180 159.999 180c44 0 82 -12 114 -36c34.667 -26 52 -60.333 52 -103c0 -54 -49 -104.333 -147 -151c58.667 6.66699 102 33.667 130 81c3.33301 6 23.333 55.667 60 149l122 -53l-153 -175h213zM951.001 1195c-36 15.333 -73.333 39.332 -112 71.999
c-47.333 39.333 -71 73 -71 101c0 27.333 15.667 41 47 41c32.667 0 63 -28 91 -84c20 -39.333 35 -82.666 45 -129.999zM1696 -0.00195312h-646v1029c-6.66699 17.333 -13.667 37 -21 59h615l52 -43v-1045zM989.001 -0.00195312h-705v1029l76 59h622l7 -49v-1039z" />
    <glyph glyph-name="fire" unicode="f" 
d="M1721 1339l-216 -106l198 137zM1590 1464l-135 -165l104 183zM1738 1151l-241 17l241 19v-36zM1388 1495l-17 -194l-19 194h36zM1459 1147h-103l14 105h68zM1661 755l-116 -103v31l84 72h-47v284h-37v15h116v-299zM1305 1173l-86 -24v24h86zM1305 1187h-86v49h-390v-49
h-87v145h87v-45h390v45h86v-145zM1202 1187h-357v35h357v-35zM1202 1149h-357v24h357v-24zM696 1495l-19 -194l-17 194h36zM829 1149l-87 24h87v-24zM592 1299l-134 165l31 18zM691 1147h-103l21 105h68zM543 1233l-217 106l18 31zM550 1168l-240 -17v36zM1561 202h-29v-44
h-48v-158h-180v104c-36 0.666992 -56.667 18.667 -62 54h-438c-4.66699 -35.333 -25 -53.333 -61 -54v-104h-180v158h-48v44h-29v62h29l-1 802c0 16 8 31.333 24 46c14 14 27.333 21 40 21h890c13.333 0 27.333 -7.16699 42 -21.5s22 -29.5 22 -45.5v-802h29v-62zM502 652
l-116 103v299h116v-15h-36v-284h-47l83 -72v-31zM1498 755v299h-442v-299h442zM1503 285v114h-160v-114h160zM991 755v299h-442v-299h442zM1355 165c0 34 -16.667 51 -50 51c-34 0 -51 -17 -51 -51c0 -33.333 17 -50 51 -50c33.333 0 50 16.667 50 50zM1304 361v38h-561v-38
h561zM1304 285v38h-561v-38h561zM1550 210v41h-1053v-41h199c12.667 13.333 28 20 46 20s33.333 -6.66699 46 -20h471c12 13.333 27.333 20 46 20c18 0 33.333 -6.66699 46 -20h199zM704 285v114h-160v-114h160zM793 165c0 34 -17 51 -51 51c-33.333 0 -50 -17 -50 -51
c0 -33.333 16.667 -50 50 -50c34 0 51 16.667 51 50z" />
    <glyph glyph-name="boxsolid" unicode="g" 
d="M2048 -410h-2048v2048h2048v-2048z" />
    <glyph glyph-name="medical" unicode="h" 
d="M998 1244h-136l27 125h88zM1850 123h-46.999v86c0 66 -22.333 122.5 -67 169.5s-98.334 70.5 -161.001 70.5s-116.167 -23.5 -160.5 -70.5s-66.5 -103.5 -66.5 -169.5l-1 -86h-621v1098h1124v-1098zM1766 198c0 -54.667 -18.5 -101.334 -55.5 -140.001
s-81.167 -58 -132.5 -58c-52 0 -96.333 19.333 -133 58s-55 85.334 -55 140.001s18.333 101.334 55 140.001s81 58 133 58c51.333 0 95.5 -19.333 132.5 -58s55.5 -85.334 55.5 -140.001zM691.001 329c-42.667 80 -105.333 120 -188 120
c-62.667 0 -116.167 -23.5 -160.5 -70.5s-66.5 -103.5 -66.5 -169.5v-86h-100v528c0 54.667 35 82 105 82h39l101 245c14 33.333 39 50 75 50h195v-699zM691.002 198c0 -54.667 -18.333 -101.334 -55 -140.001s-81 -58 -133 -58s-96.333 19.333 -133 58
s-55 85.334 -55 140.001s18.333 101.334 55 140.001s81 58 133 58s96.333 -19.333 133 -58s55 -85.334 55 -140.001zM1644 655v287h-202v202h-287v-202h-203v-287h203v-203h287v203h202zM658.002 733v242h-205l-92 -242h297z" />
    <glyph glyph-name="information" unicode="i" 
d="M1843 612c0 -226 -80 -418.833 -240 -578.5s-353 -239.5 -579 -239.5s-419 79.833 -579 239.5s-240 352.5 -240 578.5s80 419 240 579s353 240 579 240s419 -80 579 -240s240 -353 240 -579zM1709 612c0 189.333 -66.833 351 -200.5 485s-295.167 201 -484.5 201
s-351 -67 -485 -201s-201 -295.667 -201 -485s67 -350.833 201 -484.5s295.667 -200.5 485 -200.5s350.833 66.833 484.5 200.5s200.5 295.167 200.5 484.5zM1192 1034c0 -43.333 -16.5 -80.333 -49.5 -111s-72.5 -46 -118.5 -46c-46.667 0 -86.334 15.333 -119.001 46
s-49 67.667 -49 111s16.333 80.333 49 111s72.334 46 119.001 46c46 0 85.5 -15.333 118.5 -46s49.5 -67.667 49.5 -111zM1161 0h-275v780h275v-780z" />
    <glyph glyph-name="planesmall" unicode="j" 
d="M1329 851l-22.001 -31c-77.333 8 -160.666 18.333 -249.999 31l-2 2c0 2.66699 11 6.66699 33 12zM1914 517c-40.667 -39.333 -68.6699 -58.665 -84.0029 -57.998c-36 2 -318 12.667 -846 32c-24.667 -8.66699 -48.667 -16.334 -72 -23.001
c-55.333 -14.667 -103.666 -22.334 -144.999 -23.001c-119.333 -1.33301 -207 14.667 -263 48c44 -0.666992 69 8 75 26c2 4.66699 3 9.33398 3 14.001c0 30.667 -21.667 51 -65 61c-41.333 9.33301 -68.666 0.333008 -81.999 -27c-7.33301 -14.667 -6.33301 -27 3 -37
c-8 4 -16.333 15.667 -25 35c-4 46 72.333 95.333 229 148c59.333 79.333 121.666 117.333 186.999 114c70 -4 156.667 -13.667 260 -29c84 -12.667 148.667 -18.334 194 -17.001c18.667 0.666992 78.334 96.334 179.001 287.001c18 0.666992 31.667 0 41 -2l29 -8l-47 -217
l307 -31c-2.66699 -5.33301 -9.66699 -11 -21 -17c-26.667 -0.666992 -127 2.33301 -301 9l-24 -87c-17.333 -16.667 -51.666 -46.667 -102.999 -90c-22 -16.667 -54.333 -35.334 -97 -56.001zM569.996 697.001c-18 -6 -45.667 -17.667 -83 -35
c-14.667 -8.66699 -34 -23 -58 -43l-292 164c-3.33301 2 -5 4 -5 6c0 9.33301 43.667 16.333 131 21zM550.996 526.001c0 -18 -26.333 -27 -79 -27c-22.667 0 -34 7 -34 21c0 35.333 21.667 52 65 50c32 -2 48 -16.667 48 -44zM1055 668.001l-21 89l-77 10l36 -108z
M965.996 654.001l-31 113l-12 -120zM915.996 772.001c-50.667 16.667 -94.332 25 -130.999 25c-14.667 0 -27 -1.33301 -37 -4c-21.333 -6 -50.333 -33 -87 -81c19.333 -0.666992 53 -4 101 -10c43.333 -8.66699 89.666 -24.667 138.999 -48z" />
    <glyph glyph-name="satellite" unicode="k" 
d="M1865 1008l-216 -364l-516 53l147 166zM1428 1243l-193 -242l-198 -38l117 202zM930 794c4 -7.33301 0.333984 -14.334 -10.999 -21.001c-13.333 -7.33301 -22 -7.66602 -26 -0.999023l-162 281c-18.667 -0.666992 -32.667 7 -42 23
c-15.333 26 -9.66602 46.667 17.001 62c27.333 16 48.666 11 63.999 -15c9.33301 -16.667 8.66602 -32.667 -2.00098 -48zM1195 901.999c0 -27.333 -20.667 -62.167 -62 -104.5s-94.333 -82.166 -159 -119.499c-104 -60 -190.667 -90 -260 -90c-44.667 0 -67 14.667 -67 44
c0 59.333 66.333 129.666 199 210.999l44 -76c5.33301 -8.66699 15.333 -8.66699 30 0c16 9.33301 21.667 18.333 17 27l-44 76c98 56.667 176.333 82 235 76c44.667 0 67 -14.667 67 -44zM1433 500.998c4.66699 -8 7.00195 -17 7.00195 -27c0 -32 -20.167 -70 -60.5 -114
s-92.5 -84.333 -156.5 -121c-94.667 -55.333 -177 -82.666 -247 -81.999c-40.667 0 -67.334 11 -80.001 33l-88 149l114 249l-239 -53l-17 53c7.33301 -12.667 24.666 -19 51.999 -19c70 0 158.333 30.667 265 92c65.333 38 119 78.167 161 120.5s63 76.166 63 101.499
c0 6 -1 11 -3 15l28 -49l-142 -164l253 -24zM1509 242.998c3.33301 -6 5.00098 -12.666 5.00098 -19.999c0 -56 -57.667 -117.333 -173 -184c-78.667 -45.333 -146.334 -68 -203.001 -68c-30.667 0 -50.667 8 -60 24c-4.66699 8.66699 -7 22.667 -7 42
c0 33.333 7.66699 73.333 23 120c31.333 12.667 77 33 137 61c53.333 31.333 97.333 63 132 95l59 -17c48 -18.667 77 -36.334 87 -53.001zM689.004 762.999l-118 -160l-405 -110l259 242zM881.004 550.999l-217 -476l-462 -19l461 447zM1119 931.999
c-36.667 0 -81.334 -11.333 -134.001 -34c36.667 11.333 69.334 17 98.001 17c42 0 63 -10.333 63 -31c0 -22.667 -21 -56.667 -63 -102c62 54.667 93 94.667 93 120c0 20 -19 30 -57 30zM1417 486.999l-94 162.999l-33 1l117 -208c14 16.667 17.333 31.334 10 44.001z
M922.004 792.998l-164 281c10 16 13.333 28 10 36c-10 20.667 -24 29.334 -42 26.001c8.66699 -2.66699 18 -12.334 28 -29.001c1.33301 -8 -3 -18 -13 -30l174 -295zM1361 295.998c65.333 -54 98.001 -82.001 98.001 -84.001c0 -18 -19.667 -46.667 -59 -86
c-34 -34 -89.667 -72 -167 -114c21.333 7.33301 54.666 22 99.999 44c38.667 22.667 75.5 51.834 110.5 87.501s52.5 62.5 52.5 80.5c0 31.333 -45 55.333 -135 72z" />
    <glyph glyph-name="navigate" unicode="l" 
d="M1901 611l-705 -166l-176 -710l-166 706l-710 175l706 166l175 711l166 -707zM1152 778l-122 541v-666zM1735 609h-665l124 -123zM976 618l-125 123l-541 -123h666zM1016 -92v666l-123 -125z" />
    <glyph glyph-name="jump" unicode="m" horiz-adv-x="1144" 
d="M674 1391l-217 0.00195312v23c12.667 1.33301 27.334 9.66602 44.001 24.999c4 16 4.66699 33.667 2 53h125c2.66699 -9.33301 2.66699 -22.333 0 -39s12.666 -30.334 45.999 -41.001v-21zM651 1359c-3.33301 -26.667 -13.998 -39.999 -31.998 -39.999
c-11.333 0 -21.833 4.83301 -31.5 14.5s-16.5 14.5 -20.5 14.5c-4.66699 0 -10.834 -5 -18.501 -15s-15.834 -14.667 -24.501 -14c-16 1.33301 -30 14.666 -42 39.999c20.667 12.667 50.667 19 90 19c42 0 68.333 -6.33301 79 -19zM844.002 1180l-62 -465l-49 16l-65 -502
h-195l-79 502l-51 -16l-43 465l205 58l-29 -44l64 -180l23 195l-19 29h60l-19 -29l16 -195l70 180l-30 47zM667.002 182.003c8.66699 -104 -7.33301 -156.002 -48 -156.002c-25.333 0 -40 28 -44 84c-4.66699 -56 -21.334 -84 -50.001 -84c-36.667 0 -50.667 52.333 -42 157
l14 -1c-5.33301 -29.333 4 -44.666 28 -45.999c18 -0.666992 29 7 33 23c1.33301 6.66699 1 14.667 -1 24l16 -1c0.666992 -2 1.33398 -6.66699 2.00098 -14c0 6 0.333008 11 1 15l13 -1c-4 -29.333 6 -44.666 30 -45.999c18 -0.666992 28.667 7 32 23
c2 6.66699 2 14.667 0 24zM820.002 -220.999c0 -22 -23.833 -39.5 -71.5 -52.5s-106.834 -19.5 -177.501 -19.5s-129.334 6.33301 -176.001 19c-48.667 13.333 -73 31 -73 53s24.333 41 73 57s107.334 24 176.001 24s127.334 -8 176.001 -24s73 -35 73 -57z" />
    <glyph glyph-name="circlesolid" unicode="n" 
d="M2048 613c0 -282.667 -99.667 -523.834 -299 -723.501s-440.333 -299.5 -723 -299.5s-524.334 99.833 -725.001 299.5s-301 440.834 -301 723.501s100.333 524.167 301 724.5s442.334 300.5 725.001 300.5s523.667 -100.167 723 -300.5s299 -441.833 299 -724.5z" />
    <glyph glyph-name="boat" unicode="o" 
d="M1896 213l-198 -213h-1544v96h102l80 90h256v84h94c28 22 42 45.667 42 71c0 26 -13 52.333 -39 79l-1 26h374l-70 160h21l70 -160l13 -2l164 -164h323l59 -92c101.333 12 181.333 23.667 240 35zM1163 340l-57 57h-210l1 -57h266z" />
    <glyph glyph-name="police" unicode="p" 
d="M1757 1259l-254 -124l233 161zM1514 1396l-157 -234l121 255zM1796 1021l-282 20l282 22v-42zM1247 1439l-20 -281l-22 281h42zM1761 628l-86 -56l-42 123h128v-67zM944 1439l-22 -281l-20 281h42zM1479 982h-814v112h814v-112zM792 1162l-157 234l36 21zM646 1135
l-254 124l21 37zM1701 236h-34v-51h-56v-185h-211v122c-42 0.666992 -66 21.667 -72 63h-512c-6 -41.333 -29.667 -62.333 -71 -63v-122h-211v185h-57v51h-34v72h34v186c0 66 51.667 207.333 155 424c117.333 20.667 264 31 440 31s323 -10.333 441 -31
c102.667 -216.667 154 -358 154 -424v-186h34v-72zM635 1041l-282 -20v42zM512 695l-42 -123l-86 56v67h128zM1460 1002v75h-254v-75h254zM1633 334v132h-187v-132h187zM939 1002v75h-254v-75h254zM1597 617c-8 28 -23.002 72.666 -45.002 133.999
c-14.667 34 -38 79.333 -70 136c-93.333 13.333 -230 20 -410 20c-179.333 0 -315.666 -6.66699 -408.999 -20c-15.333 -27.333 -38.666 -72.666 -69.999 -135.999c-14 -31.333 -29.333 -76 -46 -134c160.667 7.33301 335.667 11 525 11c190 0 365 -3.66699 525 -11z
M1460 193.999c0 39.333 -19.667 59 -59 59s-59 -19.667 -59 -59s19.667 -59 59 -59s59 19.667 59 59zM1400 421.999v44h-655v-44h655zM1400 333.999v43h-655v-43h655zM1688 245.999v47h-1232v-47h234c14 15.333 31.667 23 53 23s39.333 -7.66699 54 -23h551
c14 15.333 31.667 23 53 23s39.333 -7.66699 54 -23h233zM698.998 333.999v132h-187v-132h187zM801.998 193.999c0 39.333 -19.667 59 -59 59s-59 -19.667 -59 -59s19.667 -59 59 -59s59 19.667 59 59z" />
    <glyph glyph-name="UIrefresh" unicode="q" 
d="M1654 728c0 -107.333 -22.001 -208.668 -66.001 -304.001c-46.667 -99.333 -112 -179.666 -196 -240.999l111 -87l-357 -96l33 355l100 -79c103.333 91.333 155 218.333 155 381c0 208.667 -99.333 371.667 -298 489l126 245c122.667 -59.333 219.334 -151 290.001 -275
c68 -118.667 102 -248 102 -388zM889.999 244.998l-126 -244.998c-122 59.333 -218.333 151 -289 275c-68.667 118.667 -103 248 -103 388c0 107.333 22.333 208.666 67 303.999c46.667 99.333 111.667 179.666 195 240.999l-111 88l357 95l-33 -355l-100 79
c-103.333 -91.333 -155 -218.333 -155 -381c0 -208.667 99.333 -371.667 298 -489z" />
    <glyph glyph-name="UIclose" unicode="r" 
d="M1702 -96h-192l-480 474l-474 -474h-198v192l474 480l-474 474v198h198l474 -474l480 474h192v-198l-474 -474l474 -474v-198z" />
    <glyph glyph-name="UIhelp" unicode="s" 
d="M1600 1094c0 -128 -82.999 -242.331 -248.999 -342.998c-90 -54.667 -135 -126.667 -135 -216v-209h-384v192c0 74 20.5 144.833 61.5 212.5s94.5 116.5 160.5 146.5c108 49.333 162 121.666 162 216.999c0 54 -18.5 99.5 -55.5 136.5s-82.5 55.5 -136.5 55.5
s-99.5 -18.5 -136.5 -55.5s-55.5 -82.5 -55.5 -136.5v-114h-384v114c0 122 68.667 219.667 206 293c113.333 60.667 236.666 91 369.999 91c134 0 257.667 -30.333 371 -91c136.667 -72.667 205 -170.334 205 -293.001zM1216 -57.998c0 -54 -18.5 -99.5 -55.5 -136.5
s-82.5 -55.5 -136.5 -55.5s-99.5 18.5 -136.5 55.5s-55.5 82.5 -55.5 136.5s18.5 99.5 55.5 136.5s82.5 55.5 136.5 55.5s99.5 -18.5 136.5 -55.5s55.5 -82.5 55.5 -136.5z" />
    <glyph glyph-name="train" unicode="t" 
d="M2048 -410h-2048v952h297c3.33301 279.333 52 468 146 566c46.667 48.667 95 73.667 145 75c20 31.333 50.667 45 92 41c34 -2.66699 70 -17.667 108 -45c-13.333 -1.33301 -28.666 -9 -45.999 -23l5 -10c24 20 52 30 84 30c27.333 0 55 -8.66699 83 -26l154 -94
c28.667 9.33301 59.667 14 93 14c64 0 119 -19 165 -57l581 -471h141v-952zM1520 782v34l-85 74v-52zM1420 846v54l-97 85l-37 -53zM1307 997c-43.333 38.667 -89.667 58 -139 58c-16.667 0 -40 -4.66699 -70 -14l166 -100zM1875 533l-348 -108v-61zM1816 562v6.00098
l-187 59c-1.33301 37.333 -7 72.666 -17 105.999l-78 50v-9l72 -45c4.66699 -13.333 9.66699 -46 15 -98l-647 212c-23.333 7.33301 -49.333 11 -78 11c-27.333 0 -53 -3 -77 -9l-3 -35c26 8.66699 54.333 13 85 13c26 0 51.333 -3.66699 76 -11l644 -192
c0 -25.333 -0.666992 -55 -2 -89h-655c-48.667 0 -97.667 -8.66699 -147 -26l1 -37c19.333 10 69 20.667 149 32l658 22c3.33301 35.333 5 67 5 95zM689.998 1157c0 36.667 -15.667 55 -47 55s-47 -18.333 -47 -55s15.667 -55 47 -55s47 18.333 47 55zM1508 357.001
l0.000976562 65l-428 -120c-46.667 -13.333 -80.334 -76.333 -101.001 -189zM792.999 937.001c0 20 -7.33203 31.333 -21.999 34c-41.333 7.33301 -95 11.333 -161 12c-8.66699 -33.333 -19 -87.666 -31 -162.999c-14 -148 -19 -280 -15 -396
c0.666992 -22.667 14.667 -34 42 -34c75.333 0 123.666 1 144.999 3c17.333 2 26.333 13.333 27 34c-2 56.667 -3 153.667 -3 291c0 34 3 77.667 9 131s9 82.666 9 87.999zM524 983.001l-140 -7.00098c-10.667 -32 -25.667 -84.667 -45 -158
c-23.333 -105.333 -29.333 -243.666 -18 -414.999c24 -2 60 -4.33301 108 -7c11.333 0 20.833 2.5 28.5 7.5s11.5 11.833 11.5 20.5c-2 160 5.33301 293 22 399c6.66699 40.667 17.667 94 33 160zM947 235c-52 -4.66699 -141.666 -10.667 -268.999 -18
c-42.667 -1.33301 -101.667 0.333984 -177 5.00098l-23 -159c85.333 -2 157.666 -1 216.999 3c70.667 5.33301 142.667 14.666 216 27.999zM722.001 270l-12.001 86.999c-10.667 4 -40 5.33301 -88 4c-70.667 -2 -111 -3 -121 -3
c-21.333 0.666992 -55.666 3.33398 -102.999 8.00098c-26 2.66699 -41 1.33398 -45 -3.99902c-5.33301 -7.33301 -7.66602 -36.333 -6.99902 -87c28 -4 74 -9 138 -15c57.333 -2.66699 136.666 0.666016 237.999 9.99902zM449 225.999
c-16 0 -42.001 2.00098 -78.001 6.00098c-13.333 2 -32 6 -56 12l-80 -138c13.333 -7.33301 36 -17.333 68 -30c22.667 -6.66699 55.334 -10.334 98.001 -11.001zM824.999 59l-169 -16l-525 -275v-52l115 1zM300.999 59l-67 26l-103 -32v-64zM773.999 882l-3 -21l-172 12
l3 23zM764.999 770l-3 -21l-172 9l3 22zM496.999 901l-4 -24l-128 -3l4 21zM757.999 653l-3 -21l-173 3l3 22zM755.999 511h-172v21h172v-21zM472.999 788l-1 -23l-131 -2l1 21zM464.999 664l-1 -22l-133 1l1 21h133zM458.999 518l-130 5v21l130 -5v-21zM776.999 43
l-543 -317h-58l560 314zM268.999 56l-128 -51l3 19l102 41z" />
    <glyph glyph-name="metro" unicode="u" 
d="M2048 -410h-2048v952h208c-2 23.333 -3 46.666 -3 69.999c0 226 80 419 240 579s353 240 579 240s419 -80 579 -240s240 -353 240 -579c0 -23.333 -1 -46.666 -3 -69.999h208v-952zM1709 612c0 189.333 -66.833 351 -200.5 485s-295.167 201 -484.5 201
s-351 -67 -485 -201s-201 -295.667 -201 -485s67 -350.833 201 -484.5s295.667 -200.5 485 -200.5s350.833 66.833 484.5 200.5s200.5 295.167 200.5 484.5zM1620 436c-40 -128.667 -114.667 -235.334 -224 -320.001c-112 -87.333 -236 -131 -372 -131
s-260.333 43.667 -373 131c-108.667 84.667 -183 191.334 -223 320.001h360v72h-98v509c0 52.667 27.333 97.667 82 135c62 42.667 146 64 252 64c105.333 0 189 -21.333 251 -64c54.667 -37.333 82 -82.333 82 -135v-509h-98v-72h361zM1322 813v203h-279v-203h279z
M1324 582c0 28 -14.333 42 -43 42c-28 0 -42 -14 -42 -42c0 -28.667 14 -43 42 -43c28.667 0 43 14.333 43 43zM1005 813v203h-280v-203h280zM1202 436v72h-357v-72h357zM809 582c0 28 -14.333 42 -43 42s-43 -14 -43 -42c0 -28.667 14.333 -43 43 -43s43 14.333 43 43z" />
    <glyph glyph-name="bus" unicode="v" 
d="M1601 185h-56v-185h-213v185h-618v-185h-211v185h-56v877c0 80.667 47.333 139.334 142 176.001c92 36 237 54 435 54s343 -18 435 -54c94.667 -36.667 142 -95.334 142 -176.001v-877zM1540 712v350h-483v-350h483zM1543 312c0 20.667 -7.16699 38.167 -21.5 52.5
s-31.833 21.5 -52.5 21.5c-20 0 -37.333 -7.16699 -52 -21.5s-22 -31.833 -22 -52.5c0 -20 7.33301 -37.167 22 -51.5s32 -21.5 52 -21.5c20.667 0 38.167 7.16699 52.5 21.5s21.5 31.5 21.5 51.5zM991 712v350h-483v-350h483zM1332 333v44h-618v-44h618zM1332 244v44h-618
v-44h618zM653 312c0 20.667 -7.16699 38.167 -21.5 52.5s-31.833 21.5 -52.5 21.5s-38.167 -7.16699 -52.5 -21.5s-21.5 -31.833 -21.5 -52.5c0 -20 7.16699 -37.167 21.5 -51.5s31.833 -21.5 52.5 -21.5s38.167 7.16699 52.5 21.5s21.5 31.5 21.5 51.5z" />
    <glyph glyph-name="flag" unicode="w" 
d="M1344 1270l-450.002 -325l131 -890c-9.33301 -13.333 -19.666 -20 -30.999 -20c-10.667 0 -17.334 9.33301 -20.001 28l-180 1320c-3.33301 26 3.33398 39 20.001 39c8.66699 0 19.334 -50.667 32.001 -152c120 -2 286 -2 498 0zM1308 15
c0 -42.667 -39.332 -75 -117.999 -97c-56 -16 -113 -24 -171 -24s-115 8 -171 24c-78 22 -117 54.333 -117 97c0 32.667 24.667 61 74 85c41.333 19.333 80.666 29 117.999 29c5.33301 0 14.833 -21.5 28.5 -64.5s33.167 -64.5 58.5 -64.5c15.333 0 25.333 22.167 30 66.5
s11.667 66.5 21 66.5c40.667 0 89 -10.333 145 -31c68 -25.333 102 -54.333 102 -87zM1248 1234h-395l35 -245c90.667 68 210.667 149.667 360 245z" />
    <glyph glyph-name="not" unicode="x" 
d="M1843 612c0 -226 -80 -419 -240 -579s-353 -240 -579 -240s-419 80 -579 240s-240 353 -240 579s80 419 240 579s353 240 579 240s419 -80 579 -240s240 -353 240 -579zM1712 612c0 190 -67.167 352.167 -201.5 486.5s-296.5 201.5 -486.5 201.5
c-170 0 -319.333 -55 -448 -165l970 -970c110.667 128.667 166 277.667 166 447zM1449 72l-966.001 966c-98 -124.667 -147 -266.667 -147 -426c0 -190 67.167 -352.167 201.5 -486.5s296.5 -201.5 486.5 -201.5c158.667 0 300.334 49.333 425.001 148z" />
    <glyph glyph-name="noentry" unicode="y" 
d="M1024 -207c-226 0 -419.001 79.999 -579.001 239.999s-240 353 -240 579c0 226.667 79.833 419.834 239.5 579.501s352.834 239.5 579.501 239.5c226 0 419 -80 579 -240s240 -353 240 -579s-80 -419 -240 -579s-353 -240 -579 -240zM1710 664.999
c-13.333 169.333 -80 314 -200 434c-134 134 -296 201 -486 201s-352.333 -67 -487 -201c-120 -120 -186.333 -264.667 -199 -434h1372zM1707 530.999h-1366c18.667 -157.333 84 -292.333 196 -405c134.667 -134.667 297 -202 487 -202s352 67.333 486 202
c112.667 112 178.334 247 197.001 405z" />
    <glyph glyph-name="nosmoking" unicode="z" 
d="M1843 612c0 -226 -80 -419 -240 -579s-353 -240 -579 -240s-419 80 -579 240s-240 353 -240 579s80 419 240 579s353 240 579 240s419 -80 579 -240s240 -353 240 -579zM1712 612c0 190 -67.167 352.164 -201.5 486.497s-296.5 201.5 -486.5 201.5
c-170 0 -319.333 -55 -448 -165l333 -333c158.667 12.667 244.667 57.334 258 134.001c1.33301 8.66699 2 17.334 2 26.001c0 90.667 -77 142.334 -231 155.001c24 3.33301 49.667 5 77 5c165.333 0 248 -54.667 248 -164c0 -18 -2.33301 -37 -7 -57
c-23.333 -99.333 -111 -160.333 -263 -183l198 -198h359v-153h-206l202 -202c110.667 128.667 166 277.667 166 447zM1449 71.9971l-295 295.002h-529v153h376l-184 184c-93.333 -4 -155.333 -8.66699 -186 -14c-56.667 -10 -91.667 -28.333 -105 -55
c-3.33301 -6.66699 -5 -14 -5 -22c0 -16 5.66699 -33.333 17 -52c-33.333 25.333 -50 57.666 -50 96.999c0 9.33301 1.33301 18.666 4 27.999c13.333 60 92.666 95 237.999 105l-247 247c-98 -124.667 -147 -266.667 -147 -426c0 -190 67.167 -352.167 201.5 -486.5
s296.5 -201.5 486.5 -201.5c158.667 0 300.334 49.333 425.001 148zM600 366.999h-50v153h50v-153zM527 366.999h-47v153h47v-153z" />
    <glyph glyph-name="shoutleft" unicode="{" 
d="M2045 813l-153 -220l148 -198l-290 -65l258 -389l-644 279l-196 -158l-35 158l-247 -166l-45 185l-239 -169l-37 199l-352 -78l78 228l-287 -32l145 222l-145 156l276 145l-225 295l333 -22l10 314l317 -174l166 153l236 -180l132 193l153 -209l391 80l-99 -289l295 77
l-134 -225z" />
    <glyph glyph-name="bar" unicode="|" 
d="M1088 -410h-128v2047h128v-2047z" />
    <glyph glyph-name="shoutright" unicode="}" 
d="M2045 387l-287 32l78 -228l-351 78l-38 -199l-239 169l-45 -185l-247 166l-35 -158l-196 158l-643 -279l257 389l-290 65l148 198l-153 220l190 110l-134 225l295 -77l-99 289l392 -80l153 209l131 -193l236 180l166 -153l317 174l11 -314l332 22l-225 -295l276 -145
l-145 -156z" />
    <glyph glyph-name="lightningbolt" unicode="~" 
d="M1886 1479l-757 -1385l-209 398l-757 -722l770 1333l211 -346z" />
    <glyph glyph-name="man" unicode="&#xc4;" 
d="M1138 1331c0 -38.667 -11.333 -73.334 -34 -104.001s-49.667 -46 -81 -46s-58.333 15.333 -81 46s-34 65.334 -34 104.001c0 38 11.167 70.5 33.5 97.5s49.5 40.5 81.5 40.5c31.333 0 58.333 -13.5 81 -40.5s34 -59.5 34 -97.5zM1303 504c0 -46 -17.667 -69 -53 -69
s-53 23 -53 69v465h-26v-1120c0 -46 -21.667 -69 -65 -69s-65 23 -65 69v663h-34v-663c0 -46 -21.667 -69 -65 -69s-65 23 -65 69v1120h-26v-465c0 -46 -17.667 -69 -53 -69s-53 23 -53 69v533c0 86.667 48.333 130 145 130h269c96 0 144 -43.333 144 -130v-533z" />
    <glyph glyph-name="woman" unicode="&#xc5;" 
d="M1139 1317c0 -38 -11.167 -70.5 -33.5 -97.5s-49.166 -40.5 -80.499 -40.5c-32 0 -59.167 13.5 -81.5 40.5s-33.5 59.5 -33.5 97.5s11.167 70.5 33.5 97.5s49.5 40.5 81.5 40.5c31.333 0 58.166 -13.5 80.499 -40.5s33.5 -59.5 33.5 -97.5zM1305 349h-132v-479
c0 -46 -22 -69 -66 -69c-43.333 0 -65 23 -65 69v479h-33v-479c0 -46 -22 -69 -66 -69c-42.667 0 -64 23 -64 69v479h-136l135 343v327h-25v-306c0 -45.333 -17.667 -68 -53 -68c-36 0 -54 22.667 -54 68v306c0 98 48 147 144 147h269c96 0 144 -49 144 -147v-306
c0 -45.333 -17 -68 -51 -68c-35.333 0 -53 22.667 -53 68v306h-26v-327z" />
    <glyph glyph-name="boy" unicode="&#xc7;" 
d="M1115 1186c0 -30 -9 -55.833 -27 -77.5s-39.667 -32.5 -65 -32.5s-47 10.833 -65 32.5s-27 47.5 -27 77.5c0 30.667 9 56.667 27 78s39.667 32 65 32s47 -10.667 65 -32s27 -47.333 27 -78zM1327 841c6 -10 9 -20.333 9 -31c0 -18.667 -11.333 -43.667 -34 -75l-101 -141
l-34 88l84 122l-95 125v-252l38 -112l-16 -25v-133h-18v-407c0 -36.667 -17.667 -55 -53 -55c-34.667 0 -52 18.333 -52 55v407h-18v133h-27v-133h-18v-407c0 -36.667 -17.333 -55 -52 -55s-52 18.333 -52 55v407h-19v133l-16 25l39 112v252l-96 -125l84 -122l-34 -88
l-101 141c-22.667 31.333 -34 56.333 -34 75c0 10.667 3 21 9 31l110 179c19.333 30.667 41 46 65 46h257c24 0 45.667 -15.333 65 -46z" />
    <glyph glyph-name="girl" unicode="&#xc9;" 
d="M1227 1086l-26 4v22l26 4v-30zM1207 1142l-16 -30v-22l15 -29h-44l15 29v22l-16 30h46zM1168 1090c-30 0.666992 -49.3311 9.66699 -57.998 27c-12.667 -46.667 -41.334 -70 -86.001 -70s-73.334 23.333 -86.001 70c-8 -17.333 -27.333 -26.333 -58 -27v22
c35.333 1.33301 53 19.666 53 54.999c0 24.667 9.16699 47.667 27.5 69s39.5 32 63.5 32c24.667 0 46 -10.667 64 -32s27 -44.333 27 -69c0 -35.333 17.667 -53.666 53 -54.999v-22zM888.002 1142l-16 -30v-22l15 -29h-44l14 29v22l-15 30h46zM848.002 1090l-26 -4v30l26 -4
v-22zM1249 383h-106v-383c0 -36.667 -17.667 -55 -53 -55c-34.667 0 -52 18.333 -52 55v383h-27v-383c0 -36.667 -17.333 -55 -52 -55s-52 18.333 -52 55v383h-108l108 274v247h-20v-229c0 -36.667 -14 -55 -42 -55c-28.667 0 -43 18.333 -43 55v229
c0 88.667 48 133 144 133h160c95.333 0 143 -44.333 143 -133v-229c0 -36.667 -14.333 -55 -43 -55s-43 18.333 -43 55v229h-20v-247z" />
    <glyph glyph-name="baby" unicode="&#xd1;" 
d="M1705 1095c10 -46 15 -91.668 15 -137.001c0 -160 -57 -292.667 -171 -398c-20 -48 -40.333 -92.333 -61 -133c-49.333 -98 -97 -170.667 -143 -218c-57.333 -60 -152 -124.333 -284 -193c-115.333 -154 -265 -228.667 -449 -224c-86.667 2 -157.667 38 -213 108
c-52.667 67.333 -79.667 149 -81 245c-2 154.667 78 261 240 319c19.333 40.667 39 78.334 59 113.001c47.333 84 90.666 147 129.999 189c47.333 50.667 122.333 109.667 225 177c12.667 59.333 30 112 52 158c52 110.667 121.333 180.667 208 210l-26 71l31 16l28 -80
l-1 119l35 -3l-1 -110c16 2 33 3 51 3c78.667 0 151.334 -19 218.001 -57c76 -44 122 -102.333 138 -175zM1667 1086c-18 73.333 -69 130 -153 170c33.333 -38.667 51.333 -72.667 54 -102c4 -46.667 -14.667 -108 -56 -184c-28 -50.667 -81.667 -109 -161 -175
c18.667 -16 48.667 -43.333 90 -82c24 -24 55.667 -58 95 -102c97.333 91.333 146 206.333 146 345c0 42 -5 85.333 -15 130zM1531 1146c0 22 -14 48.667 -42 80c-36.667 41.333 -82 62 -136 62c-24 0 -44.333 -1 -61 -3l-2 138l-17 1l-3 -144l-36 102l-17 -6l36 -102
c-82 -30.667 -132 -98.667 -150 -204c-1.33301 -10.667 -1.66602 -25.667 -0.999023 -45c-10 4 -18 6 -24 6c-18 0 -27 -13 -27 -39c0 -14.667 3 -37 9 -67c16.667 -4.66699 43.5 -13.334 80.5 -26.001s70.833 -27 101.5 -43c8 44 35 66 81 66c28 0 52 -15.667 72 -47
c19.333 20.667 47.666 57.334 84.999 110.001c34 60 51 113.667 51 161zM1363 854.999c-6.66699 8.66699 -20.001 17.998 -40.001 27.998c-23.333 0.666992 -40 -12 -50 -38l23 -12c3.33301 8.66699 11.333 17.334 24 26.001
c8.66699 0.666992 18.334 -5.66602 29.001 -18.999zM1511 577.997c-31.333 34.667 -61.999 66.668 -91.999 96.001c-71.333 69.333 -133.333 118.666 -186 147.999s-130.334 58.666 -233.001 87.999c-29.333 -17.333 -56.333 -34.666 -81 -51.999
c-60.667 -40.667 -106.334 -76.667 -137.001 -108c-54.667 -57.333 -112 -151 -172 -281c40 -11.333 76.667 -23.333 110 -36c81.333 -31.333 141.333 -64.333 180 -99c55.333 -49.333 110 -136.333 164 -261l94 53c69.333 42 121.333 80.333 156 115
c66.667 66.667 132.334 179 197.001 337zM1027 51.998c-14.667 34.667 -30 66.333 -46 95c-38 70 -74.667 121 -110 153c-56 52 -150.333 98.333 -283 139c-41.333 -20.667 -76.666 -44.334 -105.999 -71.001c-70.667 -63.333 -106.334 -135.666 -107.001 -216.999
c-0.666992 -78 24.333 -150 75 -216s106.667 -98.667 168 -98c136 1.33301 272.333 73 409 215zM1483 1016c-22 -4 -39.333 -6 -52 -6c-12 0 -28.667 2 -50 6v14c21.333 -3.33301 38 -5 50 -5c12.667 0 30 1.66699 52 5v-14zM1373 935.997c-22 -3.33301 -39.333 -5 -52 -5
c-12 0 -28.667 1.66699 -50 5v15c21.333 -3.33301 38 -5 50 -5c12.667 0 30 1.66699 52 5v-15zM1258 1012c-22 -3.33301 -39.333 -5 -52 -5c-12 0 -28.667 1.66699 -50 5v15c21.333 -3.33301 38 -5 50 -5c12.667 0 30 1.66699 52 5v-15zM1166 791.997l-156 13l-146 -56
l140 97zM700 328.997l-99 8l-108 -49l97 78z" />
    <glyph glyph-name="scifi" unicode="&#xd6;" 
d="M1639 877c0 -187.333 -38.333 -371 -115 -551c-66 -154.667 -149.667 -284.334 -251 -389.001c-95.333 -98 -178.333 -147 -249 -147s-153.667 49 -249 147c-101.333 104.667 -185 234.334 -251 389.001c-76.667 180 -115 363.667 -115 551c0 176 51.333 318 154 426
c110 116 263.667 174 461 174s351 -58 461 -174c102.667 -108 154 -250 154 -426zM1450 679c-38 -6.66699 -72.3311 -15.001 -102.998 -25.001c-74 -23.333 -125 -52.666 -153 -87.999c-34.667 -44.667 -53.334 -120 -56.001 -226c35.333 6 68 13.667 98 23
c71.333 22 121.666 49.667 150.999 83c45.333 51.333 66.333 129 63 233zM910.002 339.999c-0.666992 30.667 -3.00098 59.3311 -7.00098 85.998c-10 62.667 -26.333 109.334 -49 140.001c-41.333 53.333 -126.666 91 -255.999 113c-3.33301 -104 17.667 -181.667 63 -233
c43.333 -49.333 126.333 -84.666 249 -105.999z" />
    <glyph glyph-name="health" unicode="&#xdc;" 
d="M1746 1195h-56v204h56v-204zM1679 1105h-105v388h105v-388zM474 1105h-105v388h105v-388zM358 1195h-55v204h55v-204zM1563 1278h-78c-8 -14.667 -112.667 -195.667 -314 -543v-930c0 -46 -21.667 -69 -65 -69s-65 23 -65 69v594h-34v-594c0 -46 -21.667 -69 -65 -69
s-65 23 -65 69v930l-314 543h-78v40h64c0 17.333 9.33301 31.333 28 42c10 6 19.667 9 29 9c17.333 0 34.333 -14 51 -42l5 -9h724l5 9c16.667 28 33.667 42 51 42c9.33301 0 19 -3 29 -9c18.667 -10.667 28 -24.667 28 -42h64v-40zM1361 1278h-674l171 -286
c28.667 -47.333 56.667 -71 84 -71h164c27.333 0 55.333 23.667 84 71zM1138 1088c0 -38.667 -11.333 -73.334 -34 -104.001s-49.667 -46 -81 -46s-58.333 15.333 -81 46s-34 65.334 -34 104.001c0 38 11.167 70.5 33.5 97.5s49.5 40.5 81.5 40.5
c31.333 0 58.333 -13.5 81 -40.5s34 -59.5 34 -97.5z" />
    <glyph glyph-name="skier" unicode="&#xe1;" 
d="M1341 570c0 -34 -41 -107.667 -123 -221l-16 8c80.667 108 121 179.667 121 215c0 13.333 -2.66699 25 -8 35c17.333 -8 26 -20.333 26 -37zM1421 902c0 -18.667 -7.00293 -28 -21.0029 -28c-3.33301 0 -7 0.666992 -11 2l-116 -243c26 -14 39 -33.333 39 -58
c0 -35.333 -39.667 -106.333 -119 -213l-114 54l63 108c-39.333 17.333 -78.666 29.333 -117.999 36c-94 16.667 -141 55.667 -141 117c0 52.667 20.667 126 62 220c-10 5.33301 -27.667 13.666 -53 24.999c-18 8.66699 -29.667 20 -35 34l-516 -136
c2.66699 -9.33301 4 -16.333 4 -21c0 -12.667 -5 -19 -15 -19c-10.667 0 -20 10 -28 30l-22 -6l-5 16l24 7c-2 6.66699 -3 14 -3 22c0 12.667 4.66699 19 14 19c10.667 0 20 -10.333 28 -31l516 136c0 6.66699 2 17.334 6 32.001c9.33301 18.667 26.333 28 51 28
c4.66699 0 11.667 -0.5 21 -1.5s16.333 -1.5 21 -1.5c20.667 0 35 1 43 3l45 13c16.667 0 41.667 -2 75 -6l15 34c-4.66699 1.33301 -11.334 2 -20.001 2c-7.33301 0 -27 -3 -59 -9c9.33301 16 21 28.667 35 38c-34 0 -68 -8.66699 -102 -26c11.333 25.333 32.333 43 63 53
c-12 8 -28 12 -48 12c-13.333 0 -25 -1.33301 -35 -4c18 26 32.667 39 44 39c31.333 0 54.666 -5.33301 69.999 -16c-4 8.66699 -14.5 18.167 -31.5 28.5s-30.5 15.5 -40.5 15.5c-11.333 0 -24 -4.33301 -38 -13c13.333 36.667 28 55 44 55
c14.667 0 35.334 -7.33301 62.001 -22c-23.333 26 -37.333 55.333 -42 88c24.667 -20 47.334 -35.333 68.001 -46c-12.667 26.667 -20.667 57.334 -24 92.001c24 -54.667 61.333 -101.667 112 -141l71 -33c30 -14 45 -32 45 -54c0 -4.66699 -1.5 -11.334 -4.5 -20.001
s-4.5 -15 -4.5 -19c0 -2.66699 1 -6.16699 3 -10.5s3 -7.5 3 -9.5s-3 -4.5 -9 -7.5s-8.66699 -8.16699 -8 -15.5l-7 -6l-1 -8c-6 -10.667 -11.667 -16 -17 -16c-8 0 -21 3.66699 -39 11l-9 -20c16.667 -16 28.834 -25.833 36.501 -29.5s15.834 -5.5 24.501 -5.5
c36 -0.666992 67.667 -15.667 95 -45c4.66699 0.666992 11 1 19 1c22.667 0 34 -10.333 34 -31zM1208 336l-28 -44l-15 11l28 42zM1738 -124c-14 -10.667 -28.3311 -16 -42.998 -16c-6.66699 0 -12.334 1.33301 -17.001 4l-339 202c-34 22 -90.667 55.667 -170 101
c-4.66699 2.66699 -64.667 30 -180 82l-360 163l13 26l303 -138l-283 171l10 14l339 -201l67 116l102 -48c-20.667 -28 -31 -46 -31 -54c51.333 -46.667 77 -77 77 -91c0 -6 -2.66699 -13.333 -8 -22c0 -3.33301 34.667 -21 104 -53l331 -148
c17.333 -7.33301 34.333 -11 51 -11c12 0 22.333 1.66699 31 5c-7.33301 -24.667 -25 -37 -53 -37c-15.333 0 -51.333 13 -108 39l-253 116l370 -217c6.66699 -4 15 -6 25 -6c7.33301 0 14.666 1 21.999 3zM1373 883c-7.33301 5.33301 -62.6699 11.001 -166.003 17.001
c-5.33301 -27.333 -18.666 -54 -39.999 -80c-29.333 -35.333 -46.666 -57.833 -51.999 -67.5s-12.666 -24.5 -21.999 -44.5l86 -33c11.333 -4.66699 36.333 -16.334 75 -35.001zM329.995 835.001c-6 14.667 -12.001 22 -18.001 22
c-3.33301 0 -4.66602 -5.33301 -3.99902 -16c0 -3.33301 0.666992 -7.33301 2 -12zM336.994 799.001c0 3.33301 -1.33301 9.66699 -4 19l-20 -5c5.33301 -15.333 11.333 -23 18 -23c4 0 6 3 6 9z" />
    <glyph glyph-name="hobby" unicode="&#xe0;" 
d="M1688 1286l-20 -30l3 -21l-29 -31l42 2l-3 -26l-76 -15l-29 10c-3.33301 7.33301 -10 18.666 -20 33.999c-6 6.66699 -15 15.334 -27 26.001l37 42l47 -5l44 24zM1827 449c-19.333 -24.667 -39.9961 -47.3389 -61.9961 -68.0059
c-51.333 -49.333 -104 -85.666 -158 -108.999l-1124 -489c-46.667 -20.667 -88.667 -31 -126 -31s-66.333 9.66699 -87 29c-18.667 16.667 -26.334 34.667 -23.001 54c13.333 69.333 41 120.666 83 153.999c32 25.333 76.333 42 133 50l140 12
c59.333 7.33301 117.666 20.666 174.999 39.999l452 150l-25 50l-42 -19l-107 162c-12 18.667 -27 38.667 -45 60l-37 -18c6 -21.333 30.333 -79.333 73 -174l2 -8c0 -11.333 -9.66699 -22.666 -29 -33.999c36.667 13.333 62 14.333 76 3
c8.66699 -7.33301 15.667 -21.333 21 -42l-341 -114c2.66699 61.333 -3.33301 154 -18 278c-46 -18.667 -86.667 -28 -122 -28c-16.667 0 -30.667 2.33301 -42 7c-45.333 17.333 -65 77 -59 179h-50c22.667 42 59 119 109 231c17.333 43.333 33.666 88 48.999 134
c-22.667 30.667 -34 60.667 -34 90c0 25.333 9 47 27 65s44 35 78 51l-70 -2c6 2 19 8.66699 39 20c7.33301 4 17.333 10.333 30 19l-55 -12c9.33301 5.33301 23.666 15.333 42.999 30c10 8.66699 20 20.334 30 35.001l-36 -14c4.66699 4.66699 13 14 25 28
c9.33301 12.667 16 25 20 37c-2 22.667 -2 42 0 58c2 14.667 3.66699 26.334 5 35.001h-12l-6 -55c-40 -15.333 -71.333 -23 -94 -23c-19.333 0 -29 6.66699 -29 20c0 14 8.33301 27.333 25 40l45 28c18.667 13.333 42.667 39 72 77c21.333 28 41.666 42.333 60.999 43
c11.333 -3.33301 26 -6 44 -8c8 2 17.667 6.33301 29 13s21.333 10 30 10c3.33301 0 7 -0.333008 11 -1c17.333 -3.33301 40 -49.666 68 -138.999l-8 -6l9 -42l-7 -14l23 -40c4 -6 0 -13 -12 -21c4 -26.667 4.33301 -43 1 -49c-4 -6.66699 -12.667 -14.667 -26 -24l113 47
l-6 -54c44.667 8.66699 114.667 23 210 43c47.333 12 112 31.333 194 58c58 -33.333 85 -64.666 81 -93.999c-3.33301 -20.667 -22.666 -42.667 -57.999 -66c-34 -6 -89.667 -18 -167 -36c-34 -10 -118.667 -38 -254 -84l-39 -153c150 128.667 243.667 193 281 193
c20.667 0 53.667 -50 99 -150l90 -208c14.667 -30 38 -68 70 -114c27.333 -40 42.333 -64 45 -72c2 -7.33301 0 -17.666 -6 -30.999c15.333 8 27.666 11.667 36.999 11c18 -2 27.667 -15.333 29 -40l-291 -98c-6 38.667 -31.333 125.667 -76 261
c-9.33301 24 -33.666 72.667 -72.999 146c-19.333 -25.333 -60 -66.666 -122 -123.999l82 -101c26 -33.333 69.667 -83 131 -149l-21 -9l55 -42l346 116c36 12 65.667 28.667 89 50zM1348 284.995l-39 18l6 -31z" />
    <glyph glyph-name="golfer" unicode="&#xe2;" 
d="M1378 1350c0 -8.66699 -3.66699 -13.001 -11 -13.001c-6 0 -13.333 3.33301 -22 10l10 19c15.333 -3.33301 23 -8.66602 23 -15.999zM1257 1379l-58 11.999c-12 2.66699 -28.667 5.33398 -50 8.00098l-1 19c11.333 -0.666992 29.333 -3 54 -7l51 -10zM1329 1299
c4.66699 -115.333 -1.33301 -187 -18 -215c-8.66699 -16 -31 -23 -67 -21c5.33301 10.667 13.333 28.667 24 54zM1102 1262c-19.333 10.667 -53.332 22 -101.999 34c-8.66699 0 -18.667 -4 -30 -12c-6 39.333 -9 66.333 -9 81c1.33301 34 17.666 60.333 48.999 79
c28 16.667 61.667 25 101 25c18 0 28.667 -18.333 32 -55c2 -30.667 -0.333008 -60.5 -7 -89.5s-18 -49.833 -34 -62.5zM1352 1375c-6 -13.333 -15.668 -36.9971 -29.001 -70.9971l-59 -171c-22 -61.333 -42 -92 -60 -92c-40.667 0 -105 22 -193 66v-9
c16 -8.66699 43 -21.334 81 -38.001c14.667 -5.33301 35.667 -11.666 63 -18.999c2.66699 -14 6 -37.667 10 -71c1.33301 -25.333 1.33301 -61.333 0 -108c-7.33301 7.33301 -18 15 -32 23c-60.667 0 -114 -23 -160 -69c-29.333 -30.667 -55.666 -80.334 -78.999 -149.001
c-17.333 22.667 -26 45 -26 67c0 53.333 34.667 113.666 104 180.999c9.33301 8.66699 23.333 20 42 34l-8 6c-8 -6 -21.333 -17 -40 -33c-13.333 -11.333 -34.666 -36 -63.999 -74c-6 52 -8.66699 93 -8 123c8 210.667 43.333 316 106 316
c25.333 0 57.833 -11.333 97.5 -34s75.167 -34 106.5 -34c21.333 0 39.666 36.333 54.999 109c3.33301 16.667 5.33301 31 6 43c0 13.333 -1.66699 22.666 -5 27.999c6.66699 3.33301 17.667 6.33301 33 9c16 0.666992 35.667 -10.333 59 -33zM983 1431l-14.998 -15.999
c-48.667 4 -95.667 6 -141 6c-88.667 0 -146.334 -8.66699 -173.001 -26c-8 -5.33301 -20.667 -24.333 -38 -57c-16 -30 -27 -45 -33 -45c-20.667 0 -31.667 11.333 -33 34c-2.66699 37.333 7.33301 63.666 30 78.999c29.333 20 111.666 30 246.999 30
c48 0 100 -1.66699 156 -5zM1197 -35.998c-7.33301 -9.33301 -28.334 -14.6689 -63.001 -16.002c-20 4 -56.667 7 -110 9c-9.33301 -0.666992 -22.333 -2.66699 -39 -6c7.33301 41.333 15 109.333 23 204c1.33301 39.333 0 93.666 -4 162.999
c2.66699 16 8.33398 42 17.001 78c11.333 40.667 34 101.334 68 182.001c29.333 68.667 49.333 131.667 60 189c2.66699 14 4 33.333 4 58h-9c0 -12 -1.66699 -31.333 -5 -58c-9.33301 -55.333 -29 -116.666 -59 -183.999c-35.333 -81.333 -58.666 -142 -69.999 -182
c-30 -107.333 -59 -258.333 -87 -453c-14.667 6 -39 13.333 -73 22c-16.667 -0.666992 -44.334 -1 -83.001 -1c-52.667 2 -80 11 -82 27c-1.33301 8.66699 14 52.667 46 132c42 103.333 72.333 184.333 91 243c20.667 80.667 48 180.334 82 299.001c22 62.667 48 110 78 142
c39.333 41.333 88.666 62.666 147.999 63.999c26.667 0 40 -27 40 -81v-431c2.66699 -61.333 8.33398 -141.666 17.001 -240.999c7.33301 -86.667 11 -136.334 11 -149.001c0 -5.33301 -0.333008 -8.66602 -1 -9.99902zM1172 -129.001l-158.997 -0.000976562
c-2.66699 20 -2.33398 35.333 0.999023 46c2.66699 8.66699 8 20 16 34l110 -9l1 -21c-20.667 0.666992 -36.334 -0.166016 -47.001 -2.49902s-24.334 -7.83301 -41.001 -16.5l5 -6c13.333 6 35.666 12.333 66.999 19c20.667 1.33301 33.334 0.333008 38.001 -3
c8 -6 11 -19.667 9 -41zM891.004 -129.002h-120.999l-70 55c-0.666992 12 0 21.333 2 28c1.33301 4.66699 3.66602 11 6.99902 19c11.333 -2.66699 30.333 -5.66699 57 -9c15.333 -0.666992 36 0.333008 62 3l4 -32h-26v-6c42 3.33301 68 -3.66699 78 -21
c4.66699 -8 7 -20.333 7 -37z" />
    <glyph glyph-name="pool" unicode="&#xe4;" 
d="M1243 147c12 0 25.668 -4.99902 41.001 -14.999s24 -20.667 26 -32c52.667 5.33301 142 36.333 268 93c-4 -21.333 -6 -37 -6 -47c0 -30.667 18.667 -46 56 -46c87.333 0 164.333 31 231 93c-3.33301 -10 -5 -19.667 -5 -29c0 -35.333 26.333 -56.333 79 -63
c2.66699 -0.666992 41 -1 115 -1v-100h-2048v100l63 -1c90.667 -0.666992 184.334 30.666 281.001 93.999c-5.33301 -20.667 -8 -37 -8 -49c0 -29.333 19 -44 57 -44c85.333 0 164.666 31 237.999 93c-2.66699 -11.333 -4 -21.666 -4 -30.999c0 -41.333 35 -62 105 -62
c18 10 39 28.333 63 55c27.333 29.333 47.333 48.666 60 57.999c-38 76 -57 156 -57 240c0 38 28.667 76 86 114c12 8 57 32.667 135 74c53.333 28 89.666 42 108.999 42c34 0 51 -14.333 51 -43c0 -17.333 -12.333 -30.333 -37 -39l-58 -16
c-26.667 -10.667 -58.334 -31 -95.001 -61c-43.333 -34 -65 -61.667 -65 -83c0 -31.333 15.667 -66 47 -104c27.333 -32.667 57 -58 89 -76c-2 -7.33301 -3 -15.333 -3 -24c0 -30 10.833 -55 32.5 -75s47.834 -30 78.501 -30c9.33301 0 22.333 2.5 39 7.5s28.667 7.5 36 7.5
zM1251 393.001c59.333 0 89 -27 89 -81c0 -38.667 -18 -73.5 -54 -104.5s-73.667 -46.5 -113 -46.5c-59.333 0 -89 27 -89 81c0 38.667 18.333 74 55 106c34.667 30 72 45 112 45z" />
    <glyph glyph-name="surf" unicode="&#xe3;" 
d="M1833 295c-19.333 -5.33301 -40.332 -7.99902 -62.999 -7.99902c-81.333 0 -147 17.333 -197 52c-64 -27.333 -136.667 -54 -218 -80c-194 -61.333 -414.333 -113.333 -661 -156c-182 -32 -341.667 -49.667 -479 -53l-2 21l349 117l78 91
c64 70.667 126.333 131.667 187 183c69.333 59.333 153.333 119.666 252 180.999l-25 182c-36 -2.66699 -106 -11.334 -210 -26.001c-76 -13.333 -170 -35 -282 -65l-30 13c62 28.667 165 73 309 133c77.333 29.333 172 61 284 95v37
c-12.667 -2.66699 -26.334 -4 -41.001 -4c-8.66699 0 -15 18.667 -19 56c-4.66699 38 -3.83398 66.167 2.49902 84.5s53.833 32.833 142.5 43.5c36 4.66699 132.333 12.334 289 23.001l-176 -55l144 8c-25.333 -6 -49.333 -13.333 -72 -22
c-55.333 -20 -99.666 -43.333 -132.999 -70c-26 -20.667 -40.667 -47.334 -44 -80.001c41.333 10.667 105 25.334 191 44.001l316 49l-15 -31c-54 -16 -102.667 -32 -146 -48c-104.667 -38 -176.334 -73 -215.001 -105c-35.333 -29.333 -57.666 -97 -66.999 -203l160 13
l-69 -285l97 -17l261 63l92 -26l-106 -55zM1303 580.001c-29.333 -7.33301 -58.333 -15.333 -87 -24c-67.333 -21.333 -125.333 -45 -174 -71c-145.333 -76.667 -252 -151.667 -320 -225l25 -25l544 140z" />
    <glyph glyph-name="motorcycle" unicode="&#xe5;" 
d="M1194 816c-26 -7.33301 -58.332 -19.999 -96.999 -37.999l49 -41c-99.333 -12 -176 -16.667 -230 -14c-68.667 4 -111.334 8 -128.001 12c-46.667 12 -70 37.667 -70 77c0 37.333 35 89 105 155l105 97c0 10 -29.667 20.333 -89 31c-20 3.33301 -48.333 4 -85 2
c-3.33301 37.333 -4.66602 67 -3.99902 89c3.33301 126 58.666 190.333 165.999 193c46 2 84.333 -9.33301 115 -34c33.333 -26.667 50 -64.334 50 -113.001c0 -71.333 -31.667 -113 -95 -125l9 -12l54 24c4.66699 2 11 3 19 3c44.667 0 97 -32 157 -96
c56.667 -61.333 85 -111.333 85 -150c0 -16 -15.667 -30 -47 -42zM1847 292.001c4 -20.667 5.99512 -41.667 5.99512 -63c0 -64.667 -18.167 -119 -54.5 -163s-81.5 -66 -135.5 -66c-73.333 0 -137.666 21 -192.999 63c-49.333 37.333 -80.333 81.666 -93 132.999
c1.33301 -14 1.33301 -24 0 -30c-4.66699 -36 -78 -68.667 -220 -98c-115.333 -24 -225.333 -30.667 -330 -20c18 0.666992 27 32.667 27 96c0 45.333 -5 87.666 -15 126.999c-19.333 80.667 -59 174.667 -119 282c-33.333 4.66699 -82.666 13.334 -147.999 26.001l-99 29
c-44 12 -90 18 -138 18c-37.333 0 -64.666 -12 -81.999 -36c-6 19.333 -8.66699 34.666 -8 45.999c4.66699 102.667 69 204 193 304c49.333 39.333 107.333 73.333 174 102c60.667 26 108.667 39.333 144 40c90 3.33301 135 -3.33398 135 -20.001
c0 -1.33301 -32.667 -32.666 -98 -93.999s-98 -112.666 -98 -153.999c0 -74.667 72 -112.667 216 -114c98 -1.33301 183 4.33398 255 17.001c17.333 -16.667 34 -35.667 50 -57c38.667 -51.333 72 -108.666 100 -171.999c21.333 -48 37 -101 47 -159
c-0.666992 23.333 -3.33398 47 -8.00098 71c-10 58 -27.333 112.667 -52 164c-54 113.333 -107 184 -159 212c76.667 30.667 135.667 46 177 46c9.33301 0 17.333 -0.666992 24 -2c15.333 -4 35 -35 59 -93c22 -54 39 -109.333 51 -166l44 -278
c6.66699 -36.667 25.334 -68.334 56.001 -95.001s62.334 -40 95.001 -40c56.667 0 85 34.333 85 103c0 46.667 -15 88 -45 124c-31.333 38.667 -70 58 -116 58c-39.333 0 -64 -17.667 -74 -53c-4.66699 34.667 -13.667 91.667 -27 171c-12.667 68 -35 139.333 -67 214
c66.667 15.333 134.334 23 203.001 23c88 0 135 -19.667 141 -59c2 -13.333 0.666992 -32 -4 -56l-141 -41l125 19c18.667 2.66699 30.667 -9.33301 36 -36c4.66699 -24 -6 -38 -32 -42l-232 -34l2 -17l76 13c62.667 0.666992 118 -19.333 166 -60
c52 -44 85.667 -105 101 -183zM824.996 274.001c9.33301 -37.333 13.998 -77.999 13.998 -121.999c0 -60 -8.66699 -90 -26 -90c-15.333 0 -32.333 4.66699 -51 14c-33.333 -86.667 -97.666 -130 -192.999 -130c-79.333 0 -155.5 31.167 -228.5 93.5
s-119.833 137.5 -140.5 225.5c-7.33301 31.333 -11 61.666 -11 90.999c0 89.333 28.667 155.333 86 198l-12 21c19.333 24.667 46.666 37 81.999 37c45.333 0 89 -5.66699 131 -17l95 -28c28.667 -6.66699 75.334 -14.667 140.001 -24c16.667 -30 32 -59.333 46 -88
c32.667 -68.667 55.334 -129 68.001 -181zM975.994 1226c-20 4 -56.332 9.99902 -108.999 17.999c-28.667 4 -59.667 4.66699 -93 2c-2.66699 -14 -5.33398 -37.667 -8.00098 -71c0 -15.333 2 -36.666 6 -63.999c35.333 -2 70.833 2 106.5 12s67.5 27.333 95.5 52z
M1124 850.001c0 20.667 -6 37.832 -18 51.499s-26 20.834 -42 21.501c-34.667 0.666992 -62 -13 -82 -41l43 -3v-5c-10.667 0.666992 -31.334 2.33398 -62.001 5.00098c-7.33301 1.33301 -19 3.66602 -35 6.99902c-13.333 2.66699 -24.333 4 -33 4
c-15.333 0 -33.333 -7.16699 -54 -21.5s-31 -27.833 -31 -40.5c0 -17.333 10 -31.333 30 -42s43 -16 69 -16s46 5.33301 60 16c6 -2.66699 15 -4 27 -4c28.667 0 55.667 5.66699 81 17c30.667 13.333 46.334 30.333 47.001 51zM653.995 293.999
c-10 36 -20.668 65.332 -32.001 87.999c-24 -72 -48 -108 -72 -108c-9.33301 0 -21.666 24.667 -36.999 74c-20 64.667 -38.667 110.667 -56 138c-68 -2 -102 -45.333 -102 -130c0 -60.667 20.333 -116 61 -166c42.667 -52.667 93.667 -79 153 -79c62 0 93 40.333 93 121
c0 20.667 -2.66699 41.334 -8 62.001zM961.994 826.998c0 -14.667 -5.66699 -22 -17 -22c-10.667 0 -16 7.33301 -16 22s5.33301 22 16 22c11.333 0 17 -7.33301 17 -22z" />
    <glyph glyph-name="racecar" unicode="&#xe7;" horiz-adv-x="2500" 
d="M2245 180c0 -22.667 -4.66699 -41.332 -14 -55.999c-68.667 53.333 -153 107 -253 161c24 26 61.667 39 113 39c39.333 0 74.833 -14.333 106.5 -43s47.5 -62.334 47.5 -101.001zM1367 412.002c0 -9.33301 -3 -25.332 -9 -47.999c-45.333 26 -68 44.333 -68 55
c0 8.66699 17.667 19 53 31c16 -12.667 24 -25.334 24 -38.001zM2392 16.0029c-105.333 -17.333 -230.337 -27.332 -375.004 -29.999l-377 1h-48l15 21c-194.667 -8 -333 -12 -415 -12c-57.333 0 -143.666 3.16699 -258.999 9.5s-201.666 9.5 -258.999 9.5
c-19.333 0 -48 -2.83301 -86 -8.5s-66.333 -8.5 -85 -8.5l-207 11l22 9l-103 11l91 6c-48 28.667 -70 76.667 -66 144c-26 2.66699 -66 4.66699 -120 6l-20 297c28.667 -2 61 -3 97 -3c42.667 0 139.334 4.66699 290.001 14c31.333 -16 58.333 -41 81 -75
s33.334 -67.667 32.001 -101l86 8c110.667 80.667 233 121 367 121c21.333 0 42.666 -1 63.999 -3c22.667 64 50 96 82 96c11.333 0 17.666 -10.667 18.999 -32c0.666992 -16.667 -1 -31 -5 -43c14 23.333 34 35 60 35c43.333 0 68 -12.667 74 -38
c-45.333 -6.66699 -68 -19.334 -68 -38.001l5 -13c23.333 -25.333 55.666 -47.333 96.999 -66c-2 11.333 3.33301 17 16 17s23.334 -14 32.001 -42l81 31c12 -2 23.667 -3 35 -3c28 0 56 4 84 12c18.667 -6.66699 82.334 -18 191.001 -34
c56.667 -8.66699 127.334 -35.667 212.001 -81c82 -44 144.667 -87.333 188 -130l148 25l19 -30l-26 -69l-230 -20zM2357 83.0039l-10 7l-230 -17l-5 11l-10 9l-2 -32l20 -10zM2210 107.004c-63.333 47.333 -166.668 111.333 -310.001 192l-23 -17l-65 4
c116.667 -40.667 240.334 -108 371.001 -202zM1809.99 266.004c-20.667 26 -47.666 39 -80.999 39c-38.667 0 -67 -10.667 -85 -32c22 14.667 48 22 78 22c25.333 0 54.666 -9.66699 87.999 -29zM1870 20.0039l-7 30.999c-6.66699 -11.333 -19.667 -21.666 -39 -30.999h46z
M1791 151.003c0 26 -8.83398 47.668 -26.501 65.001s-39.5 26 -65.5 26c-27.333 0 -50.166 -9.33301 -68.499 -28s-27.5 -41.334 -27.5 -68.001c0 -62.667 30.667 -94 92 -94c64 0 96 33 96 99zM1368.99 319.004c0 8.66699 -0.666992 16.334 -2 23.001
c-67.333 32.667 -101 63.667 -101 93c0 7.33301 8.66699 14.666 26 21.999l27 10c0 10 -14.667 15 -44 15c-33.333 0 -57 -25.333 -71 -76l21 -6l5 -18l45 -25l12 12l66 -28l-7 -21zM1594.99 300.004l-15 13.001l-123 10c-14 -4.66699 -35.333 -9 -64 -13l-349 13l-33 -35
l1 -20c30.667 2.66699 62 4 94 4c91.333 0 166 -7 224 -21l7 23c27.333 19.333 69 29.666 125 30.999zM1161.99 428.005l-21 3l4 -18c0 -6 -4 -11.667 -12 -17l-85 4l-22 -27l24 -9l1 -14h16c0 -15.333 8 -23 24 -23c15.333 0 33 6 53 18zM1017.99 413.005l-68 1l-22 -60
l71 -1zM1485.99 163.005c0 14.667 -10.334 21.333 -31.001 20l1 19c-16.667 0.666992 -30.667 5 -42 13c-28.667 0 -50 -9.33301 -64 -28c-20 2 -32.333 3 -37 3c-12 0 -25.333 -3.66699 -40 -11c-15.333 10.667 -30 16 -44 16c-11.333 0 -24.666 -4.33301 -39.999 -13
l-31 13h-141l2 29h-95l-22 -12l-6 12h-45l-35 -158h271l5 13c14 -8.66699 25.667 -13 35 -13c6 0 19.667 2.33301 41 7c16 -4.66699 30 -7 42 -7c8 0 23.667 2.33301 47 7c24 -4.66699 38.333 -7 43 -7h136l19 81l5 -1c17.333 0 26 5.66699 26 17zM764.993 176.004l-3 58
l-48 4l-2 46l-68 4l-7 -45l64 -4l-26 -63h90zM751.993 45.0039l-3 54l-78 5l7 -54zM473.993 255.004c0.666992 12.667 -9 25.667 -29 39s-36.667 20 -50 20c-10.667 0 -19.667 -2.66699 -27 -8c12 -3.33301 29.667 -9.33301 53 -18c10 -10 27 -21.667 51 -35z
M396.993 330.004v96l-122 -9l47 -110c24 16 49 23.667 75 23zM457.993 163.004c0 66.667 -27 100 -81 100c-25.333 0 -47 -10 -65 -30s-27 -42.667 -27 -68s7.5 -48 22.5 -68s34.833 -30 59.5 -30c26 0 47.667 9.5 65 28.5s26 41.5 26 67.5zM221.993 330.004
c0 27.333 -12.6689 39.667 -38.002 37l-1 15l9 12c4 -1.33301 7.33301 -5 10 -11h15v9c0 21.333 -9 32 -27 32c-13.333 0 -21.666 -5.66699 -24.999 -17c-4 9.33301 -12.667 14 -26 14c-16.667 0 -25 -12.667 -25 -38l4 -15h17l-2 19l7 8l9 -8
c0 -2.66699 -9.66699 -23.667 -29 -63v-45h47l-1 17c4.66699 -12 13.334 -18 26.001 -18c20 0 30 17.333 30 52zM267.991 255.005l-3 11h-110v-47l92 -4c2 14 9 27.333 21 40zM1781.99 159.005c0 -18 -4.66699 -31.002 -14 -39.002c-19.333 8.66699 -29 15.667 -29 21
c0 12 10.333 19.667 31 23l-7 16c-20 -3.33301 -42.667 -11.666 -68 -24.999c4.66699 1.33301 8.66699 2 12 2c10.667 0 16 -6.33301 16 -19c0 -12 -6.66699 -18 -20 -18c-14 0 -20 7.33301 -18 22l-1 1c-8.66699 -7.33301 -22 -17.333 -40 -30l-18 3l8 -29
c-14.667 16.667 -22 36.334 -22 59.001c0 23.333 8.33301 43.5 25 60.5s37 25.5 61 25.5c22 0 41.5 -6.66699 58.5 -20s25.5 -31 25.5 -53zM1752.99 93.0029c0 -12 -10 -18.333 -30 -19l-5 14v12c0 9.33301 2.66699 14 8 14c18 0 27 -7 27 -21zM1690.99 97.0029
c0 -2.66699 -2.33301 -10.999 -7 -24.999c-21.333 1.33301 -32 7.66602 -32 18.999c0 12.667 8.66699 19 26 19c8.66699 0 13 -4.33301 13 -13zM445.991 167.004c0 -26.667 -6.00098 -46.668 -18.001 -60.001l-9 27l-16 -26c-10 -0.666992 -18 -1 -24 -1
c-24 0 -39.333 10.333 -46 31c-1.33301 4 -4 24.667 -8 62l-5 7l-8 -8l5 -17c-4.66699 -17.333 -2 -39 8 -65c-20.667 8.66699 -31 25.334 -31 50.001c0 18.667 8.83301 37.167 26.5 55.5s35.834 27.5 54.501 27.5c20.667 0 37.667 -8.5 51 -25.5s20 -36.167 20 -57.5z
M200.99 322.003l-8 -17l-8 17v8l8 13l8 -13v-8zM163.99 331.003h-10v-19h-18l28 51v-32zM1679.99 170.003l-29 5l16 -21zM412.99 184.003l-15 10l-7 -3l3 -21zM371.99 230.003l-13 3l-8 -1c-4.66699 -2.66699 -10.667 -7.66699 -18 -15l5 -13z" />
    <glyph glyph-name="auto" unicode="&#xe9;" 
d="M1761 628l-86 -56l-42 123h128v-67zM1701 236h-34v-51h-56v-185h-211v122c-42 0.666992 -66 21.667 -72 63h-512c-6 -41.333 -29.667 -62.333 -71 -63v-122h-211v185h-57v51h-34v72h34v186c0 66 51.667 207.333 155 424c117.333 20.667 264 31 440 31
s323 -10.333 441 -31c102.667 -216.667 154 -358 154 -424v-186h34v-72zM512 695l-42 -123l-86 56v67h128zM1633 334v132h-187v-132h187zM1597 617c-8 28 -23.002 72.666 -45.002 133.999c-14.667 34 -38 79.333 -70 136c-93.333 13.333 -230 20 -410 20
c-179.333 0 -315.666 -6.66699 -408.999 -20c-15.333 -27.333 -38.666 -72.666 -69.999 -135.999c-14 -31.333 -29.333 -76 -46 -134c160.667 7.33301 335.667 11 525 11c190 0 365 -3.66699 525 -11zM1460 193.999c0 39.333 -19.667 59 -59 59s-59 -19.667 -59 -59
s19.667 -59 59 -59s59 19.667 59 59zM1400 421.999v44h-655v-44h655zM1400 333.999v43h-655v-43h655zM1688 245.999v47h-1232v-47h234c14 15.333 31.667 23 53 23s39.333 -7.66699 54 -23h551c14 15.333 31.667 23 53 23s39.333 -7.66699 54 -23h233zM698.998 333.999v132
h-187v-132h187zM801.998 193.999c0 39.333 -19.667 59 -59 59s-59 -19.667 -59 -59s19.667 -59 59 -59s59 19.667 59 59z" />
    <glyph glyph-name="finance" unicode="&#xe8;" 
d="M1682 0h-1316v1156h1316v-1156zM1642 782v334h-388v-314l96 91l129 -111h163zM1642 642v116h-135zM1383 782l-31 27l-29 -27h60zM1642 397v163l-231 198h-113l-44 -41v-320h388zM1230 782v334h-414v-334h414zM1642 40v333h-388v-333h388zM1208 758h-392v-173l111 -92z
M1230 397v297l-301 -285l-113 94v-106h414zM792 782v334h-386v-334h386zM1230 40v333h-414v-333h414zM792 605v153h-386v-329l298 249zM792 397v126l-88 73l-238 -199h326zM792 40v333h-355l-31 -26v-307h386z" />
    <glyph glyph-name="commodities" unicode="&#xea;" 
d="M1438 1311c0 -38 -45.333 -70.5 -136 -97.5s-200 -40.5 -328 -40.5s-237.333 13.5 -328 40.5s-136 59.5 -136 97.5s45.333 70.5 136 97.5s200 40.5 328 40.5s237.333 -13.5 328 -40.5s136 -59.5 136 -97.5zM1438 891c0 -40 -45.334 -77.333 -136.001 -112
c-95.333 -36 -204.666 -54 -327.999 -54c-124 0 -233.333 18 -328 54c-90.667 34.667 -136 72 -136 112v390c0 -38 45.333 -70.5 136 -97.5s200 -40.5 328 -40.5s237.333 13.5 328 40.5s136 59.5 136 97.5v-390zM1438 454c0 -42.667 -45.333 -85.667 -136 -129
c-98.667 -47.333 -208 -71 -328 -71s-229.333 23.667 -328 71c-90.667 43.333 -136 86.333 -136 129v402c0 -39.333 45.333 -75.666 136 -108.999c94.667 -34.667 204 -52 328 -52s233.333 17.333 328 52c90.667 33.333 136 69.666 136 108.999v-402zM1438 -1
c0 -50.667 -45.335 -98 -136.002 -142c-95.333 -47.333 -204.666 -71 -327.999 -71s-232.666 23.667 -327.999 71c-90.667 44 -136 91.333 -136 142v418c0 -41.333 45.333 -82.666 136 -123.999c98 -44.667 207.333 -67 328 -67s230 22.333 328 67
c90.667 41.333 136 82.666 136 123.999v-418zM1371 1311c0 28.667 -47.333 43 -142 43s-142 -14.333 -142 -43s47.333 -43 142 -43s142 14.333 142 43z" />
    <glyph glyph-name="money" unicode="&#xeb;" 
d="M1401 1271c0 -34 -21.665 -79.998 -64.998 -137.998c-50.667 -68.667 -80 -113.667 -88 -135c-84.667 28.667 -165.334 43 -242.001 43c-48.667 0 -99 -3 -151 -9c-62.667 121.333 -94 205.666 -94 252.999c0 26 22 43.667 66 53c38 8 77 12 117 12l-16 -152l20 -4
l56 180c27.333 8 80.666 12 159.999 12c46 0 93.333 -8.66699 142 -26c63.333 -22.667 95 -52.334 95 -89.001zM1493 271.002c0 -92.667 -15.334 -173.001 -46.001 -241.001c-49.333 -108.667 -201 -163 -455 -163c-205.333 0 -352 47.333 -440 142
c-38 40.667 -57 111.334 -57 212.001c0 150 28 293.667 84 431c65.333 162 156 272 272 330c52 6 102.333 9 151 9c76.667 0 158.334 -14.667 245.001 -44c75.333 -70.667 136.333 -175 183 -313c42 -125.333 63 -246.333 63 -363zM1125 613.001
c-16 75.333 -55.001 119.662 -117.001 132.995l5 42l-44 6l-5 -44c-45.333 -1.33301 -82.333 -14.666 -111 -39.999c-30 -27.333 -45 -63.333 -45 -108c0 -56 39.667 -106 119 -150l-26 -219c-49.333 12.667 -77.666 51.334 -84.999 116.001l-78 -15
c14 -97.333 65.333 -154.333 154 -171l-8 -68l43 -6l9 70c52.667 0 96.667 15.833 132 47.5s53 73.834 53 126.501c0 64.667 -47.333 124.334 -142 179.001l20 163c31.333 -9.33301 50.333 -34.666 57 -75.999zM955 679.997l-17 -143c-32.667 22 -49 45 -49 69
c0 45.333 22 70 66 74zM1041 329.997c0 -60.667 -32.333 -94.333 -97 -101l25 200c48 -29.333 72 -62.333 72 -99z" />
    <glyph glyph-name="price" unicode="&#xed;" 
d="M1892 0h-1091l-243 154c-42.667 -54 -108 -92.333 -196 -115c65.333 -64 144.333 -105 237 -123l-5 -32c-111.333 21.333 -204 70 -278 146c-36 -9.33301 -91 -19.333 -165 -30l-1 31c36 2 85 10 147 24c-94 104 -141 219.333 -141 346c0 78 12.667 145.333 38 202
c33.333 75.333 84 113 152 113c61.333 0 116 -19.333 164 -58l291 183h1091v-841zM1864 29v782.999h-1055l-276 -174c36 -34.667 62.667 -72.334 80 -113.001c10 4 22.667 6 38 6c30 0 55.667 -10.667 77 -32s32 -46.666 32 -75.999s-10.833 -54.666 -32.5 -75.999
s-47.5 -32 -77.5 -32c-26.667 0 -51.167 11.333 -73.5 34s-33.5 47.334 -33.5 74.001c0 33.333 15 62.666 45 87.999c-18.667 42.667 -45.667 80.667 -81 114l-37 -25v-357l339 -214h1055zM527 174.999l-85.001 52.999v387l43 28c-45.333 24.667 -90.666 37 -135.999 37
c-104 0 -156 -94.333 -156 -283c0 -118 46.333 -227.667 139 -329c52.667 12 89 23 109 33c29.333 14.667 58 39.334 86 74.001z" />
    <glyph glyph-name="creditcard" unicode="&#xec;" 
d="M1858 51c0 -34 -17 -51 -51 -51h-1565c-34 0 -51 17 -51 51v1074c0 34 17 51 51 51h1565c34 0 51 -17 51 -51v-1074zM1828 1068v57c0 14 -7 21 -21 21h-1565c-14 0 -21 -7 -21 -21v-57h1607zM1828 51v843h-1607v-843c0 -14 7 -21 21 -21h1565c14 0 21 7 21 21zM1794 538
h-1545v277h1545v-277zM1359 422h-692v46h692v-46zM1289 282h-622v46h622v-46zM1109 352h-442v46h442v-46zM1359 212h-692v46h692v-46zM481 244h-217v151h217v-151zM481 62h-217v151h217v-151zM1774 558v237h-1505v-237h1505zM465 302v42h-185v-42h185zM400 85v108h-62v-108
h62zM1663 679c-32.667 -18.667 -55.168 -29.667 -67.501 -33s-36.833 -5 -73.5 -5c-22.667 0 -34 9.66699 -34 29l-71 -10l18 40c-73.333 -38.667 -152 -58 -236 -58c-24.667 0 -46.334 1.66699 -65.001 5c6.66699 -8 10 -14.667 10 -20c0 -20.667 -24.667 -31 -74 -31
s-81 13.667 -95 41c8.66699 18 41 27.333 97 28c-22 18.667 -34.667 39 -38 61c21.333 22.667 56 34 104 34c18 0 27 -11.667 27 -35l-1 -7l-22 -12c2.66699 10 3.66699 17.333 3 22l-1 11c-10 3.33301 -15.333 5 -16 5c-22.667 0 -47.667 -5.66699 -75 -17
c-1.33301 -16.667 19 -37.667 61 -63c6.66699 -0.666992 13.667 -1.66699 21 -3c13.333 -1.33301 28.333 -2 45 -2c94.667 0 196.334 31.333 305.001 94l-32 -79l54 14v-30l25 -1c38.667 -1.33301 82.334 6 131.001 22zM966.999 676l-31.998 -19.002l-96 -4
c-20.667 -2.66699 -30.667 0.333008 -30 9c-40 -17.333 -87.333 -26 -142 -26c-13.333 0 -22 7.33301 -26 22l33 27c-26 -6.66699 -70.333 -17 -133 -31l28 -8l-22 -13l-29 8c-34 -43.333 -77.333 -65 -130 -65c-10 0 -21 3.33301 -33 10l5 17c38 32 75 49 111 51
c-17.333 5.33301 -30 10 -38 14c-13.333 7.33301 -22 17 -26 29c0 17.333 6.66699 33.833 20 49.5s28.666 23.5 45.999 23.5c14.667 0 33 -4 55 -12c26 -9.33301 39 -20 39 -32c0 -9.33301 -10.333 -29 -31 -59c36.667 6.66699 90.667 19.334 162 38.001l-38 -46
c28 -3.33301 70.667 4.33398 128 23.001c52 16.667 92 34 120 52l13 -11c-22.667 -10.667 -53.334 -28.334 -92.001 -53.001c13.333 -1.33301 36.333 -0.666016 69 2.00098c38 2.66699 61 4 69 4zM1113 623.998c2 9.33301 -3.66602 18.333 -16.999 27
c-49.333 0.666992 -83 -1.33301 -101 -6c-0.666992 -9.33301 9.66602 -17.333 30.999 -24c18 -6 32.667 -9 44 -9c6 0 20.333 4 43 12zM550.002 726.998c-18 18.667 -51.334 26.999 -100.001 24.999c-18 -15.333 -26 -34.333 -24 -57c10 -10 38.667 -21.333 86 -34l3 1
c10.667 14.667 22.334 36.334 35.001 65.001zM502.001 644.997l-71 -12c-25.333 -6 -45.333 -18.667 -60 -38c4.66699 -2 12 -3 22 -3c28.667 0 49.5 3 62.5 9s28.5 20.667 46.5 44z" />
    <glyph glyph-name="ratingfamily" unicode="&#xee;" 
d="M1730 950c0 -24.667 -7.33301 -45.667 -22 -63s-32.334 -26 -53.001 -26s-38.167 8.66699 -52.5 26s-21.5 38.333 -21.5 63s7.16699 45.667 21.5 63s31.833 26 52.5 26s38.334 -8.66699 53.001 -26s22 -38.333 22 -63zM1311 1172c0 -30.667 -9 -57 -27 -79
s-40 -33 -66 -33c-25.333 0 -47.166 11 -65.499 33s-27.5 48.333 -27.5 79s9.16699 56.834 27.5 78.501s40.166 32.5 65.499 32.5c26 0 48 -10.833 66 -32.5s27 -47.834 27 -78.501zM824 1201c0 -31.333 -9.16797 -59.333 -27.501 -84s-40.166 -37 -65.499 -37
s-47.166 12.333 -65.499 37s-27.5 52.667 -27.5 84c0 30.667 9 57 27 79s40 33 66 33c25.333 0 47.166 -11 65.499 -33s27.5 -48.333 27.5 -79zM1901 670c5.33301 -8 8.00195 -16.334 8.00195 -25.001c0 -14.667 -9.33301 -35 -28 -61l-82 -114l-27 71l68 99l-77 102v-205
l31 -91l-13 -20v-107h-15v-330c0 -30 -14.333 -45 -43 -45c-28 0 -42 15 -42 45v330h-14v107h-22v-107h-15v-330c0 -30 -14 -45 -42 -45c-28.667 0 -43 15 -43 45v330h-23l27 218v205l-42 -208c-3.33301 -19.333 -16 -28.666 -38 -27.999c-22 0 -36.333 18.333 -43 55
l-67 370h-20v-265l107 -278h-107v-388c0 -37.333 -18 -56 -54 -56c-34.667 0 -52 18.667 -52 56v388h-28v-388c0 -37.333 -17.333 -56 -52 -56c-35.333 0 -53 18.667 -53 56v388h-110l110 278v265h-21l-53 -372c-4.66699 -35.333 -21.334 -53 -50.001 -53
c-28 0 -45 19 -51 57l-53 344h-21v-907c0 -37.333 -17.667 -56 -53 -56s-53 18.667 -53 56v537h-27v-537c0 -37.333 -17.667 -56 -53 -56s-53 18.667 -53 56v907h-20l-35 -346c-4 -37.333 -18.333 -56 -43 -56c-20 0 -34 15 -42 45l-47 171h-10v-200l86 -222h-86v-310
c0 -30 -14 -45 -42 -45s-42 15 -42 45v310h-22v-310c0 -30 -14.333 -45 -43 -45c-28 0 -42 15 -42 45v310h-87l87 222v200h-16v-171c0 -29.333 -11.333 -44 -34 -44c-23.333 0 -35 14.667 -35 44v171c0 72 39 108 117 108h129c64 0 101.333 -36.333 112 -109l9 -59v302
c0 70 39 105 117 105h218c66 0 102.333 -35 109 -105l28 -302l14 270c4.66699 79.333 43.667 119 117 119h218c70 0 109 -39.667 117 -119l27 -270l28 154c4.66699 24.667 22 37 52 37h209c19.333 0 36.666 -12.333 51.999 -37zM483.001 868.999l-21 3v17l21 4v-24z
M467.001 913.999l-13 -25v-17l12 -24h-35l11 24v17l-12 25h37zM436.001 871.999c-24.667 0 -40.333 7.33301 -47 22c-10.667 -38 -34 -57 -70 -57s-59 19 -69 57c-7.33301 -14.667 -23.333 -22 -48 -22v17c28.667 1.33301 43 16.333 43 45c0 20 7.33301 38.667 22 56
s32 26 52 26s37.333 -8.66699 52 -26s22 -36 22 -56c0 -28.667 14.333 -43.667 43 -45v-17zM209.002 913.999l-13 -25v-17l12 -24h-36l12 24v17l-13 25h38zM176.002 871.999l-21 -3v24l21 -4v-17z" />
    <glyph glyph-name="ratingviolence" unicode="&#xef;" 
d="M790 1395c4 -11.333 6 -23 6 -35c0 -52 -24.667 -86.333 -74 -103c-11.333 -4 -23 -6 -35 -6c-52 0 -86.667 24.667 -104 74c-3.33301 11.333 -5 23 -5 35c0 51.333 24.333 85.333 73 102c12 4 24 6 36 6c52 0 86.333 -24.333 103 -73zM839 1407
c6 -17.333 9.00098 -35.333 9.00098 -54c0 -44 -15.667 -82 -47 -114c-14.667 12 -32 17.667 -52 17c40.667 23.333 61 58.333 61 105c0 13.333 -2 26.333 -6 39c-19.333 55.333 -58.333 83 -117 83c-14 0 -27.333 -2.33301 -40 -7c-56 -19.333 -84 -58 -84 -116
c0 -14 2 -27.333 6 -40c20.667 -60.667 63 -88 127 -82c-22.667 -14 -34.334 -30.333 -35.001 -49c-66 6.66699 -110.667 43.667 -134 111c-6 17.333 -9 35.333 -9 54c0 78 37 129.667 111 155c20 7.33301 39.667 11 59 11c74.667 0 125 -37.667 151 -113zM1266 926
c5.33301 -24 3.66602 -38.6719 -5.00098 -44.0049c-16 3.33301 -36 4.33301 -60 3c-16.667 -15.333 -46 -34.666 -88 -57.999l-446 -154c-15.333 -5.33301 -36 -8 -62 -8h-43c-4.66699 -0.666992 -12.334 -7.16699 -23.001 -19.5s-18.334 -18.833 -23.001 -19.5
c-6 -1.33301 -13.667 2.33398 -23 11.001c-8.66699 6.66699 -13.667 12.667 -15 18c-2 6 3 16.333 15 31c15.333 18.667 36.333 33.334 63 44.001c14.667 6 29 9 43 9c22 0 40.667 -6.66699 56 -20l176 74c0 4 -4 8.33301 -12 13c-10 5.33301 -15.667 9 -17 11l-17 -6
c-43.333 87.333 -70.333 146.333 -81 177c-16 42.667 -29 99.667 -39 171c5.33301 26.667 11.333 44.334 18 53.001c5.33301 6 18 13.667 38 23c34 10 65 1.66699 93 -25c48 -74.667 77 -129 87 -163l33 -185l-14 -4c0 -3.33301 -1.83301 -8.83301 -5.5 -16.5
s-5.5 -13.167 -5.5 -16.5c0 -4 2.33301 -6.66699 7 -8c20.667 -5.33301 80.334 12.334 179.001 53.001c2 10 5.66699 19.333 11 28c12.667 20 32.334 34 59.001 42c16 4.66699 31 7 45 7c32.667 0 51.334 -7 56.001 -21zM1324 -132.005
c-8 -58.667 -26.001 -124.333 -54.001 -197c-38.667 26 -88.667 67.333 -150 124c-44.667 58 -153.667 328 -327 810c8 4 18.333 15 31 33c6 18 2.66699 41.333 -10 70l170 62c8 -21.333 21.667 -43 41 -65c11.333 -2 30.333 -2.33301 57 -1
c168.667 -504 249.334 -782.667 242.001 -836zM1251 -285.004l-308.999 886.001h-53l-29 -40l288 -721c9.33301 -8.66699 43.666 -50.334 102.999 -125.001z" />
    <glyph glyph-name="ratingsex" unicode="&#xf1;" 
d="M1800 706c-59.333 -100.667 -126.001 -186.667 -200.001 -258c-178 -172 -378.333 -258 -601 -258c-197.333 0 -382.333 88 -555 264c-72 73.333 -138.333 161.333 -199 264c66.667 0 135 22.333 205 67l165 126c59.333 44.667 109.666 67 150.999 67
c44.667 0 90.334 -7.66699 137.001 -23l96 -39c88.667 38.667 169.334 58 242.001 58c56 0 143.5 -44.667 262.5 -134s217.833 -134 296.5 -134zM1535 673c-90.667 -2 -217.668 -6.66699 -381.001 -14c-23.333 -2 -52.333 -7.33301 -87 -16
c-30.667 -7.33301 -53.334 -11 -68.001 -11c-13.333 0 -34.666 5 -63.999 15c-32.667 10.667 -63 17 -91 19c-90 8 -205.333 10.333 -346 7l205 -112c111.333 -54.667 210 -82 296 -82c136.667 0 315.334 64.667 536.001 194z" />
    <glyph glyph-name="ratinglanguage" unicode="&#xf3;" 
d="M1842 1109l-311 -295l-21 19l275 327zM1872 688l-316 20v33l316 38v-91zM1842 358l-57 -51l-275 327l21 18zM1466 433c0 -56.667 -84.0029 -104.331 -252.003 -142.998c-19.333 -4.66699 -31.333 -17.667 -36 -39c-1.33301 -6.66699 -2 -27.334 -2 -62.001
c0 -25.333 5.33301 -58.833 16 -100.5s16 -71.167 16 -88.5h-684c0 21.333 0.666992 52 2 92c1.33301 44 2 75.333 2 94c0 138.667 -39.667 237.667 -119 297c-87.333 65.333 -148.666 138.333 -183.999 219c-33.333 76 -50 175.333 -50 298c0 128.667 65.667 243 197 343
c122 93.333 249.333 140 382 140h39c220 0 347.333 -46.667 382 -140c8.66699 -36.667 19.667 -77 33 -121c12.667 -16.667 19.334 -26.167 20.001 -28.5s1 -13.833 1 -34.5c0 -44.667 11.333 -76.667 34 -96c10.667 -9.33301 38 -22 82 -38c42 -14.667 75 -34 99 -58
c4.66699 -4.66699 7 -9.66699 7 -15c0 -10 -17.833 -26.667 -53.5 -50s-53.5 -45 -53.5 -65c0 -15.333 6 -27 18 -35c14 -10.667 21.333 -16.667 22 -18c-18 -13.333 -43.333 -36 -76 -68c-16 -18.667 -34 -42 -54 -70c56.667 -18 114.334 -27 173.001 -27
c6 0 9 -4.33301 9 -13c0 -16 -4.66699 -32.833 -14 -50.5s-14 -28.834 -14 -33.501c0 -10 9.66699 -22.333 29 -37s29 -32 29 -52z" />
    <glyph glyph-name="ratingquality" unicode="&#xf2;" 
d="M1837 953l-502 -364l192 -591l-502 365l-503 -365l192 591l-501 364h620l192 591l191 -591h621zM1674 902h-460l-191 -179zM1023 722v686l-139 -455zM1406 162l-143 431l-240 126zM1023 722l-674 189l399 -293zM1023 422v297l-368 -552z" />
    <glyph glyph-name="email" unicode="&#xf4;" 
d="M1856 -133l-588 579l588 627v-1206zM1856 1141l-616.001 -641c-67.333 -76 -139.666 -114 -216.999 -114s-149 38 -215 114l-110 116l196 143l113 -329l696 964l-645 -569l-145 282l-298 -404l-423 438h1190l423 369l-244 -369h295zM1856 -205h-1664l628 610
c63.333 -43.333 131 -65 203 -65s140.333 21.667 205 65zM779.999 446l-588 -579v1206l389 -413l-345 -462l418 380z" />
    <glyph glyph-name="send" unicode="&#xf6;" 
d="M284 187h200l-25 -93h-200l-71 -265h1460l343 1283h-1459l-53 -198h185l-25 -93h-185l-40 -149h180l-25 -94h-180l-40 -149h195l-25 -93h-195zM27 187h215l40 149h-280l25 93h280l40 149h-345l25 94h345l40 149h-410l25 93h410l62 232h1543l-362 -1350h-1543l80 298h-215
zM1807 752h-349l75 280h349zM1338 303h-585l20 75h585zM1293 135h-482l20 75h482zM1383 470h-704l20 75h704z" />
    <glyph glyph-name="mail" unicode="&#xf5;" 
d="M1854 -204h-1663v1350h1663v-1350zM1813 -171v1283h-1581v-1283h1581zM1725 752h-349v280h349v-280zM1376 470h-825v75h825v-75zM1376 303h-706v75h706v-75zM1376 135h-603v75h603v-75z" />
    <glyph glyph-name="write" unicode="&#xfa;" 
d="M1909 1284l-210.999 -137.999h159v-1350h-1663v1350h839c182 81.333 311 135 387 161c71.333 23.333 210.666 66.666 417.999 129.999zM1864 1323l-31 59l-554 -252l31 -68zM1816 -169.999v1282h-173l-132 -80h217v-280h-348v208c-86.667 -46 -185 -94.667 -295 -146
l-137 298h-713v-1282h1581zM1058 801.001c-34 -16.667 -122.333 -50.334 -265 -101.001c-70 -22 -164 -44.333 -282 -67l-71 152c44 36.667 121.333 94.334 232 173.001c89.333 57.333 172.333 103.333 249 138zM1379 471.001h-825v74h825v-74zM1379 303.001h-706v75h706
v-75zM1379 135.001h-603v75h603v-75zM490.001 645.001l-103 -48c-6 4 -16.333 9 -31 15c-16.667 4.66699 -41 1.66699 -73 -9l-4 8l143 67l-4 10l-143 -67l-4 9c14 8 31.667 24.667 53 50c4 7.33301 7 18.333 9 33l103 48z" />
    <glyph glyph-name="textdoc" unicode="&#xf9;" 
d="M1636 -191h-1249v1620h968l281 -298v-1322zM1600 -150v1281h-245v268h-931v-1549h1176zM1261 1083h-716v77h716v-77zM1501 879h-956v77h956v-77zM921 675h-376v77h376v-77zM1501 471h-956v77h956v-77zM1501 267h-956v77h956v-77zM1501 63h-956v77h956v-77z" />
    <glyph glyph-name="textgraphicdoc" unicode="&#xfb;" 
d="M1636 -191h-1249v1620h968l281 -298v-1322zM1600 -150v1281h-245v268h-931v-1549h1176zM1289 673h-598v670h598v-670zM1501 444h-956v77h956v-77zM1501 217h-956v77h956v-77zM1501 -10h-956v77h956v-77zM1257 715v590h-530v-590h530zM1245 1076h-131
c-1.33301 9.33301 -2 20 -2 32c0 41.333 10.667 62 32 62c28 0 42.667 -10.333 44 -31c0 28 19 48.333 57 61v-124zM1237 758c0 -8.66699 -0.333984 -16.667 -1.00098 -24h-482c17.333 37.333 44.333 83.333 81 138c-6.66699 24 -10 49 -10 75c0 48 19 93.667 57 137
c-4.66699 22.667 -7 49 -7 79c0 28.667 8.83301 53.167 26.5 73.5s40.834 30.5 69.501 30.5c47.333 0 84.333 -51.667 111 -155c8 -31.333 26.333 -47.333 55 -48c13.333 -16.667 30.333 -42.667 51 -78c6 -13.333 15.667 -51.333 29 -114s20 -100.667 20 -114z
M860.999 1076l-121.001 0.000976562v108c6 8 14 12 24 12c11.333 0 20.333 -4.33301 27 -13s8.33398 -18.334 5.00098 -29.001c10 12.667 20 19 30 19c20 0 31.667 -32.333 35 -97zM1059 1013c-40 42 -60.001 76 -60.001 102c0 6 1.33301 15 4 27s4 21.333 4 28
c0 12.667 -3.66699 25.667 -11 39c-9.33301 14.667 -19.666 22 -30.999 22c-12.667 0 -25 -1.33301 -37 -4c-13.333 -24 -20 -45.333 -20 -64c0 -9.33301 3.33301 -21 10 -35s13.667 -21.667 21 -23c6.66699 -8.66699 11.667 -13 15 -13l-2 -27h-3
c-30 0.666992 -53.333 -25 -70 -77l125 -26c12.667 25.333 31 42.333 55 51zM1070 802.001c0 14.667 -15.333 29.333 -46 44l-66 26c-24 -5.33301 -36 -13 -36 -23c0 -8 5 -18 15 -30h20c3.33301 -23.333 22 -36.333 56 -39l-9 11l10 3l10 -14l13 3l-12 16l8 3l15 -16l14 5
l-22 20l4 3c7.33301 -4.66699 16 -9.66699 26 -15v3zM975.997 781l-23 22l-37 -12v-27l22 -17zM994.997 1191c-6.66699 -8.66699 -16.001 -14 -28.001 -16c-3.33301 -4 -5.66602 -9.66699 -6.99902 -17c-1.33301 12.667 -2 19.667 -2 21c0 6 3 9 9 9
c2 0 5.33301 -0.333008 10 -1s8 -1 10 -1c0.666992 0 2 0.333008 4 1zM941.996 1175c-2 0 -11.333 -2 -28 -6v11c3.33301 2 7.33301 3 12 3c4 0 9.33301 -2.66699 16 -8zM965.996 1138c-2.66699 -4 -6.66797 -6 -12.001 -6c-7.33301 0 -11.666 3 -12.999 9
c2 -2 5 -3.66699 9 -5c2.66699 1.33301 5.66699 3 9 5zM980.995 1132c-2.66699 -4.66699 -10.333 -9.66699 -23 -15c-2.66699 0 -8 1 -16 3c6.66699 0 19.667 4 39 12zM970.996 1179c-2.66699 0.666992 -3.66699 2.66699 -3 6l-6 -8zM924.996 1173l-3 7l-5 -7h8z" />
    <glyph glyph-name="graphicdoc" unicode="&#xfc;" 
d="M1636 -191h-1249v1620h1029l220 -231v-1389zM1626 1169l-229 243l1 -243h228zM1540 -69v1179h-1061v-1179h1061zM1516 651l-263 0.000976562c-2.66699 19.333 -4 40.666 -4 63.999c0 83.333 21.333 125 64 125c55.333 0 85 -20.667 89 -62
c-1.33301 56 36.667 96.667 114 122v-249zM1499 15.001c0 -16.667 -0.666992 -32.332 -2 -46.999h-963l73 147c34.667 65.333 64 108.666 88 129.999c-13.333 46.667 -20 96.667 -20 150c0 95.333 38 186 114 272c-9.33301 46.667 -14 99.334 -14 158.001
c0 58 17.833 107.5 53.5 148.5s81.834 61.5 138.501 61.5c95.333 0 169.666 -103.333 222.999 -310c16 -62.667 52.333 -95.334 109 -98.001c26.667 -33.333 61 -85 103 -155c11.333 -27.333 30.333 -103.333 57 -228s40 -201 40 -229zM746 651.003h-240v218
c11.333 16 27.333 24 48 24c44 0 66 -22 66 -66c0 -6.66699 -0.666992 -12.667 -2 -18c19.333 24.667 39.333 37 60 37c40 0 62.667 -65 68 -195zM1144 527.003c-80.667 83.333 -121 151 -121 203c0 12 2.83301 30.167 8.5 54.5s8.5 42.833 8.5 55.5
c0 25.333 -7.66699 51 -23 77c-18 30 -38.667 45 -62 45c-24.667 0 -49.667 -2.66699 -75 -8c-25.333 -47.333 -38 -90 -38 -128c0 -18.667 6 -41 18 -67c14 -29.333 28.667 -46 44 -50l10 -17.5c3.33301 -5.66699 10 -7.83398 20 -6.50098l-5 -55h-5
c-31.333 1.33301 -61.333 -17 -90 -55c-22 -29.333 -39 -62.666 -51 -99.999l249 -51c26 50.667 63.333 85 112 103zM1166 104.003c0 29.333 -30.666 58.666 -91.999 87.999l-132 53c-49.333 -12 -74 -27.667 -74 -47c0 -16 10.333 -35.667 31 -59h40
c3.33301 -21.333 17.666 -39.666 42.999 -54.999c22.667 -14 45.667 -22 69 -24l-17 22l18 7l22 -29l26 7l-25 32l16 5l29 -31l28 9l-43 40l9 7c13.333 -10 30.333 -20.333 51 -31zM978.001 63.0029l-46 43l-75 -23v-55l43 -34zM1015 883.003
c-12.667 -18 -31.667 -29.332 -57 -33.999c-6 -6.66699 -10.333 -17.334 -13 -32.001c-2.66699 25.333 -4 39 -4 41c0 12.667 6 19 18 19c4 0 10.5 -0.833008 19.5 -2.5s15.833 -2.5 20.5 -2.5l8 2zM910.001 850.004c-4 -0.666992 -22.999 -4.66699 -56.999 -12v22
c7.33301 4.66699 15.666 7 24.999 7c8 0 18.667 -5.66699 32 -17zM957.002 775.004c-4.66699 -7.33301 -12.667 -11 -24 -11c-14.667 0 -23 5.66699 -25 17c4 -2.66699 10 -5.66699 18 -9l17 10zM986.002 765.004c-6.66699 -17.333 -21.002 -27.334 -43.002 -30.001l-3 -1
c-4 0 -14 1.66699 -30 5c22.667 2.66699 36.334 4.83398 41.001 6.50098s16.334 8.16699 35.001 19.5zM967 857.003c-6 2.66699 -8 7 -6 13l-11 -16zM876 847.003l-6 14l-10 -16z" />
    <glyph glyph-name="investigate" unicode="&#x2020;" 
d="M1807 0h-1565c46 142.667 117.667 242.667 215 300c92.667 55.333 181 86.666 265 93.999l-177 328l291 -104c-44 70.667 -66 130 -66 178v42h-207l207 115l77 347l178 -63l178 63l73 -347l211 -115h-211v-31c0 -72 -20.667 -135 -62 -189l290 104l-176 -328
c83.333 -7.33301 171.666 -38.666 264.999 -93.999c96.667 -57.333 168 -157.333 214 -300zM951.001 618h-64l-100 -124l43 -27z" />
    <glyph glyph-name="clock" unicode="&#xb0;" 
d="M1915 0h-1782v246c69.333 6 131.333 24 186 54c131.333 71.333 216 196 254 374c20.667 96 71.334 177 152.001 243c85.333 70.667 185 106 299 106s213.667 -35.333 299 -106c80 -66 130.333 -147 151 -243c38.667 -178 123.667 -302.667 255 -374
c54.667 -30 116.667 -48 186 -54v-246zM1346 605c0 86.667 -31.5 160.5 -94.5 221.5s-138.833 91.5 -227.5 91.5s-164.334 -30.5 -227.001 -91.5s-94 -134.833 -94 -221.5s31.333 -160.667 94 -222s138.334 -92 227.001 -92s164.5 30.667 227.5 92s94.5 135.333 94.5 222z
M1332 593h-130v26h130v-26zM1036 774h-26v130h26v-130zM1246 798l-45 -59l-7 7l-135 -124l-12 12l139 119l-9 8zM1008 637l-19 -16l-56 79l-12 -8l-29 71l69 -43l-14 -11zM1055 605c0 -20.667 -10.333 -31 -31 -31s-31 10.333 -31 31c0 20 10.333 30 31 30s31 -10 31 -30z
M1036 303h-26v130h26v-130zM846.999 593h-130v26h130v-26z" />
    <glyph glyph-name="frames" unicode="&#xa2;" 
d="M1823 -222l-153.998 0.000976562c-20.667 25.333 -60.334 45 -119.001 59c-46.667 12 -92.667 18 -138 18c-110.667 0 -206.334 -25.667 -287.001 -77h-203c-80.667 51.333 -176.667 77 -288 77c-45.333 0 -91.333 -6 -138 -18c-58.667 -14 -98.334 -33.667 -119.001 -59
h-154v188c58.667 50.667 88 139.334 88 266.001c0 75.333 -4.66699 129.666 -14 162.999c-8.66699 31.333 -33.334 82 -74.001 152v123c58.667 104.667 88 209.667 88 315c0 126.667 -29.333 215.334 -88 266.001v188h154c20.667 -25.333 60.334 -45.333 119.001 -60
c46.667 -11.333 92.667 -17 138 -17c111.333 0 207.333 25.667 288 77h203c80.667 -51.333 176.334 -77 287.001 -77c45.333 0 91.333 5.66699 138 17c58.667 14.667 98.334 34.667 119.001 60h154v-188c-58.667 -50.667 -88 -139.334 -88 -266.001
c0 -76 4.5 -130 13.5 -162s33.833 -83 74.5 -153v-125c-40.667 -70 -65.334 -120.333 -74.001 -151c-9.33301 -32.667 -14 -86.667 -14 -162c0 -126.667 29.333 -215.334 88 -266.001v-188zM1564 1208h-447v-784h447v784zM1092 696.001v512h-590v-512h590zM1564 29.001v370
h-447v-370h447zM1092 29.001v642h-283v-642h283zM784.002 29.001v642h-282v-642h282z" />
    <glyph glyph-name="noframes" unicode="&#xa3;" 
d="M1823 -222l-153.998 0.000976562c-20.667 25.333 -60.334 45 -119.001 59c-46.667 12 -92.667 18 -138 18c-110.667 0 -206.334 -25.667 -287.001 -77h-203c-80.667 51.333 -176.667 77 -288 77c-45.333 0 -91.333 -6 -138 -18c-58.667 -14 -98.334 -33.667 -119.001 -59
h-154v188c58.667 50.667 88 139.334 88 266.001c0 75.333 -4.66699 129.666 -14 162.999c-8.66699 31.333 -33.334 82 -74.001 152v123c58.667 104.667 88 209.667 88 315c0 126.667 -29.333 215.334 -88 266.001v188h154c20.667 -25.333 60.334 -45.333 119.001 -60
c46.667 -11.333 92.667 -17 138 -17c111.333 0 207.333 25.667 288 77h203c80.667 -51.333 176.334 -77 287.001 -77c45.333 0 91.333 5.66699 138 17c58.667 14.667 98.334 34.667 119.001 60h154v-188c-58.667 -50.667 -88 -139.334 -88 -266.001
c0 -76 4.5 -130 13.5 -162s33.833 -83 74.5 -153v-125c-40.667 -70 -65.334 -120.333 -74.001 -151c-9.33301 -32.667 -14 -86.667 -14 -162c0 -126.667 29.333 -215.334 88 -266.001v-188zM1564 29.001v1179h-1062v-1179h1062zM1426 200.001l-68 -58l-333 396l-332 -396
l-69 58l342 408l-342 408l69 58l332 -396l333 396l68 -58l-342 -408z" />
    <glyph glyph-name="clipboard" unicode="&#xa7;" 
d="M1491 1023l-47 -105.999l-592 75l53 96l111 -10c46 90.667 82.333 152.667 109 186c53.333 66 113.333 98.333 180 97c34.667 -0.666992 62.667 -10.834 84 -30.501s32 -44.5 32 -74.5c0 -16 -3.33301 -32.667 -10 -50l-69 -166zM1873 772.001l-639 -939.999l-1044 292
l-18 49l646 1008l234 -18l-10 -18l-207 20l-605 -983l961 -243l473 1143l-259 26l-43 -52l28 70l47 -3c8 14 10.333 24.667 7 32c-3.33301 8.66699 -15 13.667 -35 15l9 23c10 -0.666992 19 -2.33398 27 -5.00098c19.333 -6 30.666 -16 33.999 -30
c2.66699 -10.667 0.333984 -24 -6.99902 -40l227 -21l9 -34l-101 -264zM1355 1206c6.66699 17.333 10 34 10 50c0 42 -24.333 63 -73 63c-63.333 0 -112 -32.333 -146 -97zM1442 963.002l-558 61l-6 -11l557 -66z" />
    <glyph glyph-name="note" unicode="&#x2022;" 
d="M1726 -230h-1316v80h-84v1530h214c2 28.667 10.667 52.667 26 72s33.333 29 54 29c47.333 0 73.666 -33.667 78.999 -101h188c2 28.667 10.667 52.667 26 72s33.333 29 54 29c47.333 0 73.666 -33.667 78.999 -101h197c2 28.667 10.667 52.667 26 72s33.333 29 54 29
c47.333 0 73.666 -33.667 78.999 -101h240v-80h84v-1530zM1686 -190v1450h-44v-1410h-1192v-40h1236zM1602 -110v1450h-278c2 -15.333 8.16699 -27 18.5 -35s15.5 -15.333 15.5 -22c0 -20 -11.667 -30 -35 -30c-42.667 0 -69 29 -79 87h-276c2 -15.333 8.16699 -27 18.5 -35
s15.5 -15.333 15.5 -22c0 -20 -11.667 -30 -35 -30c-42.667 0 -69 29 -79 87h-267c2 -15.333 8.16699 -27 18.5 -35s15.5 -15.333 15.5 -22c0 -20 -11.667 -30 -35 -30c-42.667 0 -69 29 -79 87h-175v-1450h1236z" />
    <glyph glyph-name="calender" unicode="&#xb6;" 
d="M1726 -230h-1316v80h-84v1530h214c2 28.667 10.667 52.667 26 72s33.333 29 54 29c47.333 0 73.666 -33.667 78.999 -101h188c2 28.667 10.667 52.667 26 72s33.333 29 54 29c47.333 0 73.666 -33.667 78.999 -101h197c2 28.667 10.667 52.667 26 72s33.333 29 54 29
c47.333 0 73.666 -33.667 78.999 -101h240v-80h84v-1530zM1686 -190v1450h-44v-1410h-1192v-40h1236zM1602 -110v1450h-278c2 -15.333 8.16699 -27 18.5 -35s15.5 -15.333 15.5 -22c0 -20 -11.667 -30 -35 -30c-42.667 0 -69 29 -79 87h-276c2 -15.333 8.16699 -27 18.5 -35
s15.5 -15.333 15.5 -22c0 -20 -11.667 -30 -35 -30c-42.667 0 -69 29 -79 87h-267c2 -15.333 8.16699 -27 18.5 -35s15.5 -15.333 15.5 -22c0 -20 -11.667 -30 -35 -30c-42.667 0 -69 29 -79 87h-175v-1450h1236zM1236 190h-524v126h184v491l-144 -83l-64 108l240 140h124
v-656h184v-126z" />
    <glyph glyph-name="book" unicode="&#xdf;" 
d="M1899 0h-707.001c-57.333 -20.667 -113.333 -31 -168 -31s-111 10.333 -169 31h-706v43l55 77v337l256 235c40 -9.33301 82.333 -14 127 -14c29.333 0 69.333 9.83301 120 29.5s100 29.5 148 29.5c82 0 138.333 -31 169 -93c29.333 62 85.333 93 168 93
c48 0 97.333 -9.83301 148 -29.5s90.667 -29.5 120 -29.5c44.667 0 87.334 4.66699 128.001 14l255 -235v-337l56 -77v-43zM1806 454l-231 218c-32.667 -6.66699 -70 -10 -112 -10c-41.333 0 -86.333 9.66699 -135 29s-94 29 -136 29c-74.667 0 -127 -26.667 -157 -80
l9 -216c32.667 51.333 87 77 163 77c64.667 0 133.167 -12 205.5 -36s130.833 -36 175.5 -36c60 0 132.667 8.33301 218 25zM1806 94v336c-33.333 -6.66699 -105.333 -14 -216 -22c-46 -0.666992 -106.167 10.666 -180.5 33.999s-141.833 35 -202.5 35
c-82.667 0 -143.667 -36.667 -183 -110c-39.333 73.333 -100.333 110 -183 110c-60.667 0 -128.167 -11.667 -202.5 -35s-134.5 -34.666 -180.5 -33.999c-72.667 0.666992 -145 8 -217 22v-336h630c32.667 45.333 83.667 68 153 68s120 -22.667 152 -68h630zM1013 640
c-30.667 53.333 -83.334 80 -158.001 80c-42 0 -87.167 -9.66699 -135.5 -29s-93.166 -29 -134.499 -29c-42 0 -79.333 3.33301 -112 10l-232 -218c86 -16.667 159 -25 219 -25c44.667 0 103.167 12 175.5 36s140.833 36 205.5 36c76 0 130.333 -25.667 163 -77z" />
    <glyph glyph-name="reference" unicode="&#xae;" 
d="M1866 836c0 -42.667 -8.33496 -88.002 -25.002 -136.002c-18 -51.333 -38.667 -85 -62 -101l56 -16v-64l-46 -15c-5.33301 -19.333 -11 -51.666 -17 -96.999c-0.666992 -48 5 -94.333 17 -139l46 -21v-61l-904 -458l-584 501c-66 56.667 -97.333 148.667 -94 276
c0.666992 40 9.33398 69 26.001 87c8.66699 10 29 22.667 61 38c23.333 11.333 95 28 215 50l-156 73v50l60 16c12.667 48 19 96.667 19 146c0 11.333 -1 27.333 -3 48l-293 63v50l38 5c14 36.667 21 80.334 21 131.001c0 51.333 -7 95.666 -21 132.999h-38v37l522 59
l926 -60c44 -3.33301 80.5 -22.5 109.5 -57.5s43.5 -80.5 43.5 -136.5c0 -76 -37 -133.333 -111 -172c60 0.666992 100.333 -6.66602 121 -21.999s38.334 -46.333 53.001 -93c13.333 -42 20 -80 20 -114zM1819 832.998c0.666992 52 -10.333 97.333 -33 136
c-21.333 36.667 -44.333 53.667 -69 51l-562 -67c23.333 -60.667 35 -127.667 35 -201c0 -78 -12 -157.333 -36 -238l594 140c18 4 34 23.667 48 59s21.667 75.333 23 120zM859.998 1262c1.33301 58.667 -14.499 104.833 -47.499 138.5s-73.167 48.167 -120.5 43.5l-456 -42
c14.667 -42 22 -88.667 22 -140c0 -50.667 -7.33301 -99.667 -22 -147l423 -68c8 -1.33301 16 -2 24 -2c48 0 89.167 20.167 123.5 60.5s52.166 92.5 53.499 156.5zM1173 751.997c0 73.333 -12 140.333 -36 201l-172 32c-114.667 -16 -194.667 -24 -240 -24
c-11.333 0 -20 0.666992 -26 2l-207 45c2 -22 3 -38.667 3 -50c0 -49.333 -8.33301 -104 -25 -164l667 -280c24 80.667 36 160 36 238zM1782 235.997c-16.667 54 -24.667 108.667 -24 164c0 24.667 5.33301 57.667 16 99l-825 -282c-13.333 -44 -20 -96 -20 -156
c0 -72 7.33301 -143 22 -213zM928.999 -152.003c-14 70 -21 141 -21 213c0 60 7 112 21 156l-520 342c-15.333 10 -30.333 15 -45 15c-39.333 0 -58.333 -31.667 -57 -95c2 -89.333 21 -148.333 57 -177z" />
    <glyph glyph-name="news" unicode="&#xa9;" 
d="M1912 709c-0.666992 -30 -4.66504 -56.667 -11.998 -80c-18 -55.333 -50.333 -89.333 -97 -102l-294 -76c54 28 81 79.667 81 155c0 8 -0.666992 16.667 -2 26c-4 44.667 -28.667 81 -74 109c-36.667 22 -72.334 33 -107.001 33l302 72c13.333 2.66699 25.666 4 36.999 4
c35.333 0 64.333 -14.333 87 -43c20 -25.333 31.667 -56.333 35 -93zM1496 614c0.666992 -8 1.00195 -16.001 1.00195 -24.001c0 -39.333 -9.66699 -76.666 -29 -111.999c-18 -32.667 -39 -55 -63 -67l-722 -365c-59.333 -30 -122.333 -45 -189 -45c-27.333 0 -53 3 -77 9
c-98.667 25.333 -171.667 85.333 -219 180c-38.667 76.667 -57.334 167.667 -56.001 273c0.666992 77.333 20.667 142.666 60 195.999c45.333 62.667 108.666 94.334 189.999 95.001l895 6c52.667 0 98 -11.667 136 -35c42.667 -26 67 -63 73 -111zM1841 708.999
c1.33301 -2 1.99902 -1.33301 1.99902 2c0 18 -8.66699 40.667 -26 68c-22.667 35.333 -50 53 -82 53c-6.66699 0 -13.334 -1 -20.001 -3l-228 -52c16.667 0 38.334 -9 65.001 -27c36.667 -25.333 58.334 -59 65.001 -101zM1882 694.999l-263.001 -68
c0.666992 -28.667 -3.66602 -57.834 -12.999 -87.501s-19 -46.5 -29 -50.5l220 60c30 8.66699 53.667 30.667 71 66c13.333 26.667 20 51.334 20 74.001c0 6 -1 9 -3 9c-0.666992 0 -1.66699 -1 -3 -3zM1465 599.999c-4 47.333 -26.668 83.667 -68.001 109
c-36.667 22 -81.667 32.333 -135 31l-744 -10c53.333 -10.667 97.333 -44.667 132 -102c36.667 -60.667 57 -139.334 61 -236.001c1.33301 -44 -8 -91.667 -28 -143l120 47c10.667 35.333 17.334 66.333 20.001 93l642 173c1.33301 12.667 1.33301 25.334 0 38.001z
M1462 544l-595.002 -176.999c-5.33301 -117.333 -43.666 -201.333 -114.999 -252l612 302c52.667 25.333 85.334 67.666 98.001 126.999zM786.999 253.001l-170 -73c-11.333 -4.66699 -32.666 -8.33398 -63.999 -11.001c-36 -2.66699 -65 -1.66699 -87 3
c-86.667 20.667 -130 92.334 -130 215.001c0 12 0.333008 22.667 1 32l297 55l2 -24l-252 -44c-1.33301 -10 -2 -21.333 -2 -34c0 -91.333 33.667 -145 101 -161c16 -4 31 -6 45 -6c47.333 0 83 20.667 107 62c19.333 34 28 75.667 26 125
c-2.66699 87.333 -21.667 158.666 -57 213.999c-38 59.333 -90.333 93.333 -157 102c-14 1.33301 -27.667 2 -41 2c-67.333 0 -120.333 -21 -159 -63c-40.667 -43.333 -61 -104.666 -61 -183.999c0 -238.667 84.333 -374 253 -406c25.333 -4.66699 50 -7 74 -7
c127.333 0 218.666 67.667 273.999 203zM1759 794.001l-165 -44l-22 19l154 41zM1797 728.001l-151 -41l-22 30l151 44zM1845 645.001l-31 -57l-176 -50l14 53zM1350 691.001l-200 -16l-47 33l201 8zM1416 614.001l-211 -38l-14 55l203 27zM1413 499.001l-19 -39l-499 -230
l21 93zM1161 529.001l-351.999 -69c-1.33301 20.667 -8.66602 59.334 -21.999 116.001c-12.667 43.333 -41 82.666 -85 117.999l346 14c21.333 -9.33301 51.666 -33.333 90.999 -72c13.333 -21.333 20.666 -57 21.999 -107zM560 611.001l-294 -11l41 50h228zM606 515.001
l-368 -55l9 66l340 28zM626 356.001l-165 -44l-8 47l173 33v-36zM631 310.001l-14 -42l-68 -24l-50 19zM700 150.001l-50 -38l-104 -28l80 42zM315 331.001l-60 -13l-11 66l66 11zM521 131.001l-79 -38l-83 35l63 28zM362 205.001l-55 -22l-38 63l60 20z" />
    <glyph glyph-name="classified" unicode="&#x2122;" 
d="M1889 307c0 -94 -16.333 -170 -49 -228c-29.333 -52.667 -63.333 -79 -102 -79h-1310c-112 0 -186.167 20.167 -222.5 60.5s-54.5 119.833 -54.5 238.5v1026h1587v-129h151v-889zM1708 30v1265h-1527v-996c0 -111.333 15.333 -184 46 -218s97.667 -51 201 -51h1280z
M1502 1009h-531v50h531v-50zM1182 1151h-211v50h211v-50zM1502 867h-531v50h531v-50zM1502 314h-531v50h531v-50zM1282 614h-311v50h311v-50zM837 1009h-561v50h561v-50zM517 1151h-241v50h241v-50zM837 867h-561v50h561v-50zM1630 492c0 -103.333 -29 -190.333 -87 -261
c-62.667 -75.333 -144.334 -113 -245.001 -113c-108.667 0 -211.667 32 -309 96c-106.667 70 -166.334 156 -179.001 258h-534v50h533c4.66699 92.667 52.667 167.667 144 225c80 50.667 169.667 76 269 76c149.333 0 276.333 -39 381 -117l-29 -28
c-100 74.667 -223.667 112 -371 112c-97.333 0 -178.666 -19.333 -243.999 -58c-78.667 -46.667 -118 -115.667 -118 -207c0 -87.333 46.833 -171.5 140.5 -252.5s205.834 -121.5 336.501 -121.5c186 0 279 107.333 279 322c0 130 -64.667 205 -194 225l31 32
c130.667 -20.667 196 -100 196 -238zM717 614h-441v50h441v-50zM747 380v-50h-471v50h471zM971 522v-50h531v50h-531z" />
    <glyph glyph-name="archive" unicode="&#xb4;" 
d="M1884 405l-99 -162l-91 22v38l55 -13l-68 104v-160l-607 -259l-901 371v396l466 69l845 -135l-108 152l-1059 81l140 -113l-27 -6l-156 125l69 94l1166 7zM1528 615l-22 31l-854 147l-411 -63l833 -220z" />
    <glyph glyph-name="index" unicode="&#xa8;" 
d="M1758 922l-201 -648v672h172zM1859 710l-318 -584l175 609l119 2zM1891 477l-350 -404l233 444h101zM1863 273l-322 -246l227 289h74zM1541 73c0 -20.667 -8.00098 -38.334 -24.001 -53.001s-34.333 -22 -55 -22h-372v185c-23.333 14.667 -43 22 -59 22
c-14 0 -35 -7.33301 -63 -22v-185h-233v185c-19.333 20 -38.666 30 -57.999 30c-17.333 0 -38.666 -10 -63.999 -30v-185h-363c-22 0 -41.833 7.66699 -59.5 23s-26.5 34 -26.5 56v932c0 18.667 10 34 30 46c17.333 10 35.666 15 54.999 15h206
c25.333 10.667 41.333 38.667 48 84c5.33301 39.333 20.666 59 45.999 59h203c24 0 38.333 -19.333 43 -58c4.66699 -45.333 17.334 -73.666 38.001 -84.999h644c42.667 0 64 -21 64 -63v-934z" />
    <glyph glyph-name="art" unicode="&#x2260;" 
d="M1823 -224l-154 -0.00195312c-43.333 51.333 -129 77 -257 77c-110.667 0 -206.334 -25.667 -287.001 -77h-203c-80.667 51.333 -176.667 77 -288 77c-128 0 -213.667 -25.667 -257 -77h-154v188c58.667 51.333 88 140 88 266c0 75.333 -4.66699 129.5 -14 162.5
s-34 83.833 -74 152.5v124c58.667 96 88 201 88 315c0 126 -29.333 214.667 -88 266v188h154c43.333 -51.333 129 -77 257 -77c111.333 0 207.333 25.667 288 77h203c80.667 -51.333 176.334 -77 287.001 -77c128 0 213.667 25.667 257 77h154v-188
c-58.667 -51.333 -88 -140 -88 -266c0 -75.333 4.66699 -129.5 14 -162.5s34 -83.833 74 -152.5v-125c-40 -69.333 -64.667 -120.166 -74 -152.499s-14 -86.166 -14 -161.499c0 -126 29.333 -214.667 88 -266v-188zM1563 27.998v1179h-1061v-1179h1061zM1539 747.998
l-263 0.000976562c-2.66699 19.333 -4 40.666 -4 63.999c0 83.333 21.333 125 64 125c55.333 0 85 -20.667 89 -62c-1.33301 56 36.667 96.667 114 122v-249zM1522 111.999c0 -16.667 -0.666992 -32.332 -2 -46.999h-963l73 147c34.667 65.333 64 108.666 88 129.999
c-13.333 46.667 -20 96.667 -20 150c0 95.333 38 186 114 272c-9.33301 46.667 -14 99.334 -14 158.001c0 58 17.833 107.5 53.5 148.5s81.834 61.5 138.501 61.5c95.333 0 169.666 -103.333 222.999 -310c16 -62.667 52.333 -95.334 109 -98.001
c26.667 -33.333 61 -85 103 -155c11.333 -27.333 30.333 -103.333 57 -228s40 -201 40 -229zM769 748.001h-240v218c11.333 16 27.333 24 48 24c44 0 66 -22 66 -66c0 -6.66699 -0.666992 -12.667 -2 -18c19.333 24.667 39.333 37 60 37c40 0 62.667 -65 68 -195z
M1167 624.001c-80.667 83.333 -121 151 -121 203c0 12 2.83301 30.167 8.5 54.5s8.5 42.833 8.5 55.5c0 25.333 -7.66699 51 -23 77c-18 30 -38.667 45 -62 45c-24.667 0 -49.667 -2.66699 -75 -8c-25.333 -47.333 -38 -90 -38 -128c0 -18.667 6 -41 18 -67
c14 -29.333 28.667 -46 44 -50l10 -17.5c3.33301 -5.66699 10 -7.83398 20 -6.50098l-5 -55h-5c-31.333 1.33301 -61.333 -17 -90 -55c-22 -29.333 -39 -62.666 -51 -99.999l249 -51c26 50.667 63.333 85 112 103zM1189 201.001c0 29.333 -30.666 58.666 -91.999 87.999
l-132 53c-49.333 -12 -74 -27.667 -74 -47c0 -16 10.333 -35.667 31 -59h40c3.33301 -21.333 17.666 -39.666 42.999 -54.999c22.667 -14 45.667 -22 69 -24l-17 22l18 7l22 -29l26 7l-25 32l16 5l29 -31l28 9l-43 40l9 7c13.333 -10 30.333 -20.333 51 -31zM1001 160.001
l-46 43l-75 -23v-55l43 -34zM1038 980.001c-12.667 -18 -31.667 -29.332 -57 -33.999c-6 -6.66699 -10.333 -17.334 -13 -32.001c-2.66699 25.333 -4 39 -4 41c0 12.667 6 19 18 19c4 0 10.5 -0.833008 19.5 -2.5s15.833 -2.5 20.5 -2.5l8 2zM933.001 947.002
c-4 -0.666992 -22.999 -4.66699 -56.999 -12v22c7.33301 4.66699 15.666 7 24.999 7c8 0 18.667 -5.66699 32 -17zM980.002 872.002c-4.66699 -7.33301 -12.667 -11 -24 -11c-14.667 0 -23 5.66699 -25 17c4 -2.66699 10 -5.66699 18 -9l17 10zM1009 862.002
c-6.66699 -17.333 -21.002 -27.334 -43.002 -30.001l-3 -1c-4 0 -14 1.66699 -30 5c22.667 2.66699 36.334 4.83398 41.001 6.50098s16.334 8.16699 35.001 19.5zM990 954.001c-6 2.66699 -8 7 -6 13l-11 -16zM899 944.001l-6 14l-10 -16z" />
    <glyph glyph-name="theatre" unicode="&#xc6;" 
d="M499 360l-46.001 -17l34 -61c-84.667 31.333 -157 75.666 -217 132.999c-72 69.333 -108 143.333 -108 222c0 54.667 4.33301 109.334 13 164.001c12.667 78 31.334 122.333 56.001 133c-27.333 50.667 -41 102 -41 154c0 104.667 30.667 157 92 157
c18.667 0 46.5 -2 83.5 -6s64.833 -6 83.5 -6c70.667 0 143.334 20.5 218.001 61.5s133 61.5 175 61.5c116.667 0 175 -71 175 -213c0 -18 -2 -38 -6 -60c30.667 -60.667 52.667 -101.667 66 -123c28 -46.667 57 -82.667 87 -108c16.667 27.333 40.334 52.333 71.001 75
c34.667 25.333 65.667 38 93 38c32 0 59.333 -15.333 82 -46c43.333 -59.333 76.333 -100.666 99 -123.999c40 -41.333 83.333 -71.666 130 -90.999l173 -70c54.667 -33.333 82 -86 82 -158c0 -38.667 -12.333 -75.334 -37 -110.001s-54.667 -60.334 -90 -77.001
c12 -76 18 -140.333 18 -193c0 -40 -15.667 -83.333 -47 -130c-6.66699 -10 -36.334 -47.333 -89.001 -112v68l-70 -34c106 70 159 142.333 159 217c0 48.667 -5.33301 103 -16 163c-27.333 -11.333 -47.666 -21 -60.999 -29c-20 -49.333 -54 -89.333 -102 -120
c-9.33301 -6 -57.333 -29.333 -144 -70c-84 -40.667 -158 -61 -222 -61c-90.667 0 -151.667 38 -183 114c-19.333 47.333 -29 124.333 -29 231c0 196.667 38.667 312 116 346c7.33301 25.333 19.666 63.333 36.999 114c-60 66 -106.667 139 -140 219l-7 -38
c16 -34 24 -70 24 -108c0 -26 -16 -93.333 -48 -202c-54.667 -184 -137 -276 -247 -276c-70.667 0 -161.834 52.167 -273.501 156.5s-167.5 191.5 -167.5 261.5c0 14.667 2.33301 29.334 7 44.001l-27 43c-28.667 -43.333 -43 -107 -43 -191c0 -78 10.667 -137.333 32 -178
c18 -34.667 50 -64.334 96 -89.001zM1868 477c0 64.667 -26.333 111.667 -79 141l-160 62c-49.333 20 -94.666 51.667 -135.999 95c-22 22 -57 65.333 -105 130c-16.667 22.667 -37.334 34 -62.001 34c-33.333 0 -74 -25 -122 -75
c-23.333 -25.333 -50.666 -92.666 -81.999 -201.999c-52.667 -14 -87.334 -61.667 -104.001 -143c-8 -40.667 -12 -105 -12 -193c0 -94 8.66699 -163 26 -207c28 -70 82 -105 162 -105c70 0 155.667 25.333 257 76c109.333 55.333 175.333 112.333 198 171
c40 16 91 42.667 153 80c44 41.333 66 86.666 66 135.999zM997.999 1151c0 50.667 -13.666 92.667 -40.999 126c-29.333 36 -68.666 54 -117.999 54c-32 0 -86.833 -20.667 -164.5 -62s-152.5 -62 -224.5 -62c-18.667 0 -46.334 2 -83.001 6s-64.334 6 -83.001 6
c-46 0 -69 -39.667 -69 -119c0 -46.667 9.33301 -89.667 28 -129c6 -12.667 28.667 -50.667 68 -114c-8 -16 -12 -33 -12 -51c0 -62.667 53.5 -143.5 160.5 -242.5s192.5 -148.5 256.5 -148.5c98.667 0 173 85.333 223 256c30.667 105.333 46 175 46 209
c0 37.333 -7.66699 70.666 -23 99.999c2 10.667 9.33301 39 22 85c9.33301 34.667 14 63.334 14 86.001zM1672 388c0 -9.33301 -6.33203 -14 -18.999 -14s-39.334 17.667 -80.001 53s-61 59 -61 71c0 9.33301 6 14 18 14c20.667 0 49.5 -15.667 86.5 -47s55.5 -57 55.5 -77z
M1378 592c0 -10.667 -6.66992 -16 -20.0029 -16c-5.33301 0 -28.666 15.5 -69.999 46.5s-65.666 51.167 -72.999 60.5c0 12.667 11.333 19 34 19s49.834 -12.833 81.501 -38.5s47.5 -49.5 47.5 -71.5zM1379 567c-10 -70.667 -53 -115 -129 -133c30 28 73 72.333 129 133z
M1532 193l-17 -4.99902c-35.333 15.333 -53 55 -53 119c16.667 -36.667 26 -57 28 -61c11.333 -20.667 25.333 -38.334 42 -53.001zM1363 303.001l-1 -3l-7 -3c-7.33301 0 -17 3.83301 -29 11.5s-18 15.167 -18 22.5l1 3l7 3c8 0 17.833 -3.83301 29.5 -11.5
s17.5 -15.167 17.5 -22.5zM1267 358.001l-4 -3.99902c-8 0.666992 -19.5 5.66699 -34.5 15s-22.833 17.333 -23.5 24l5 4c8 0 19.5 -4.83301 34.5 -14.5s22.5 -17.834 22.5 -24.501zM1195 480.002c-22.667 -12 -49 -18 -79 -18c-10.667 0 -25.667 2.66699 -45 8l-3 22
c10.667 -6.66699 38 -10 82 -10c14 0 29 -0.666992 45 -2zM1428 229.002c-34 -74.667 -100.331 -112.002 -198.998 -112.002c-52.667 0 -88.334 22.667 -107.001 68c-11.333 28.667 -17 74.334 -17 137.001c0 12.667 3 29.334 9 50.001c7.33301 24 11.333 40.333 12 49
c11.333 -59.333 40.166 -108.833 86.499 -148.5s99.5 -59.5 159.5 -59.5c25.333 0 44 5.33301 56 16zM877 1067c0 -23.333 -44.667 -35.001 -134 -35.001c-42.667 0 -64 5 -64 15c0 14.667 18 26.334 54 35.001c26 6 50 9 72 9c48 0 72 -8 72 -24zM724 832.999
c0 -13.333 -14.667 -20 -44 -20c-12 0 -18 2.66699 -18 8c0 13.333 14.667 20 44 20c12 0 18 -2.66699 18 -8zM570 921.999c0 -30.667 -9 -57.332 -27 -79.999c1.33301 24.667 2 43.667 2 57v21c0 23.333 -1.33301 46.666 -4 69.999c19.333 -25.333 29 -48 29 -68zM526 1000
c0 -15.333 -13.667 -25.334 -41 -30.001c-19.333 -2 -39 -4.33301 -59 -7c-42.667 -10 -66 -15 -70 -15c-10 0 -15 4.33301 -15 13c0 16.667 11 31.334 33 44.001c19.333 11.333 38.333 17 57 17c63.333 0 95 -7.33301 95 -22zM623 817
c-0.666992 -13.333 -19.667 -20 -57 -20l-14 5c1.33301 13.333 20.333 20 57 20zM874 616c-114 52.667 -190.333 78.999 -229 78.999c-24.667 0 -70 -27.333 -136 -82c-2 6.66699 -3 12.334 -3 17.001c0 34.667 30.333 61 91 79c42.667 12 88.667 18 138 18
c76.667 0 123 -37 139 -111z" />
    <glyph glyph-name="music" unicode="&#xd8;" 
d="M1538 546c0 -60.667 -36.334 -112.001 -109.001 -154.001c-63.333 -36 -128 -54 -194 -54c-52.667 0 -99 9.33301 -139 28c-52 24 -78 59 -78 105c0 57.333 39 104 117 140c62.667 29.333 126.334 44 191.001 44c46 0 86.667 -7 122 -21v448l-598 -265v-619
c0 -60 -35.667 -111.667 -107 -155c-62.667 -38 -126.334 -57 -191.001 -57c-52 0 -98 9.33301 -138 28c-52 23.333 -78 58.333 -78 105c0 56.667 38.667 103.334 116 140.001c62.667 29.333 126.334 44 191.001 44c44 0 83.333 -6.66699 118 -20v798l777 342v-877z" />
    <glyph glyph-name="MIDI" unicode="&#x221e;" 
d="M1920 0l-1654 -0.000976562v885h776c0 72 -15.333 120 -46 144c-36.667 29.333 -112 44 -226 44h-191c-20.667 -53.333 -49 -80 -85 -80h-177v19h-170v185h170v17h177c22 0 42.333 -10 61 -30c16 -17.333 24 -31.666 24 -42.999h171c153.333 0 253 -16.667 299 -50
c40.667 -30 61 -93.333 61 -190v-16h84v196c0 112.667 -14.333 185.667 -43 219c-32 37.333 -102.667 56 -212 56h-151c-20.667 -53.333 -49 -80 -85 -80h-177v20h-169v184h169v18h177c22 0 42.333 -10.333 61 -31c16 -16.667 24 -30.667 24 -42h151
c105.333 0 186 -23.333 242 -70c52 -42.667 78 -99.667 78 -171v-299h661v-885zM1894 21.999v577h-100v-331h-39v-246h139zM1595 715.999v110h-544v-110h544zM1720 21.999v246h-48v331h-58v-331h-39v-246h145zM526 1316v144h-149v-144h149zM1540 21.999v246h-48v331h-58
v-331h-39v-246h145zM936 798.999v30h-97v-30h97zM1360 21.999v246h-48v331h-97v-577h145zM756 798.999v30h-97v-30h97zM1180 21.999v577h-106v-331h-39v-246h145zM317 1032v145h-150v-145h150zM1000 21.999v246h-48v331h-58v-331h-39v-246h145zM820 21.999v246h-48v331h-95
v-577h143zM506 399.999l-50 -0.000976562c-2 -18.667 -4.33301 -51.667 -7 -99h50v1c0 30.667 2.33301 63.334 7 98.001zM384 399.998l-50 -0.000976562c-1.33301 -18.667 -3.33301 -51.667 -6 -99h50v1c-0.666992 30.667 1.33301 63.334 6 98.001zM511 158.997
c-3.33301 17.333 -7.33301 52.002 -12 104.002c0 1.33301 1 4.16602 3 8.49902s3 8.16602 3 11.499s-1 6.66602 -3 9.99902h-49c4 -3.33301 6 -7.66602 6 -12.999c0 -4.66699 -1.66699 -8.5 -5 -11.5s-5 -5.16699 -5 -6.5c2 -32 7.66699 -66.333 17 -103h45zM534 119.999v95
h-8v-80h-64v-15h72zM390 158.999c-3.33301 17.333 -7.33301 52.002 -12 104.002c0 1.33301 1 4.16602 3 8.49902s3 8.16602 3 11.499s-1 6.66602 -3 9.99902h-50c4.66699 -3.33301 7 -7.66602 7 -12.999c0 -4.66699 -1.66699 -8.5 -5 -11.5s-5 -5.16699 -5 -6.5
c1.33301 -32 7 -66.333 17 -103h45zM413 120.001v95h-8v-80h-65v-15h73z" />
    <glyph glyph-name="microphone" unicode="&#xb1;" 
d="M1440 598c0 -58 -23.999 -108.332 -71.999 -150.999c-41.333 -36.667 -93 -62.667 -155 -78c43.333 -74 65 -123.667 65 -149c0 -10.667 -3 -23.667 -9 -39c-7.33301 -16 -15 -24 -23 -24h-46v95h-81c-6 -23.333 -18.333 -48.333 -37 -75c-22.667 -32 -44 -48 -64 -48
c-33.333 0 -50 20 -50 60c0 30 6.66699 48.667 20 56l-26 122c-92 13.333 -148.667 37.666 -170 72.999c-12 20 -45 150.333 -99 391c-55.333 244 -83 385 -83 423c0 90 69.667 155 209 195c92.667 26.667 199.667 40 321 40c36.667 0 67.667 -8.33301 93 -25
c28.667 -19.333 43 -45.666 43 -78.999c0 -6 -0.666992 -12.667 -2 -20c22 -18 33 -38 33 -60c0 -10 -3 -21.333 -9 -34c18 -8.66699 27 -25.334 27 -50.001c0 -8.66699 -2.66699 -17.334 -8 -26.001c17.333 -8 26 -24.333 26 -49c0 -4.66699 -1.5 -11 -4.5 -19
s-4.5 -14.333 -4.5 -19c1.33301 -2.66699 6.66602 -10 15.999 -22c6 -8 9 -17.333 9 -28c0 -13.333 -3.33301 -27.333 -10 -42c16.667 -12.667 25 -28.667 25 -48c0 -6 -2 -11.333 -6 -16c-5.33301 -7.33301 -8.33301 -12.333 -9 -15c16.667 -1.33301 25 -12.666 25 -33.999
c0 -11.333 -3.33301 -24.333 -10 -39c15.333 -5.33301 23 -18 23 -38c0 -2 -3 -13.667 -9 -35c34.667 -34.667 52 -99 52 -193zM1193 0.000976562l-169.001 -0.000976562v114c32.667 18 55.334 34.833 68.001 50.5s22.667 40.834 30 75.501h71v-240zM1410 635
c0.666992 69.333 -11.666 115.664 -36.999 138.997l-125 -9l-9 27l135 11l2 -14c-3.33301 16 -11.666 34.333 -24.999 55l-122 -10l-6 27l121 10c6.66699 6.66699 10 18.334 10 35.001l-14 9l-120 -5l-4 28l113 4c5.33301 6 10.333 15 15 27
c-1.33301 4.66699 -8 15.334 -20 32.001l-119 -7l5 31l107 7c8.66699 12 13 19.667 13 23c0 6.66699 -5.66699 16.667 -17 30l-105 -7l-11 29l107 5c0 4 1.5 10 4.5 18s4.5 14.333 4.5 19c0 9.33301 -4 16 -12 20v-1l-162 -13l-6 31l152 9l10 28
c0 4.66699 -8 14.334 -24 29.001l-149 -12l-5 29l155 12c6 11.333 9 19.333 9 24c0 15.333 -2.66699 25.333 -8 30l-27 16l-144 -13l-5 30l152 8c-14.667 52 -47.334 79.667 -98.001 83c11.333 -8 17 -18.333 17 -31c0 -11.333 -4.33301 -17 -13 -17
c-1.33301 0 -20 15.667 -56 47l-33 -1c12 -8 18 -18.333 18 -31c0 -12 -4.33301 -18 -13 -18l-55 45l-39 -4c19.333 -8.66699 29 -20.667 29 -36c0 -11.333 -4.33301 -17 -13 -17c-2 0 -11.333 7 -28 21c-18.667 16 -29 24.667 -31 26l-44 -8
c18.667 -9.33301 28 -21.666 28 -36.999c0 -12 -4.33301 -18 -13 -18l-57 45c-138.667 -34.667 -208 -91.667 -208 -171c0 -16 1.33301 -33 4 -51l29 18l5 -30l-27 -22l12 -48l30 20l8 -33l-31 -21l12 -56l29 19l7 -33l-28 -19l10 -51l33 22l8 -35l-33 -20l11 -54l35 23
l7 -33l-35 -23l12 -53l36 24l7 -36l-36 -22l12 -51l42 28l8 -33l-41 -28l13 -64l43 29l7 -30l-40 -31c5.33301 -22.667 14.333 -56.334 27 -101.001c7.33301 -26 51.666 -45.667 132.999 -59c56.667 -9.33301 111.667 -14 165 -14c70 0 134.333 17.667 193 53
c68 40.667 102.333 93.667 103 159v37zM1157 9.99805v215h-28v-215h28zM1039 185.998c0 19.333 -7.66699 29 -23 29s-23 -9.66699 -23 -29s7.66699 -29 23 -29s23 9.66699 23 29zM1180 1052c0 -30.667 -12 -46 -36 -46c-28.667 0 -43 18.333 -43 55c0 30.667 12 46 36 46
c28.667 0 43 -18.333 43 -55zM1036 1328l-103 -10c-44.667 -4.66699 -85.667 -19 -123 -43l-79 -51l-7 21l76 53c38 27.333 80.667 43 128 47l104 8zM1051 1237l-118 -6.99902c-40.667 -2.66699 -77 -14.334 -109 -35.001l-75 -49l-8 17l70 52c32 24 71.667 37.667 119 41
l116 8zM1066 1149l-105 -10c-28 -2.66699 -46.667 -5 -56 -7c-16.667 -4 -34 -12 -52 -24l-85 -54l-7 24l79 57c28 20.667 64.667 33 110 37l109 9zM1059 1095l-10 -28l-89 -10c-36.667 -4 -63.667 -12 -81 -24l-88 -61l-5 22l84 66c21.333 16.667 51 26 89 28z
M1405 602.999c0 -21.333 -9.33203 -50.668 -27.999 -88.001c-16.667 -29.333 -36.334 -50 -59.001 -62l29 52c18 32.667 27 62 27 88c0 6.66699 -2.5 15.334 -7.5 26.001s-7.5 17 -7.5 19c0 8.66699 10 13 30 13c10.667 0 16 -16 16 -48zM1084 986.997l-109 -9.99902
c-31.333 -2.66699 -57.333 -11.334 -78 -26.001l-87 -61l-6 24l85 66c21.333 16 48.333 25.333 81 28l96 7zM1130 906.998l-111.001 -12.998c-37.333 -4.66699 -68.333 -15.334 -93 -32.001l-87 -61l-7 27l83 61c20.667 15.333 52.334 25.666 95.001 30.999l112 14z
M1344 581c0 -17.333 -12.001 -45.668 -36.001 -85.001c-25.333 -41.333 -45.666 -62 -60.999 -62c-12 0 -18 2 -18 6c0 6.66699 13.333 29.334 40 68.001s40 62 40 70c0 6.66699 -3.5 15.667 -10.5 27s-10.5 20 -10.5 26c0 8.66699 8.33301 13 25 13c20.667 0 31 -21 31 -63
zM1158 827.998l-103 -12c-34 -4 -68.667 -17 -104 -39l-95 -61l-7 26l100 70c25.333 17.333 59 28.333 101 33l99 10zM1173 755.998l-96 -14c-26 -4 -55.333 -17.333 -88 -40l-107 -74l-7 28l94 72c26.667 20 58 33 94 39l104 16zM1258 580.998
c0 -16 -13.334 -47.332 -40.001 -93.999c-27.333 -48.667 -47.666 -73 -60.999 -73c-10 0 -15 3.33301 -15 10c0 7.33301 12.167 32.166 36.5 74.499s36.5 68.833 36.5 79.5c0 6 -2 14.833 -6 26.5s-6 20.5 -6 26.5s3.66699 9 11 9c29.333 0 44 -19.667 44 -59z
M1167 569.999c0 -15.333 -12.667 -44.668 -38 -88.001c-26.667 -45.333 -46.667 -68 -60 -68c-10 0 -15 2.66699 -15 8s11.667 28.333 35 69s35 66.334 35 77.001c0 6 -2 14.833 -6 26.5s-6 20.5 -6 26.5c0 6.66699 6.66699 10 20 10c23.333 0 35 -20.333 35 -61z
M1071 569.997c0 -14.667 -11.667 -43 -35 -85s-41 -63 -53 -63c-12.667 0 -19 2.66699 -19 8c0 4 11.167 26 33.5 66s33.5 65.667 33.5 77c0 6 -1.66699 14.5 -5 25.5s-5 19.167 -5 24.5c0 7.33301 6 11 18 11c21.333 0 32 -21.333 32 -64z" />
    <glyph glyph-name="headphones" unicode="&#x2264;" 
d="M1655 614c0 -72 -21.3311 -136.67 -63.998 -194.003c-1.33301 -28.667 -12.333 -65.667 -33 -111c-19.333 -42 -37.666 -72.333 -54.999 -91c-10 -50 -30.667 -92.667 -62 -128c-33.333 -37.333 -70.333 -56 -111 -56c-68 0 -122 47.333 -162 142
c-30.667 73.333 -46 149 -46 227c0 99.333 13.667 179 41 239c29.333 64 70.666 96 123.999 96c14 0 28.667 -2.33301 44 -7c23.333 42 50 69 80 81c2.66699 0.666992 4 3 4 7c0 20.667 -15.667 60.334 -47 119.001c-99.333 186.667 -202 280 -308 280
c-86 0 -181.167 -51.5 -285.5 -154.5s-156.5 -195.5 -156.5 -277.5c0 -34 16.667 -70 50 -108c46 -52 72 -84 78 -96c200.667 -1.33301 301 -139.666 301 -414.999c0 -95.333 -39.667 -176.666 -119 -243.999c41.333 80 62 158.333 62 235c0 83.333 -20.667 168 -62 254
c-48.667 100.667 -109 156.667 -181 168l5 -11c65.333 -18.667 119.666 -79 162.999 -181c37.333 -86.667 56 -169.667 56 -249c0 -60.667 -10.333 -114.334 -31 -161.001c-27.333 -61.333 -67.333 -92 -120 -92c-48.667 0 -96 27.667 -142 83c-42 2 -77 34 -105 96
c-23.333 51.333 -35 101.333 -35 150c0 29.333 2.33301 53.333 7 72c-80 131.333 -120 231.333 -120 300c0 38 7.16699 64.333 21.5 79s40.833 22 79.5 22c6 0 9 1 9 3c0 4.66699 -10.667 11.334 -32 20.001h-2c-62.667 -2.66699 -94 36 -94 116c0 39.333 13.333 88 40 146
c40 88.667 109.167 164.5 207.5 227.5s196.5 94.5 294.5 94.5c67.333 0 139.333 -8 216 -24c62.667 -13.333 127.667 -39 195 -77c88 -50 132 -100 132 -150c0 -30.667 -3.33301 -61 -10 -91l28 -136c2 1.33301 5.33301 2 10 2c41.333 0 74.166 -18.667 98.499 -56
s36.5 -87 36.5 -149zM1576 525.997c15.333 21.333 23 51.333 23 90c0 42 -10.333 77.333 -31 106c-24.667 34.667 -60 52 -106 52c-14 0 -36.667 -20.667 -68 -62c12 -2.66699 30.667 -13.667 56 -33c33.333 0 63 -20.333 89 -61c20.667 -31.333 33 -62 37 -92z
M1287 590.997c-40 -3.33301 -60.001 -59.002 -60.001 -167.002c0 -51.333 7 -104.666 21 -159.999c18.667 -74 44.334 -109.667 77.001 -107c34.667 2.66699 52 52.334 52 149.001c0 58 -5.66699 114.667 -17 170c-16.667 80 -41 118.333 -73 115zM653.001 557.995
c-42.667 68 -82.667 101.999 -120 101.999c-23.333 0 -35 -16.667 -35 -50c0 -50 22.667 -128 68 -234c14 92.667 43 153.334 87 182.001zM1348 379.994c5.33301 -57.333 4.99902 -105.333 -1.00098 -144c-5.33301 -35.333 -13.333 -53.333 -24 -54
c-12 -1.33301 -24.667 14.667 -38 48c-16 38 -26.333 84.667 -31 140c-1.33301 18.667 -2 37 -2 55c0 92 12.333 139.333 37 142c28.667 2 48.334 -60.333 59.001 -187z" />
    <glyph glyph-name="CDROM" unicode="&#x2265;" 
d="M1705 631c0 -188 -66.5 -348.5 -199.5 -481.5s-293.5 -199.5 -481.5 -199.5s-348.5 66.5 -481.5 199.5s-199.5 293.5 -199.5 481.5s66.5 348.5 199.5 481.5s293.5 199.5 481.5 199.5s348.5 -66.5 481.5 -199.5s199.5 -293.5 199.5 -481.5zM1665 631
c0 177.333 -62.5 328.5 -187.5 453.5s-276.167 187.5 -453.5 187.5c-176.667 0 -327.667 -62.5 -453 -187.5s-188 -276.167 -188 -453.5s62.667 -328.5 188 -453.5s276.333 -187.5 453 -187.5c177.333 0 328.5 62.5 453.5 187.5s187.5 276.167 187.5 453.5zM1388 1116
l-198 -217c-18 21.333 -38.333 35.333 -61 42l174 233c22.667 -12.667 51 -32 85 -58zM1607 777l-251.999 -101.001c-6 19.333 -12.667 37.333 -20 54c-18 40.667 -39 72.334 -63 95.001l-51 50l199 209c6 0.666992 29 -20 69 -62c57.333 -72 96.666 -153.667 117.999 -245z
M1232 637.999c0 -58 -20.333 -107.5 -61 -148.5s-90 -61.5 -148 -61.5s-107.5 20.5 -148.5 61.5s-61.5 90.5 -61.5 148.5c0 57.333 20.5 106.5 61.5 147.5s90.5 61.5 148.5 61.5s107.333 -20.5 148 -61.5s61 -90.167 61 -147.5zM827.001 386.999l-197.999 -208.999
c-6 -0.666992 -29 20 -69 62c-58 72 -97.667 153.667 -119 245l253 101c5.33301 -19.333 11.666 -37.333 18.999 -54c18 -40.667 39.333 -72.334 64 -95.001zM920.002 321l-175 -233c-22.667 12.667 -51 32 -85 58l199 217c18 -21.333 38.333 -35.333 61 -42zM1096 628
c0 19.333 -7 36.166 -21 50.499s-30.667 21.5 -50 21.5c-20 0 -37 -7.16699 -51 -21.5s-21 -31.166 -21 -50.499c0 -20 7 -37 21 -51s31 -21 51 -21c19.333 0 36 7 50 21s21 31 21 51z" />
    <glyph glyph-name="filmclip" unicode="&#xa5;" 
d="M1829 825l-1222 -825l-387 574l1223 824zM1456 1301l-32 47l-59 -40l31 -47zM1776 827l-32 47l-59 -40l31 -48zM1320 1209l-32 47l-59 -40l31 -47zM1640 735l-32 47l-59 -40l31 -47zM1184 1118l-32 47l-60 -41l32 -47zM1727 894l-259 384l-534 -360l259 -385zM1504 643
l-32 47l-60 -40l32 -47zM1048 1026l-32 47l-60 -40l32 -48zM1368 551l-32 47l-60 -40l32 -47zM912 934l-32 47l-60 -40l32 -47zM1232 459l-32 48l-60 -41l32 -47zM776 842l-32 47l-60 -40l32 -47zM1096 368l-32 47l-60 -40l32 -48zM640 750l-32 47l-60 -40l32 -47zM1116 481
l-259 385l-535 -361l259 -384zM960 276l-32 47l-60 -40l32 -47zM503 659l-31 47l-60 -41l32 -47zM823 184l-31 47l-60 -40l32 -47zM367 567l-31 47l-60 -40l32 -48zM687 92l-31 47l-60 -40l32 -47z" />
    <glyph glyph-name="pointofinterest" unicode="&#xb5;" 
d="M1668 356c1.33301 -26 -9.00195 -45.999 -31.002 -59.999c-7.33301 -4.66699 -30 -14 -68 -28c-16 -48 -44.667 -87 -86 -117s-87.333 -45 -138 -45c-42.667 0 -85.334 15 -128.001 45l-435 -148c-49.333 -16.667 -96.333 -25 -141 -25
c-59.333 0 -141.666 52 -246.999 156c-5.33301 27.333 -8 48.333 -8 63v757c0 19.333 24.333 33.666 73 42.999l98 10v28c30.667 16.667 67.334 25 110.001 25c57.333 0 94 -7.66699 110 -23l1 -5l123 13l80 98l170 20l73 -32l40 -53l87 7v51c26.667 4.66699 45.667 7 57 7
c8.66699 0 20.667 -3.66699 36 -11h17c38.667 0.666992 64.667 -8.33301 78 -27l53 -2c24.667 0 38.334 -27.333 41.001 -82zM1509 1088c0 4.66699 -5.99902 8.66699 -17.999 12l-17 -7l-48 5c31.333 -16.667 50.666 -25 57.999 -25c16.667 0 25 5 25 15zM1625 911.001v111
l-288 -53l23 -123zM1166 1133l-38 25l-20 -5l35 -22zM1297 982.001l-81 141l-161 -23l-48 -159zM1077 1123l-37 25l-21 -5l36 -22zM1378 727.001l-23.001 99l-336 -69l8 15l325 67l-10 43l-308 -59l8 86l283 46l-3 14l-318 -48l-30 -308c28 33.333 75 63.333 141 90
c62.667 24.667 117.334 37 164.001 37c30.667 0 63.667 -4.33301 99 -13zM1643 331.001l-64 -21l-4 -18l42 14zM1567 386.001c0 57.333 -16.166 102.832 -48.499 136.499s-77.5 50.5 -135.5 50.5c-56.667 0 -102.667 -24.333 -138 -73c-32.667 -44 -49 -95 -49 -153
c0 -57.333 14.667 -103.666 44 -138.999c32 -38.667 76 -58 132 -58c59.333 0 107.666 25.667 144.999 77c33.333 46.667 50 99.667 50 159zM1451 618c-22.667 18.667 -58.001 27.999 -106.001 27.999c-73.333 0 -135.166 -26.5 -185.499 -79.5s-75.5 -116.833 -75.5 -191.5
c0 -79.333 29.667 -143.666 89 -192.999l1 4c-44 58 -66 119 -66 183c0 172 94 258 282 258c24.667 0 45 -3 61 -9zM748.998 1017c-19.333 -0.666992 -48.666 -2.33398 -87.999 -5.00098c-18.667 -1.33301 -44.667 1.33398 -78 8.00098
c19.333 -15.333 44.666 -23 75.999 -23c30.667 0 60.667 6.66699 90 20zM1413 681.999c-32.667 14.667 -59.667 22 -81 22c-115.333 0 -203.666 -30.667 -264.999 -92c-53.333 -53.333 -80 -121.666 -80 -204.999c0 -124 47 -199 141 -225c-72.667 50 -109 119.667 -109 209
c0 73.333 28 139.666 84 198.999c59.333 64.667 130.666 97 213.999 97c23.333 0 55.333 -1.66699 96 -5zM983.998 918.999c-62 -6 -123.999 -11.667 -185.999 -17c-94.667 -12 -148.667 -28.333 -162 -49c-8.66699 -13.333 -20 -65.333 -34 -156
c49.333 3.33301 109.666 12.333 180.999 27l178 36zM862.999 643.999c0 18 -9.33203 27 -27.999 27c-8 0 -35 -42 -81 -126c15.333 6.66699 29.666 10 42.999 10c14 0 27.667 -9 41 -27c16.667 60 25 98.667 25 116zM908 501.999c0 12 -7.33301 18 -22 18
c-12 0 -18 -8.33301 -18 -25c0 -12 6.66699 -18 20 -18s20 8.33301 20 25zM594 696.999c-9.33301 94.667 -22 150.668 -38 168.001c-6.66699 7.33301 -58.334 32.666 -155.001 75.999v-159c39.333 -22 71 -39 95 -51c44.667 -22 77.334 -33.333 98.001 -34zM830 502
c0 25.333 -13.333 38 -40 38c-27.333 0 -41 -12.667 -41 -38c0 -7.33301 4.5 -15.333 13.5 -24s17.167 -13 24.5 -13c8.66699 0 18 4.16699 28 12.5s15 16.5 15 24.5zM1198 167c-7.33301 2 -18.001 6 -32.001 12l-412 -138c-49.333 -17.333 -83 -26 -101 -26
c-35.333 0 -91.666 18.667 -168.999 56c72.667 -50.667 121.667 -76 147 -76c33.333 0 75.333 8.33301 126 25zM1468 364c0 -47.333 -34.333 -82.001 -103 -104.001c38 46.667 57 80 57 100c0 26.667 -2.66699 59.334 -8 98.001c36 -24.667 54 -56 54 -94zM1552 390.999
c0 -72.667 -23 -131.666 -69 -176.999c-36 -34.667 -71 -52 -105 -52c-39.333 0 -74 11 -104 33c64.667 0 119 16.333 163 49c50 37.333 75 88.333 75 153c0 45.333 -12.667 90.666 -38 135.999c52 -38.667 78 -86 78 -142zM1325 535l-41 -81.001
c-9.33301 -16.667 -25.333 -41.667 -48 -75c4 30 11 64.333 21 103c21.333 32.667 44 50.334 68 53.001zM845.999 631.999c0 -19.333 -5.33203 -42.333 -15.999 -69l-28 5c-4.66699 -1.33301 -11.334 -3 -20.001 -5c25.333 54 43 81 53 81c7.33301 0 11 -4 11 -12z
M545 802.999c0 -24 -6.00098 -36 -18.001 -36c-6 0 -15 4.16699 -27 12.5s-18 16.833 -18 25.5s6.33301 16.667 19 24c10.667 6 19.334 9 26.001 9c12 0 18 -11.667 18 -35zM521.999 817.999c-13.333 -7.33301 -20 -12.333 -20 -15c0 -3.33301 6 -10.333 18 -21z" />
    <glyph glyph-name="ticket" unicode="&#x2202;" 
d="M2003 1075c-28 -18.667 -42.002 -44.0029 -42.002 -76.0029c0 -17.333 5 -33.333 15 -48l-698 -470c-17.333 25.333 -41 38 -71 38c-19.333 0 -37 -5.33301 -53 -16c-27.333 -18.667 -41 -43.667 -41 -75c0 -17.333 5 -33.666 15 -48.999l-697 -470
c-17.333 26 -41.333 39 -72 39c-18.667 0 -36.334 -5.66699 -53.001 -17l-22 33l11 5c14.667 10 16 23.667 4 41c-11.333 17.333 -28.666 20.333 -51.999 9l-25 37c20.667 14 24.667 30.667 12 50c-13.333 19.333 -30.333 22 -51 8l-23 34c20.667 14.667 25 30.667 13 48
c-10 16 -27 18.667 -51 8l-20 31c20.667 14 24.667 30.333 12 49c-10 15.333 -27 18 -51 8l-19 28c28 19.333 42 42.333 42 69c0 18 -6.66699 37 -20 57l701 473c20.667 -30.667 44.334 -46 71.001 -46c17.333 0 35.333 6.33301 54 19c28 18.667 42 41.667 42 69
c0 18.667 -6.66699 37.667 -20 57l700 472c20.667 -30 44.667 -45 72 -45c17.333 0 35.333 6.33301 54 19l19 -28c-18 -18.667 -22 -35.667 -12 -51c13.333 -20 30.333 -22 51 -6l21 -31c-19.333 -18 -23.666 -35 -12.999 -51c13.333 -20 30 -21.333 50 -4l23 -34
c-21.333 -15.333 -25.333 -32.666 -12 -51.999c12.667 -18.667 30 -21 52 -7l24 -37c-19.333 -17.333 -23 -34.666 -11 -51.999c12.667 -18.667 29 -19.667 49 -3zM1911 1006l-271 401l-660 -445l271 -401zM961.998 855.997c-13.333 19.333 -30.333 21.666 -51 6.99902
c-20.667 -14 -24.667 -30.333 -12 -49c12.667 -19.333 29.334 -22 50.001 -8c21.333 14.667 25.666 31.334 12.999 50.001zM1021 767.997c-13.333 19.333 -30.333 21.666 -51 6.99902c-20.667 -13.333 -24.667 -29.666 -12 -48.999c12 -18 28.333 -20 49 -6
c21.333 14 26 30 14 48zM1082 676.997c-13.333 20 -30.666 23 -51.999 9c-20.667 -14 -24.334 -31 -11.001 -51c13.333 -19.333 30.333 -22 51 -8s24.667 30.667 12 50zM1147 580.997c-14 20.667 -31.333 24 -52 10s-24.334 -31.333 -11.001 -52
c12 -17.333 28.333 -19 49 -5s25.334 29.667 14.001 47zM1062 432.997l-271 402l-660 -445l271 -402zM1883 1012l-73 -50l-249 369l73 49zM1793 950.997l-443 -299l-249 369l444 299zM1333 640.997l-77 -52l-249 369l77 52zM1034 438.997l-73 -49l-249 368l73 50z
M943.998 377.997l-443 -299l-249 369l443 299zM483.998 67.9971l-77 -52l-249 369l77 52z" />
    <glyph glyph-name="film" unicode="&#x2211;" 
d="M1638 1318l-1257 -458l-70 192l1257 457zM1729 0h-1346v850h1346v-850zM1561 1317v163l-89 -32v-164zM1384 1252v164l-89 -32v-165zM1201 1189v162l-89 -32v-163zM1704 670l-56 154h-95l56 -154h95zM1510 670l-56 154h-95l56 -154h95zM1023 1120v164l-89 -32v-164z
M1323 670l-56 154h-95l56 -154h95zM840 1057v163l-90 -32v-164zM1129 670l-56 154h-95l56 -154h95zM665 990v164l-90 -33v-163zM938 670l-56 154h-95l56 -154h95zM481 927v163l-89 -32v-164zM745 670l-57 154h-94l55 -154h96zM556 670l-57 154h-95l56 -154h96z" />
    <glyph glyph-name="movies" unicode="&#x220f;" 
d="M1914 955c0 -118.667 -41.833 -219.831 -125.5 -303.498s-184.834 -125.5 -303.501 -125.5c-44 0 -86.667 6.33301 -128 19v-123h33v61h133v-338h-133v52h-33v-81h-140v-126h-675v126h-86v351c-92 9.33301 -169.5 48.666 -232.5 117.999s-94.5 151 -94.5 245
c0 100.667 35.667 186.5 107 257.5s157.333 106.5 258 106.5c71.333 0 137 -19 197 -57c58 -37.333 102 -87.333 132 -150h234c8 111.333 53.167 205.333 135.5 282s179.833 115 292.5 115c118.667 0 219.834 -41.833 303.501 -125.5s125.5 -184.834 125.5 -303.501z
M1786 1116c-11.333 40 -42.6689 79.668 -94.002 119.001s-97.666 59 -138.999 59l-23 -3c-3.33301 -40.667 -4.66602 -91.334 -3.99902 -152.001c-0.666992 -28.667 13 -53 41 -73c22.667 -16 43.667 -24 63 -24c10 0 38.667 12.333 86 37zM1841 944.004
c0 33.333 -5.66699 58.666 -17 75.999l-93 -23c-18.667 -4 -41.334 -18.333 -68.001 -43s-40 -45 -40 -61c0 -39.333 14.667 -74 44 -104l79 -78c28.667 16.667 52.334 51.334 71.001 104.001c16 45.333 24 88.333 24 129zM1451 1143l-13.999 145
c-11.333 2.66699 -23.333 4 -36 4c-46.667 0 -95 -19.667 -145 -59s-81.667 -82 -95 -128c20 -8.66699 73.333 -29.667 160 -63c10 -4 20 -6 30 -6c27.333 0 51.666 12.333 72.999 37c20.667 22.667 29.667 46 27 70zM1495 1011c-11.333 0 -21.333 -2.33398 -30 -7.00098
l-20 19l-17 -17l19 -21c-5.33301 -6 -8 -15.667 -8 -29c0 -19.333 5.16699 -33.666 15.5 -42.999s23.5 -14 39.5 -14s29.333 5.5 40 16.5s16 24.5 16 40.5c0 14 -4.83301 26.667 -14.5 38s-23.167 17 -40.5 17zM1389 905.003l-32 8v-81zM1659 644.003l-74.001 123
c-26 42 -55.667 63 -89 63c-40 0 -69.667 -16.667 -89 -50l-50 -86v-61c36.667 -20.667 86.667 -31 150 -31c72.667 0 123.334 14 152.001 42zM1311 984.003l-170 26l-3 -26h173zM741.997 987.003c-16 32.667 -43 61.833 -81 87.5s-74.333 37.5 -109 35.5h-20
c-2.66699 -35.333 -3.66699 -76.333 -3 -123h213zM464.997 987.002c0 24 -1.66699 64.999 -5 122.999c-7.33301 0 -15.5 -0.5 -24.5 -1.5s-14.833 -1.5 -17.5 -1.5c-40 0 -78.333 -15.667 -115 -47s-60.667 -66.666 -72 -105.999c16.667 -7.33301 58 -24.333 124 -51
c8 -3.33301 16.667 -5 26 -5c32 0 57 17.667 75 53v36h9zM360.997 698.001c12 14 18 33.668 18 59.001c0 56.667 -16.667 87.667 -50 93l-117 16c-2.66699 -6 -4 -23.667 -4 -53c0 -38.667 8.83301 -77.334 26.5 -116.001s38.167 -64.667 61.5 -78zM455.997 534.002v170.001
c-12 -8 -21.333 -17.667 -28 -29l-60 -106c18.667 -18.667 48 -30.334 88 -35.001z" />
    <glyph glyph-name="video" unicode="&#x3c0;" 
d="M1806 119l-146.999 112h-142v-19h-79v19h-80v-144h-50l-50 -87h-427l-42 53h-239l-12 -53h-233l-13 53h-47v612l45 82h294l120 140c29.333 34.667 72 52 128 52h423l27 -87l98 91c-41.333 20.667 -62 48.667 -62 84c0 32.667 17.333 59.334 52 80.001
c29.333 16.667 62 25 98 25h161c35.333 0 67.666 -8.33301 96.999 -25c35.333 -20.667 53 -47.334 53 -80.001c0 -71.333 -72 -107 -216 -107c-16 0 -35.5 0.5 -58.5 1.5s-36.833 1.5 -41.5 1.5l-105 -166v-155h80v15h79v-15h131l158 144v-627zM1181 747
c-6.66699 81.333 -22.999 124.333 -48.999 129s-86 7 -180 7c-78.667 0 -129.334 -5.66699 -152.001 -17c-28 -14 -60 -53.667 -96 -119h477zM1117 159v487h-670v-487h670zM1087 193h-614v427h614v-427zM971.002 458v101h-397v-101h397z" />
    <glyph glyph-name="stereo" unicode="&#x222b;" 
d="M1747 1557l-127 -114l-8 8l126 115zM1574 1492h-17v131h17v-131zM1848 1349h-182v16h182v-16zM1513 1451l-8 -8l-127 114l9 9zM1760 1160l-9 -9l-126 115l8 8zM1449 1349h-182v16h182v-16zM1469 1269l-126 -115l-9 9l127 114zM2022 495
c0 -146 -35.333 -285.331 -106 -417.998h-290c14.667 -4 22 -20 22 -48c0 -19.333 -9.66699 -29 -29 -29h-258c-19.333 0 -29 16.333 -29 49c0 14.667 7.33301 24 22 28h-693c14.667 -4 22 -20 22 -48c0 -19.333 -9.66699 -29 -29 -29h-258c-19.333 0 -29 16.333 -29 49
c0 14.667 7.33301 24 22 28h-243c-76 146 -114 289 -114 429c0 136 38 257 114 363c260 34.667 533 52 819 52c138.667 0 279.667 -3 423 -9l151 399c-14.667 9.33301 -22 22.666 -22 39.999c0 32 15.667 48 47 48c32 0 48 -16 48 -48c0 -32.667 -16 -48.667 -48 -48h-2
l-135 -393c102 -4.66699 265 -18.334 489 -41.001c70.667 -108 106 -232.667 106 -374zM1332 712.002v160h-652v-160h652zM1360 255.002v396c0 22.667 -14.667 34 -44 34h-616c-22.667 0 -34 -11.333 -34 -34v-396c0 -22.667 11.333 -34 34 -34h626
c22.667 0 34 11.333 34 34zM1376 115.002l-41 58h-85l32 -58h94zM1251 115.002l-27 58h-93l18 -58h102zM1121 115.002l-16 58h-91v-58h107zM996 173.002h-86l-14 -58h99zM892 173.002h-85l-26 -58h94zM788 173.002h-86l-45 -58h99zM1297 740.002h-405v-20h-19v20h-163v45h10
v-35h95v35h10v-35h48v99h19v-99h27v35h10v-35h86v35h10v-35h76v35h10v-35h74v35h10v-35h92v35h10v-45zM1343 259.002c0 -16 -7.66699 -24 -23 -24h-614c-15.333 0 -23 8 -23 24v388c0 16 7.66699 24 23 24h604c22 0 33 -8 33 -24v-388zM1232 467.002v121h-424v-121h424z
M1681 839.002c-66.667 0 -122.5 -25.5 -167.5 -76.5s-67.5 -110.167 -67.5 -177.5s22 -125.666 66 -174.999c46 -52 102.333 -78 169 -78s123 26 169 78c44 49.333 66 107.666 66 174.999s-22 126 -66 176c-46 52 -102.333 78 -169 78zM358 839.002
c-66.667 0 -122.667 -25.5 -168 -76.5s-68 -110.167 -68 -177.5s22.333 -125.666 67 -174.999c46 -52 102.333 -78 169 -78s123 26 169 78c44 49.333 66 107.666 66 174.999s-22 126 -66 176c-46 52 -102.333 78 -169 78zM1681 362.002c-58 0 -107.333 22.666 -148 67.999
c-38 44 -57 95.667 -57 155s19 111 57 155c40.667 46 90 69 148 69s106.667 -22.5 146 -67.5s59 -97.167 59 -156.5s-19.333 -110.666 -58 -153.999c-40 -46 -89 -69 -147 -69zM358 362.001c-58.667 0 -107.667 22.332 -147 66.999s-59 96.667 -59 156
s19.667 111.5 59 156.5s88.333 67.5 147 67.5c58 0 106.667 -22.5 146 -67.5s59 -97.167 59 -156.5s-19.333 -110.666 -58 -153.999c-40 -46 -89 -69 -147 -69z" />
    <glyph glyph-name="radio" unicode="&#xaa;" 
d="M1749 1558l-119 -106c-4 -4 -7.66699 -4 -11 0c-3.33301 4.66699 -3 8.66699 1 12l118 107c4.66699 3.33301 8.66699 3 12 -1s3 -8 -1 -12zM1579 1499c0 -5.33301 -2.66699 -8 -8 -8c-6 0 -9 2.66699 -9 8v131c0 5.33301 3 8 9 8c5.33301 0 8 -2.66699 8 -8v-131z
M1853 1356h-182c-5.33301 0 -8 2.66699 -8 8s2.66699 8 8 8h182c5.33301 0 8 -2.66699 8 -8s-2.66699 -8 -8 -8zM1515 1464c4 -3.33301 4.33301 -7.33301 1 -12c-3.33301 -4 -7 -4 -11 0l-119 106c-4 4 -4.33301 8 -1 12s7 4.33301 11 1zM1749 1188c4 -4 4.33301 -8 1 -12
s-7.33301 -4.33301 -12 -1l-118 107c-4 3.33301 -4.33301 7 -1 11c3.33301 4.66699 7 5 11 1zM1454 1356h-182c-6 0 -9 2.66699 -9 8s3 8 9 8h182c5.33301 0 8 -2.66699 8 -8s-2.66699 -8 -8 -8zM1515 1282l-119 -107c-4 -3.33301 -7.66699 -3 -11 1s-3 8 1 12l119 106
c4 4 7.66699 3.66699 11 -1c3.33301 -4 3 -7.66699 -1 -11zM1894 76h-47v-76h-1630v76h-60v792h1325v31h66v420c-18 7.33301 -27 21 -27 41c0 28.667 14.333 43 43 43c30 0 45 -14.333 45 -43c0 -20 -9.33301 -33.667 -28 -41v-420h59v-31h254v-792zM1664 406v28h-556v-28
h556zM1705 324v28h-638v-28h638zM1812 506v268h-1558v-268h1558zM1705 240v28h-638v-28h638zM1664 158v28h-556v-28h556zM1829 80v26h-1588v-26h1588zM573 289c0 41.333 -14.667 76.666 -44 105.999s-65 44 -107 44c-41.333 0 -76.666 -14.667 -105.999 -44
s-44 -64.666 -44 -105.999c0 -42 14.667 -77.667 44 -107s64.666 -44 105.999 -44c42 0 77.667 14.667 107 44s44 65 44 107zM1753 553h-1004v-35h-32v35h-412v76h16v-60h103v29h18v-29h109v60h16v-60h102v29h19v-29h29v166h32v-166h45v60h17v-60h102v29h19v-29h108v60h16
v-60h103v29h18v-29h109v60h16v-60h103v29h18v-29h88v60h17v-60h102v29h18v-29h88v60h17v-76zM557 289c0 -37.333 -13.167 -69.166 -39.5 -95.499s-58.166 -39.5 -95.499 -39.5c-36.667 0 -68.167 13.167 -94.5 39.5s-39.5 58.166 -39.5 95.499
c0 36.667 13.167 68.167 39.5 94.5s57.833 39.5 94.5 39.5c37.333 0 69.166 -13.167 95.499 -39.5s39.5 -57.833 39.5 -94.5z" />
    <glyph glyph-name="levelcontrol" unicode="&#xba;" horiz-adv-x="1377" 
d="M1149 -262c0 -22.667 -8 -42 -24 -58s-35.333 -24 -58 -24h-757c-22.667 0 -42 8 -58 24s-24 35.333 -24 58v1801c0 22.667 8 42 24 58s35.333 24 58 24h757c22.667 0 42 -8 58 -24s24 -35.333 24 -58v-1801zM1099 -262v1801c0 21.333 -10.667 32 -32 32h-757
c-21.333 0 -32 -10.667 -32 -32v-1801c0 -21.333 10.667 -32 32 -32h757c21.333 0 32 10.667 32 32zM878 811h-142v-811h-108v811h-152v170h152v332h108v-332h142v-170zM838 896v58h-335v-58h335z" />
    <glyph glyph-name="audiocontrol" unicode="&#x3a9;" horiz-adv-x="1377" 
d="M1149 -262c0 -22.667 -8 -42 -24 -58s-35.333 -24 -58 -24h-757c-22.667 0 -42 8 -58 24s-24 35.333 -24 58v1801c0 22.667 8 42 24 58s35.333 24 58 24h757c22.667 0 42 -8 58 -24s24 -35.333 24 -58v-1801zM1099 -262v1801c0 21.333 -10.667 32 -32 32h-757
c-21.333 0 -32 -10.667 -32 -32v-1801c0 -21.333 10.667 -32 32 -32h757c21.333 0 32 10.667 32 32zM969 1107c0 -78.667 -27 -147.332 -81 -205.999l-87 73c-17.333 -54 -62.333 -81 -135 -81c-63.333 0 -105 30 -125 90l-95 -69c-48.667 57.333 -73 121.666 -73 192.999
c0 82 29.167 152.167 87.5 210.5s128.5 87.5 210.5 87.5c82.667 0 153 -29.167 211 -87.5s87 -128.5 87 -210.5zM856 710.002h-375v99h375v-99zM969 224.002c0 -78 -26.333 -145.667 -79 -203l-84 87c-21.333 -65.333 -68 -98 -140 -98c-62 0 -105.333 32.667 -130 98
l-93 -76c-46.667 55.333 -70 119.333 -70 192c0 82 29.167 152.167 87.5 210.5s128.5 87.5 210.5 87.5c82.667 0 153 -29.167 211 -87.5s87 -128.5 87 -210.5zM852 1302l-13 11l-51 -62l13 -11zM915 1211l-8 15l-72 -35l7 -15zM759 1355l-15 6l-30 -74l15 -6zM944 1093v16
h-81v-16h81zM648 1291l-30 75l-15 -7l30 -74zM926 997.002l-71 38l-8 -15l72 -39zM820 1114c-2 39.333 -17.3281 72.668 -45.9951 100.001s-63 41 -103 41c-40.667 0 -75.334 -14.333 -104.001 -43s-43.334 -63.334 -44.001 -104.001c7.33301 38 26.666 68.333 57.999 91
c27.333 20 58.666 30 93.999 30c36.667 0 68.667 -11.667 96 -35c25.333 -21.333 41.666 -48 48.999 -80zM564.005 1258l-58 56l-11 -12l58 -56zM784.005 1031c0 31.333 -11 58.166 -33 80.499s-48.667 33.5 -80 33.5c-32 0 -59 -11.167 -81 -33.5s-33 -49.166 -33 -80.499
s11 -58.166 33 -80.499s49 -33.5 81 -33.5c31.333 0 58 11.167 80 33.5s33 49.166 33 80.499zM506.005 1191l-73 34l-7 -15l73 -34zM484.005 1093v16h-80v-16h80zM499.005 1026l-7 15l-71 -38l8 -15zM820.005 231.004c-2 39.333 -17.3281 72.668 -45.9951 100.001
s-63 41 -103 41c-40.667 0 -75.334 -14.333 -104.001 -43s-43.334 -63.334 -44.001 -104.001c7.33301 38.667 26.666 69 57.999 91c27.333 20 58.666 30 93.999 30c36.667 0 68.667 -11.333 96 -34c25.333 -21.333 41.666 -48.333 48.999 -81zM784.01 148.006
c0 31.333 -11 58.166 -33 80.499s-48.667 33.5 -80 33.5c-32 0 -59 -11.167 -81 -33.5s-33 -49.166 -33 -80.499s11 -58.166 33 -80.499s49 -33.5 81 -33.5c31.333 0 58 11.167 80 33.5s33 49.166 33 80.499zM761.01 1077.01l-81 -69.999
c-5.33301 9.33301 -13.333 17.666 -24 24.999l82 73c9.33301 -6.66699 17 -16 23 -28zM761.01 194.007l-81 -69.999c-5.33301 9.33301 -13.333 17.666 -24 24.999l82 73c9.33301 -6.66699 17 -16 23 -28z" />
    <glyph glyph-name="television" unicode="&#xe6;" 
d="M1704 235c0 -28.667 -27.333 -43 -82 -43c4 -6.66699 6 -16 6 -28c0 -28.667 -8.33301 -46.667 -25 -54v-44l38 -66h-1216l41 66v43c-18.667 7.33301 -28 27.333 -28 60c0 8 2.33301 15.667 7 23l-30 -1c-42 -0.666992 -63 14 -63 44v1018c0 28.667 14.333 43 43 43h1266
c28.667 0 43 -14.333 43 -43v-1018zM1590 769c0 157.333 -8.99707 275.333 -26.9971 354c-4.66699 18.667 -9.5 30.5 -14.5 35.5s-16.5 9.5 -34.5 13.5c-72 14.667 -228 22 -468 22c-258.667 0 -426.334 -7.33301 -503.001 -22c-18.667 -4 -30.334 -8.5 -35.001 -13.5
s-9.33398 -16.833 -14.001 -35.5c-18.667 -80.667 -28 -200.667 -28 -360c0 -181.333 9.33301 -316.333 28 -405c6 -26.667 22.333 -42.667 49 -48c91.333 -18.667 262.333 -28 513 -28c220 0 372.667 9.33301 458 28c26.667 5.33301 43 21.333 49 48
c18 86.667 27 223.667 27 411zM1525 94c0 20.667 -10.333 31 -31 31c-20 0 -30 -10.333 -30 -31c0 -20 10 -30 30 -30c20.667 0 31 10 31 30zM1388 64v53h-104v-53h104zM1253 64v53h-104v-53h104zM1115 64v53h-103v-53h103z" />
    <glyph glyph-name="computers1" unicode="&#xf8;" horiz-adv-x="1726" 
d="M1655 273l-158 -0.000976562v-85h-172v-66h-138c48 -5.33301 103.667 -19.666 167 -42.999c68 -24.667 121.667 -51 161 -79h-1289c77.333 51.333 185.333 92 324 122h-134v66h-214v85h-130v1244h1583v-1244zM1635 296.999v1209h-1546v-1209h1546zM1460 272.999h-142.999
c13.333 -30 37.666 -45 72.999 -45c34 0 57.333 15 70 45zM1260 272.999h-142.999c13.333 -30 37.666 -45 72.999 -45c34 0 57.333 15 70 45zM1500 539.999c0 -33.333 -16.333 -50 -49 -50h-1171c-33.333 0 -50 16.667 -50 50v821c0 33.333 16.667 50 50 50h1171
c32.667 0 49 -16.667 49 -50v-821zM1478 343.999h-103v32h103v-32zM1404 621.999v731h-1068v-730zM1430 536.999v64h-1152v-64h1152zM1392 1159h-141v125h141v-125zM1391 706.999h-53v339h53v-339zM1388 1295h-1046v50h1046v-50zM1383 1091h-937v56h937v-56zM1235 1160h-886
v124h886v-124zM1325 677.999h-975v394h975v-394zM423.002 549.999h-125v40h125v-40zM1375 1305v35h-45v-35h45zM1325 1305v35h-45v-35h45zM1275 1305v35h-45v-35h45zM1367 1222c0.666992 8.66699 -2.00098 17.334 -8.00098 26.001c1.33301 3.33301 2 7 2 11
c0 2.66699 -0.666992 5.16699 -2 7.5s-3.66602 3.5 -6.99902 3.5c-4 0 -9.66699 -1.66699 -17 -5l-13 2c-33.333 0 -48 -17.333 -44 -52c-7.33301 -10.667 -11 -19.334 -11 -26.001c0 -6 3.33301 -9 10 -9c4.66699 0 11 2 19 6c8 -6 16.667 -9 26 -9
c22 0 36.333 10.667 43 32h-27c-4.66699 -7.33301 -10 -11 -16 -11c-10 0 -15 5.33301 -15 16l59 1zM1206 1194l-37 58l-37 -58h74zM1380 1009l-18 27l-18 -27h36zM1385 886.999v87h-42v-87h42zM1085 1194v56h-77v-56h77zM972.001 1197l-24.001 17v8c0 24 -11.667 36 -35 36
c-24 0 -36 -12 -36 -36s12 -36 36 -36c8.66699 0 16.334 3 23.001 9l23 -14zM1378 739.999h-35l18 -26zM743 1313v21h-32v-21h32zM836 1189v42l-37 37l-34 -37v-42h71zM674 1313v24h-71v-24h71zM708 1189v71h-58v-71h58zM566 1311v26h-96v-26h96zM612 1226
c0 24 -11.667 36 -35 36c-24 0 -36 -12 -36 -36s12 -36 36 -36c23.333 0 35 12 35 36zM447 1308v29h-96v-29h96zM518 1218l-28 30v-24h-21v-13h21v-19zM430 1211v13h-22v24l-27 -30l27 -26v19h22zM1367 1311h-9l-5 5l-6 -5h-9l10 12l-10 13h9l6 -6l5 6h9l-10 -13zM1316 1312
h-27v23h27v-23zM1360 1257l-2 -7l-12 8l10 3zM1265 1312h-28v7h28v-7zM1339 1231h-30.001c0.666992 11.333 5.33398 17 14.001 17s14 -5.66699 16 -17zM1290 1191c-3.33301 -2 -6.33301 -3 -9 -3c-2 0 -3 1 -3 3c0 4 1.33301 7.33301 4 10zM591.999 1213h-9l-5 5l-6 -5h-9
l10 12l-10 13h9l6 -6l5 6h9l-10 -13zM1311 1316v15h-17v-15h17z" />
    <glyph glyph-name="computers2" unicode="&#xbf;" horiz-adv-x="1058" 
d="M953 60h-40v-60h-757v60h-53v1523h850v-1523zM927 90v1472h-803v-1472h803zM835 686h-619v812h619v-812zM819 646h-69v24h69v-24zM833 569c0 -40.667 -20.333 -61 -61 -61s-61 20.333 -61 61s20.333 61 61 61s61 -20.333 61 -61zM635 469h-410v26h410v-26zM635 369h-410
v26h410v-26zM635 269h-410v26h410v-26zM635 169h-410v26h410v-26zM813 1304v178h-579v-178h579zM813 1164v117h-579v-117h579zM813 1067v75h-579v-75h579zM813 909v132h-579v-132h579zM813 709v177h-579v-177h579zM771 1350h-103v29h103v-29zM774 1392h-138v-18h-227v18
h-140v45h505v-45zM385 1350h-40v24h40v-24z" />
    <glyph glyph-name="computers3" unicode="&#xa1;" 
d="M2036 103c0 -68.667 -11.6699 -132.334 -35.0029 -191.001c-25.333 -63.333 -51.666 -106.666 -78.999 -129.999c-34 -29.333 -83.667 -44 -149 -44c-21.333 0 -53 6 -95 18c-50 14.667 -75 29.667 -75 45s14 36.666 42 63.999c-38 32 -57 72 -57 120
c0 32.667 15.667 68.334 47 107.001l82 87l69 106c26 38 61.667 56 107 54l18 -1c6 16.667 27 54 63 112c21.333 34.667 32 79.667 32 135c0 52.667 -23.667 95.334 -71 128.001c-42 30 -90.333 45 -145 45l147 -83c0.666992 -13.333 7.5 -31.666 20.5 -54.999
s19.5 -39 19.5 -47c0 -36.667 -41.667 -74.667 -125 -114c-99.333 -48 -157.333 -82 -174 -102c-20.667 -25.333 -67 -97.333 -139 -216c-53.333 -88 -109 -154 -167 -198c-266 -202 -606.667 -309.333 -1022 -322c-15.333 14.667 -29 36 -41 64
c-25.333 22 -61.666 56.333 -108.999 103c-23.333 25.333 -61.333 83.333 -114 174c-55.333 96 -83 155 -83 177c0 24 17.667 42.333 53 55c26.667 10 54.334 15 83.001 15l-53 159l42 67l1408 468l222 -125c5.33301 0.666992 11.333 1 18 1c70 0 128 -14.667 174 -44
c54 -34.667 81 -85.334 81 -152.001c0 -53.333 -10.667 -98.333 -32 -135l-65 -110l33 -3c16.667 -1.33301 25 -2.33301 25 -3s0.666992 -1.33398 2 -2.00098c14.667 -8 23.667 -18 27 -30c0.666992 -2 2 -16.667 4 -44c7.33301 -83.333 11 -134.333 11 -153zM2010 245
c-2.66699 38.667 -8 61.333 -16 68s-32.667 10.667 -74 12l-18 -49c18 -2.66699 54 -13 108 -31zM1908 323.999l-19 1c-35.333 1.33301 -65.333 -17 -90 -55c30 7.33301 60.667 10 92 8zM2021 101.999c0 14.667 -3 55.667 -9 123c-46.667 25.333 -90 38 -130 38
c-36 0 -66 -3 -90 -9c-10 -12.667 -20.333 -27.667 -31 -45c-4 -7.33301 -35.667 -42 -95 -104c-42 -44.667 -63 -84.667 -63 -120c0 -52 24.667 -93.333 74 -124c41.333 -26 90 -39 146 -39c132 0 198 93.333 198 280zM1917 663.999l-378 222l-1385 -473l136 -534z
M1948 578.999c0 27.333 -12.332 46.333 -36.999 57l-1584 -777c12 -94.667 27.333 -153.334 46 -176.001l21 -2c69.333 0 179.333 14.667 330 44c156.667 30.667 262 59.667 316 87c214.667 108.667 371 222 469 340c15.333 18.667 41.666 57.334 78.999 116.001
c31.333 50 59.666 87.333 84.999 112c20.667 20 77.334 52.667 170.001 98c70 34 105 67.667 105 101zM1551 840.999l-145 -59l-3 40l7 3l10 -9l3 12l5 2l7 -9l110 44zM1994 38.999c0 -43.333 -15.667 -85.668 -47 -127.001c-34 -44.667 -72 -67 -114 -67
c-30 0 -58 6 -84 18c33.333 68.667 51.333 131.334 54 188.001l123 -114c18 22 40.333 57.333 67 106zM886.998 508.997l-49 -15l-8 26l40 12zM925.998 456.997l-54 -16l-6 23l37 15zM977.998 395.997l-61 -25l-12 26l56 19zM1512 549.997
c-71.333 -38.667 -174.333 -101.334 -309 -188.001c-23.333 -17.333 -66.333 -37.666 -129 -60.999l-224 -94c-26.667 -8 -64.667 -21.333 -114 -40c-0.666992 0 -139.667 -66.333 -417 -199l-90 356l19 17l12 -40c10.667 4 25 9.66699 43 17h1
c-1.33301 1.33301 -2 1.33301 -2 0l-14 28l23 8l15 -28l40 15l-14 27l23 9l15 -27l49 18l-14 28l23 9l15 -28l40 16l-13 26l22 8l14 -26l48 19l-3 -1l-14 28l22 8l15 -28l44 17l-14 28l22 8l15 -28l52 20v-25l-67 -25l21 -32l55 20l16 -19l-32 -12l19 -27l58 22v-25l-33 -13
l23 -27l63 26l3 -28l-123 -56l21 -33c121.333 27.333 209.333 52 264 74c90 35.333 165.667 86.333 227 153l279 122zM752.998 300.997l-21 28l-48 -17l21 -30zM701.998 342.997l-18 28l-54 -20l20 -28zM646.998 382.997l-22 31l-57 -20l25 -31zM681.998 271.997l-19 31
l-46 -18l21 -31zM626.998 313.997l-19 29l-53 -20l20 -28zM572.998 354.997l-27 31l-46 -17l22 -33zM700.998 201.997l-22 33l-90 -38l21 -36zM615.998 244.997l-22 32l-50 -20l21 -32zM548.998 284.997l-20 29l-51 -20l20 -28zM501.998 328.997l-24 32l-51 -19l22 -33z
M538.998 213.997l-20 35l-47 -18l23 -33zM428.998 301.997l-23 32l-46 -16l21 -34zM473.998 255.997l-21 30l-50 -20l16 -28zM587.998 150.997l-20 36l-94 -38l22 -39zM354.998 275.997l-19 33l-65 -24l11 -38zM393.998 226.997l-21 29l-84 -31l11 -35zM472.998 186.997
l-21 36l-146 -55l14 -43zM469.998 98.9971l-22 39l-117 -50l14 -46z" />
    <glyph glyph-name="computers4" unicode="&#xac;" 
d="M1287 807h-527v79l43 63v28h-43v414h527v-414h-53v-28l53 -63v-79zM1878 0h-527v79l43 63v28h-43v414h527v-414h-53v-28l53 -63v-79zM1292 491h-103l36 38l-125 125l-40 -36v103h107l-36 -35l126 -125l35 35v-105zM988 721v-105l-40 36l-125 -125l35 -36h-103v103l36 -36
l125 126l-36 37h108zM1193 337l-77 -71v50h-177v-51l-83 72l83 74v-50h177v50zM697 0h-527v79l43 63v28h-43v414h527v-414h-53v-28l53 -63v-79zM1235 1066v273c0 11.333 -5.33301 17 -16 17h-390c-11.333 0 -17 -5.66699 -17 -17v-273c0 -11.333 5.66699 -17 17 -17h390
c10.667 0 16 5.66699 16 17zM1826 259v273c0 11.333 -5.33301 17 -16 17h-390c-11.333 0 -17 -5.66699 -17 -17v-273c0 -11.333 5.66699 -17 17 -17h390c10.667 0 16 5.66699 16 17zM645 259v273c0 11.333 -5.33301 17 -16 17h-390c-11.333 0 -17 -5.66699 -17 -17v-273
c0 -11.333 5.66699 -17 17 -17h390c10.667 0 16 5.66699 16 17z" />
    </font>
</defs>
</svg>
